SplineFontDB: 3.0
FontName: Francois
FullName: Francois
FamilyName: Francois
Weight: Book
Copyright: Copyright (c) 2011 by vernon adams. All rights reserved.
Version: 1.000
ItalicAngle: 0
UnderlinePosition: -103
UnderlineWidth: 102
Ascent: 1638
Descent: 410
sfntRevision: 0x00010000
LayerCount: 2
Layer: 0 1 "Back"  1
Layer: 1 1 "Fore"  0
XUID: [1021 740 1454621373 6589057]
FSType: 0
OS2Version: 2
OS2_WeightWidthSlopeOnly: 0
OS2_UseTypoMetrics: 1
CreationTime: 1300962657
ModificationTime: 1300966973
PfmFamily: 81
TTFWeight: 400
TTFWidth: 5
LineGap: 0
VLineGap: 0
Panose: 0 0 0 0 0 0 0 0 0 0
OS2TypoAscent: 538
OS2TypoAOffset: 1
OS2TypoDescent: -146
OS2TypoDOffset: 1
OS2TypoLinegap: 0
OS2WinAscent: -2912
OS2WinAOffset: 1
OS2WinDescent: -173
OS2WinDOffset: 1
HheadAscent: -2912
HheadAOffset: 1
HheadDescent: 173
HheadDOffset: 1
OS2SubXSize: 1434
OS2SubYSize: 1331
OS2SubXOff: 0
OS2SubYOff: 287
OS2SupXSize: 1434
OS2SupYSize: 1331
OS2SupXOff: 0
OS2SupYOff: 977
OS2StrikeYSize: 102
OS2StrikeYPos: 512
OS2Vendor: 'newt'
OS2CodePages: 20000193.4d000000
OS2UnicodeRanges: a00000bf.7800204b.14000000.00000000
Lookup: 258 0 0 "'kern' Horizontal Kerning in Latin lookup 0"  {"'kern' Horizontal Kerning in Latin lookup 0 subtable"  } ['kern' ('latn' <'dflt' > ) ]
MarkAttachClasses: 1
DEI: 91125
TtTable: prep
PUSHW_1
 511
SCANCTRL
PUSHB_1
 1
SCANTYPE
SVTCA[y-axis]
MPPEM
PUSHB_1
 8
LT
IF
PUSHB_2
 1
 1
INSTCTRL
EIF
PUSHB_2
 70
 6
CALL
IF
POP
PUSHB_1
 16
EIF
MPPEM
PUSHB_1
 20
GT
IF
POP
PUSHB_1
 128
EIF
SCVTCI
PUSHB_1
 6
CALL
NOT
IF
SVTCA[y-axis]
PUSHB_1
 4
DUP
RCVT
PUSHB_1
 3
CALL
WCVTP
PUSHB_1
 5
DUP
RCVT
PUSHB_3
 4
 22
 2
CALL
PUSHB_1
 3
CALL
WCVTP
PUSHB_1
 6
DUP
RCVT
PUSHB_3
 5
 20
 2
CALL
PUSHB_1
 3
CALL
WCVTP
PUSHB_1
 7
DUP
RCVT
PUSHB_3
 6
 17
 2
CALL
PUSHB_1
 3
CALL
WCVTP
PUSHB_1
 8
DUP
RCVT
PUSHB_3
 7
 16
 2
CALL
PUSHB_1
 3
CALL
WCVTP
PUSHB_1
 9
DUP
RCVT
PUSHB_3
 8
 15
 2
CALL
PUSHB_1
 3
CALL
WCVTP
SVTCA[x-axis]
PUSHB_1
 10
DUP
RCVT
PUSHB_1
 3
CALL
WCVTP
PUSHB_1
 11
DUP
RCVT
PUSHW_3
 10

StartChar: yen
Encoding: 165 165 3
Width: 1112
GlyphClass: 2
Flags: W
HStem: 0 21G<416 719> 281 198<223 416 719 899> 561 198<223 366 754 899> 1516 20G<46 382.594 807.875 1074>
VStem: 416 303<0 281 479 561>
LayerCount: 2
Fore
SplineSet
719 561 m 1,0,-1
 719 479 l 1,1,-1
 899 479 l 1,2,-1
 899 281 l 1,3,-1
 719 281 l 1,4,-1
 719 0 l 1,5,-1
 416 0 l 1,6,-1
 416 281 l 1,7,-1
 223 281 l 1,8,-1
 223 479 l 1,9,-1
 416 479 l 1,10,-1
 416 561 l 1,11,-1
 223 561 l 1,12,-1
 223 759 l 1,13,-1
 366 759 l 1,14,-1
 46 1536 l 1,15,-1
 376 1536 l 1,16,-1
 587 896 l 1,17,-1
 815 1536 l 1,18,-1
 1074 1536 l 1,19,-1
 754 759 l 1,20,-1
 899 759 l 1,21,-1
 899 561 l 1,22,-1
 719 561 l 1,0,-1
EndSplineSet
EndChar

StartChar: Eth
Encoding: 208 208 4
Width: 1158
GlyphClass: 2
Flags: W
HStem: 0 240<442 628.047> 672 192<0 143 442 576> 1296 240<442 623.459>
VStem: 143 299<240 672 864 1296> 760 300<413.579 1129.92>
CounterMasks: 1 e0
LayerCount: 2
Fore
SplineSet
760 817 m 2,0,1
 760 896 760 896 754 959.5 c 128,-1,2
 748 1023 748 1023 729 1088 c 0,3,4
 716 1135 716 1135 695.5 1173 c 128,-1,5
 675 1211 675 1211 644 1238 c 128,-1,6
 613 1265 613 1265 572 1280 c 128,-1,7
 531 1295 531 1295 477 1296 c 1,8,-1
 442 1296 l 1,9,-1
 442 864 l 1,10,-1
 576 864 l 1,11,-1
 576 672 l 1,12,-1
 442 672 l 1,13,-1
 442 240 l 1,14,-1
 485 240 l 2,15,16
 552 240 552 240 602 267 c 128,-1,17
 652 294 652 294 681 337 c 0,18,19
 711 381 711 381 729 443 c 0,20,21
 747 506 747 506 753.5 568 c 128,-1,22
 760 630 760 630 760 705 c 2,23,-1
 760 817 l 2,0,1
457 1536 m 2,24,25
 623 1536 623 1536 738.5 1481.5 c 128,-1,26
 854 1427 854 1427 925 1326 c 128,-1,27
 996 1225 996 1225 1028 1082 c 128,-1,28
 1060 939 1060 939 1060 762 c 0,29,30
 1060 583 1060 583 1022 436 c 0,31,32
 985 291 985 291 901.5 184.5 c 128,-1,33
 818 78 818 78 691 30 c 0,34,35
 611 0 611 0 510 0 c 2,36,-1
 143 0 l 1,37,-1
 143 672 l 1,38,-1
 0 672 l 1,39,-1
 0 864 l 1,40,-1
 143 864 l 1,41,-1
 143 1536 l 1,42,-1
 457 1536 l 2,24,25
EndSplineSet
EndChar

StartChar: J
Encoding: 74 74 34
Width: 682
GlyphClass: 2
Flags: W
HStem: -28 219<58.4172 291.5> 1516 20G<298 548>
VStem: 248 300<214.575 1512>
LayerCount: 2
Fore
SplineSet
56 205 m 1,0,1
 100 191 100 191 136 191 c 0,2,3
 179 191 179 191 200 210 c 128,-1,4
 221 229 221 229 233 258 c 0,5,6
 240 273 240 273 243 304 c 0,7,8
 245 319 245 319 246 330.5 c 128,-1,9
 247 342 247 342 247.5 353.5 c 128,-1,10
 248 365 248 365 248 378 c 128,-1,11
 248 391 248 391 248 409 c 2,12,-1
 248 1512 l 1,13,-1
 548 1536 l 1,14,-1
 548 384 l 2,15,16
 548 290 548 290 533.5 219 c 128,-1,17
 519 148 519 148 486 90 c 0,18,19
 454 33 454 33 394.5 2.5 c 128,-1,20
 335 -28 335 -28 248 -28 c 0,21,22
 167 -28 167 -28 56 2 c 1,23,-1
 56 205 l 1,0,1
EndSplineSet
EndChar

StartChar: K
Encoding: 75 75 35
Width: 1241
GlyphClass: 2
Flags: W
HStem: 0 21G<141 441 818.189 912.143> 1516 20G<191 441 794.167 1125>
VStem: 141 300<0 401 864 1512>
DStem2: 441 864 796 902 0.476283 0.879292<202.494 764.251>
LayerCount: 2
Fore
SplineSet
589 666 m 1,0,-1
 441 401 l 1,1,-1
 441 0 l 1,2,-1
 141 0 l 1,3,-1
 141 1512 l 1,4,-1
 441 1536 l 1,5,-1
 441 864 l 1,6,-1
 805 1536 l 1,7,-1
 1125 1536 l 1,8,-1
 796 902 l 1,9,-1
 1130 43 l 1,10,-1
 825 -27 l 1,11,-1
 589 666 l 1,0,-1
EndSplineSet
EndChar

StartChar: L
Encoding: 76 76 36
Width: 989
GlyphClass: 2
Flags: W
HStem: 0 240<444 916> 1516 20G<194.833 444>
VStem: 145 299<240 1512>
LayerCount: 2
Fore
SplineSet
444 1536 m 1,0,-1
 444 240 l 1,1,-1
 964 240 l 1,2,-1
 916 0 l 1,3,-1
 145 0 l 1,4,-1
 145 1512 l 1,5,-1
 444 1536 l 1,0,-1
EndSplineSet
EndChar

StartChar: M
Encoding: 77 77 37
Width: 1624
GlyphClass: 2
Flags: W
HStem: 0 21G<143 391 693.615 889.035 1171 1429.33> 1514 20G<143 587.347>
VStem: 143 248<12 1144> 1171 310<12 1140>
DStem2: 582 1534 391 1144 0.259973 -0.965616<326.935 983.368> 836 584 884 0 0.244137 0.969741<0 620.962>
LayerCount: 2
Fore
SplineSet
391 1144 m 1,0,-1
 391 12 l 1,1,-1
 143 0 l 1,2,-1
 143 1522 l 1,3,-1
 582 1534 l 1,4,-1
 836 584 l 1,5,-1
 1080 1500 l 1,6,-1
 1481 1524 l 1,7,-1
 1481 12 l 1,8,-1
 1171 -12 l 1,9,-1
 1171 1140 l 1,10,-1
 884 0 l 1,11,-1
 699 0 l 1,12,-1
 391 1144 l 1,0,-1
EndSplineSet
EndChar

StartChar: N
Encoding: 78 78 38
Width: 1248
GlyphClass: 2
Flags: W
HStem: 0 21G<143 411 850.646 1065> 1516 20G<143 464.665 894.333 1106>
VStem: 143 268<12 948> 852 254<622 1512>
LayerCount: 2
Fore
SplineSet
411 948 m 1,0,-1
 411 12 l 1,1,-1
 143 0 l 1,2,-1
 143 1524 l 1,3,-1
 456 1536 l 1,4,-1
 852 622 l 1,5,-1
 852 1512 l 1,6,-1
 1106 1536 l 1,7,-1
 1106 12 l 1,8,-1
 860 -12 l 1,9,-1
 411 948 l 1,0,-1
EndSplineSet
EndChar

StartChar: O
Encoding: 79 79 39
Width: 1169
GlyphClass: 2
Flags: W
HStem: -32 255<487.039 679.446> 1329 239<490.132 672.225>
VStem: 108 299<370.219 1194.56> 761 298<359.312 1205.39>
DStem2: 732 384 1025 407 0.194468 0.980909<-124.234 375.381>
LayerCount: 2
Fore
SplineSet
583 -32 m 1,0,1
 501 -32 501 -32 434 -8 c 128,-1,2
 367 16 367 16 321 55 c 256,3,4
 275 94 275 94 239 152 c 0,5,6
 203 211 203 211 181.5 272 c 128,-1,7
 160 333 160 333 144 408 c 0,8,9
 108 577 108 577 108 820 c 0,10,11
 108 1359 108 1359 368 1514 c 0,12,13
 458 1568 458 1568 583 1568 c 0,14,15
 827 1568 827 1568 948 1363 c 0,16,17
 1061 1173 1061 1173 1061 820 c 0,18,19
 1061 761 1061 761 1059 707.5 c 128,-1,20
 1057 654 1057 654 1053 605 c 256,21,22
 1049 556 1049 556 1042.5 507 c 128,-1,23
 1036 458 1036 458 1025 407 c 1,24,25
 1006 309 1006 309 971 232 c 0,26,27
 945 175 945 175 908.5 126 c 128,-1,28
 872 77 872 77 824 41.5 c 128,-1,29
 776 6 776 6 716 -14 c 128,-1,30
 656 -34 656 -34 583 -32 c 1,0,1
583 223 m 256,31,32
 647 223 647 223 680.5 266 c 128,-1,33
 714 309 714 309 732 384 c 0,34,35
 739 413 739 413 744 446.5 c 128,-1,36
 749 480 749 480 752 520 c 0,37,38
 756 560 756 560 757.5 594 c 128,-1,39
 759 628 759 628 760 656 c 0,40,41
 761 685 761 685 761 725.5 c 128,-1,42
 761 766 761 766 761 820 c 0,43,44
 761 906 761 906 758 965 c 1,45,46
 757 1022 757 1022 746 1096 c 1,47,48
 737 1171 737 1171 713.5 1222.5 c 128,-1,49
 690 1274 690 1274 654 1304 c 0,50,51
 623 1329 623 1329 583 1329 c 0,52,53
 558 1329 558 1329 539 1321 c 128,-1,54
 520 1313 520 1313 504.5 1299.5 c 128,-1,55
 489 1286 489 1286 477.5 1267.5 c 128,-1,56
 466 1249 466 1249 456 1228 c 0,57,58
 443 1201 443 1201 436 1164 c 0,59,60
 432 1145 432 1145 429 1129.5 c 128,-1,61
 426 1114 426 1114 423.5 1099.5 c 128,-1,62
 421 1085 421 1085 419.5 1069.5 c 128,-1,63
 418 1054 418 1054 416 1036 c 0,64,65
 407 949 407 949 407 820 c 0,66,67
 407 766 407 766 407 726 c 128,-1,68
 407 686 407 686 408 657 c 0,69,70
 409 629 409 629 410.5 595 c 128,-1,71
 412 561 412 561 415 521 c 0,72,73
 419 481 419 481 423.5 447 c 128,-1,74
 428 413 428 413 435 384 c 0,75,76
 453 309 453 309 486 266 c 128,-1,77
 519 223 519 223 583 223 c 256,31,32
EndSplineSet
EndChar

StartChar: P
Encoding: 80 80 40
Width: 1086
GlyphClass: 2
Flags: W
HStem: -12 21G<145 395> 609 238<447 671.845> 1296 239<447 686.104>
VStem: 145 300<12 604 847 1296> 754 299<921.56 1230.85>
LayerCount: 2
Fore
SplineSet
145 1536 m 1,0,-1
 337 1536 l 2,1,2
 392 1536 392 1536 437.5 1535 c 128,-1,3
 483 1534 483 1534 520 1532 c 0,4,5
 592 1529 592 1529 678 1517 c 0,6,7
 765 1505 765 1505 828 1477 c 128,-1,8
 891 1449 891 1449 936 1406 c 0,9,10
 1053 1293 1053 1293 1053 1075 c 0,11,12
 1053 848 1053 848 932 736 c 1,13,14
 811 626 811 626 584 609 c 0,15,16
 544 607 544 607 509 605.5 c 128,-1,17
 474 604 474 604 445 604 c 1,18,-1
 445 12 l 1,19,-1
 145 -12 l 1,20,-1
 145 1536 l 1,0,-1
498 847 m 2,21,22
 626 847 626 847 690 901.5 c 128,-1,23
 754 956 754 956 754 1077 c 0,24,25
 754 1202 754 1202 691 1249 c 0,26,27
 627 1296 627 1296 490 1296 c 2,28,-1
 447 1296 l 1,29,-1
 447 847 l 1,30,-1
 498 847 l 2,21,22
EndSplineSet
EndChar

StartChar: Q
Encoding: 81 81 41
Width: 1150
GlyphClass: 2
Flags: W
HStem: -32 255<447.195 643.702> 1330 238<451.907 640.444>
VStem: 73 299<380.861 1095> 726 300<390.83 1173.32>
LayerCount: 2
Fore
SplineSet
638 -24 m 1,0,1
 638 -26 638 -26 599 -29 c 256,2,3
 560 -32 560 -32 548 -32 c 0,4,5
 466 -32 466 -32 399 -7.5 c 128,-1,6
 332 17 332 17 286 59 c 1,7,8
 241 98 241 98 204 160 c 0,9,10
 168 221 168 221 146.5 282.5 c 128,-1,11
 125 344 125 344 109 420 c 0,12,13
 73 591 73 591 73 820 c 0,14,15
 73 1271 73 1271 278 1464 c 0,16,17
 388 1568 388 1568 548 1568 c 0,18,19
 860 1568 860 1568 976 1194 c 0,20,21
 1026 1030 1026 1030 1026 820 c 0,22,23
 1026 283 1026 283 830 84 c 1,24,25
 836 48 836 48 851.5 23 c 128,-1,26
 867 -2 867 -2 892 -19 c 128,-1,27
 917 -36 917 -36 951.5 -46.5 c 128,-1,28
 986 -57 986 -57 1031 -63 c 1,29,-1
 1031 -293 l 1,30,31
 1024 -293 1024 -293 1011 -294 c 128,-1,32
 998 -295 998 -295 992 -295 c 0,33,34
 714 -295 714 -295 638 -24 c 1,0,1
548 223 m 256,35,36
 616 223 616 223 650.5 269 c 128,-1,37
 685 315 685 315 702 393 c 0,38,39
 707 419 707 419 711.5 450 c 128,-1,40
 716 481 716 481 719 518 c 0,41,42
 725 591 725 591 725 642 c 1,43,44
 726 668 726 668 726 704.5 c 128,-1,45
 726 741 726 741 726 789 c 2,46,-1
 726 820 l 2,47,48
 726 909 726 909 723 965 c 0,49,50
 722 993 722 993 719.5 1025.5 c 128,-1,51
 717 1058 717 1058 712 1095 c 0,52,53
 703 1170 703 1170 680.5 1221.5 c 128,-1,54
 658 1273 658 1273 622 1304 c 1,55,56
 590 1330 590 1330 548 1330 c 0,57,58
 522 1330 522 1330 500 1322.5 c 128,-1,59
 478 1315 478 1315 461 1297 c 0,60,61
 453 1288 453 1288 446 1279 c 128,-1,62
 439 1270 439 1270 432 1261 c 0,63,64
 426 1252 426 1252 420 1239.5 c 128,-1,65
 414 1227 414 1227 409.5 1212.5 c 128,-1,66
 405 1198 405 1198 400.5 1184 c 128,-1,67
 396 1170 396 1170 393 1158 c 0,68,69
 390 1147 390 1147 387.5 1131 c 128,-1,70
 385 1115 385 1115 383 1095 c 2,71,-1
 376 1032 l 1,72,-1
 373 966 l 2,73,74
 372 944 372 944 372 928.5 c 128,-1,75
 372 913 372 913 372 904 c 2,76,-1
 372 845 l 1,77,-1
 372 820 l 1,78,-1
 372 660 l 1,79,80
 373 612 373 612 378 530 c 0,81,82
 384 448 384 448 396 393 c 0,83,84
 413 314 413 314 446.5 268.5 c 128,-1,85
 480 223 480 223 548 223 c 256,35,36
EndSplineSet
EndChar

StartChar: R
Encoding: 82 82 42
Width: 1221
GlyphClass: 2
Flags: W
HStem: -12 6G<142 391.167 824.171 905.75> 673 222<441 558> 1296 240<441 711.594>
VStem: 142 299<12 673 895 1296> 770 300<955.314 1245.3>
DStem2: 862 689 558 673 0.3645 -0.931204<-32.2449 655.807>
LayerCount: 2
Fore
SplineSet
1070 1108 m 0,0,1
 1070 964 1070 964 1012.5 871.5 c 128,-1,2
 955 779 955 779 850 719 c 1,3,4
 850 717 850 717 862 689 c 0,5,6
 973 422 973 422 1038.5 264 c 128,-1,7
 1104 106 1104 106 1127 53 c 1,8,-1
 832 -27 l 1,9,-1
 558 673 l 1,10,-1
 441 673 l 1,11,-1
 441 12 l 1,12,-1
 142 -12 l 1,13,-1
 142 1524 l 1,14,-1
 506 1536 l 1,15,16
 912 1536 912 1536 1030 1301 c 0,17,18
 1070 1222 1070 1222 1070 1108 c 0,0,1
770 1105 m 0,19,20
 770 1296 770 1296 581 1296 c 2,21,-1
 441 1296 l 1,22,-1
 441 895 l 1,23,-1
 543 895 l 2,24,25
 660 895 660 895 715 944 c 128,-1,26
 770 993 770 993 770 1105 c 0,19,20
EndSplineSet
EndChar

StartChar: S
Encoding: 83 83 43
Width: 1172
GlyphClass: 2
Flags: W
HStem: -32 255<494.489 709.912> 1329 239<483.747 700.377>
VStem: 125 322<1056.7 1288.95> 752 326<266.206 504.017>
DStem2: 541 1018 381 716 0.860863 -0.508837<-124.437 456.058>
LayerCount: 2
Fore
SplineSet
779 1141 m 1,0,-1
 762 1178 l 2,1,2
 756 1191 756 1191 752 1200 c 128,-1,3
 748 1209 748 1209 744.5 1216.5 c 128,-1,4
 741 1224 741 1224 736.5 1231.5 c 128,-1,5
 732 1239 732 1239 726 1250 c 0,6,7
 714 1272 714 1272 702 1283 c 128,-1,8
 690 1294 690 1294 673 1306 c 0,9,10
 656 1319 656 1319 634 1324 c 128,-1,11
 612 1329 612 1329 586 1329 c 0,12,13
 519 1329 519 1329 483 1285 c 128,-1,14
 447 1241 447 1241 447 1169 c 0,15,16
 447 1073 447 1073 541 1018 c 2,17,-1
 789 873 l 2,18,19
 948 781 948 781 1020 659 c 0,20,21
 1072 572 1072 572 1078 463 c 1,22,23
 1078 293 1078 293 997 175 c 1,24,25
 918 58 918 58 782 4 c 0,26,27
 692 -32 692 -32 588 -32 c 0,28,29
 310 -32 310 -32 162 200 c 0,30,31
 139 237 139 237 120.5 274.5 c 128,-1,32
 102 312 102 312 88 352 c 1,33,-1
 342 471 l 1,34,35
 344 469 344 469 349 460.5 c 128,-1,36
 354 452 354 452 362 437 c 2,37,-1
 385 399 l 2,38,39
 388 395 388 395 393.5 387 c 128,-1,40
 399 379 399 379 407 366 c 0,41,42
 415 354 415 354 421 345.5 c 128,-1,43
 427 337 427 337 432.5 330 c 128,-1,44
 438 323 438 323 444 316.5 c 128,-1,45
 450 310 450 310 458 301 c 0,46,47
 488 267 488 267 521 248 c 1,48,49
 561 223 561 223 616 223 c 0,50,51
 699 223 699 223 740 318 c 0,52,53
 752 345 752 345 752 376 c 0,54,55
 752 489 752 489 650 557 c 1,56,-1
 381 716 l 1,57,58
 199 819 199 819 144 986 c 1,59,60
 125 1040 125 1040 125 1108 c 0,61,62
 125 1266 125 1266 204 1375 c 0,63,64
 284 1485 284 1485 412 1534 c 0,65,66
 501 1568 501 1568 602 1568 c 0,67,68
 685 1568 685 1568 753 1546.5 c 128,-1,69
 821 1525 821 1525 875 1484.5 c 128,-1,70
 929 1444 929 1444 968.5 1386 c 128,-1,71
 1008 1328 1008 1328 1033 1256 c 1,72,-1
 779 1141 l 1,0,-1
EndSplineSet
EndChar

StartChar: T
Encoding: 84 84 44
Width: 1070
GlyphClass: 2
Flags: W
HStem: -12 21G<381 631> 1296 240<92 381 681 968>
VStem: 381 300<12 1296>
LayerCount: 2
Fore
SplineSet
68 1296 m 1,0,-1
 92 1536 l 1,1,-1
 992 1536 l 1,2,-1
 968 1296 l 1,3,-1
 681 1296 l 1,4,-1
 681 12 l 1,5,-1
 381 -12 l 1,6,-1
 381 1296 l 1,7,-1
 68 1296 l 1,0,-1
EndSplineSet
EndChar

StartChar: U
Encoding: 85 85 45
Width: 1168
GlyphClass: 2
Flags: W
HStem: -32 255<490.809 711.473> 1516 20G<133 433 802.833 1032>
VStem: 133 300<272.563 1524> 757 275<266.121 1512>
LayerCount: 2
Fore
SplineSet
601 223 m 0,0,1
 643 223 643 223 672.5 237.5 c 128,-1,2
 702 252 702 252 718 273 c 0,3,4
 734 295 734 295 743 332 c 256,5,6
 752 369 752 369 754.5 402.5 c 128,-1,7
 757 436 757 436 757 485 c 2,8,-1
 757 1512 l 1,9,-1
 1032 1536 l 1,10,-1
 1032 541 l 2,11,12
 1032 378 1032 378 1000.5 262.5 c 128,-1,13
 969 147 969 147 894 77 c 0,14,15
 778 -32 778 -32 560 -32 c 0,16,17
 396 -32 396 -32 296 59 c 0,18,19
 195 151 195 151 158 300 c 1,20,21
 133 394 133 394 133 506 c 2,22,-1
 133 1524 l 1,23,-1
 433 1536 l 1,24,-1
 433 482 l 2,25,26
 433 433 433 433 436 398 c 128,-1,27
 439 363 439 363 449 328 c 0,28,29
 463 279 463 279 498.5 251 c 128,-1,30
 534 223 534 223 601 223 c 0,0,1
EndSplineSet
EndChar

StartChar: V
Encoding: 86 86 46
Width: 1202
GlyphClass: 2
Flags: W
HStem: 0 21G<428.249 766.818> 1516 20G<71 429.849 843 1127.18>
LayerCount: 2
Fore
SplineSet
71 1524 m 1,0,-1
 426 1536 l 1,1,-1
 630 476 l 1,2,-1
 843 1524 l 1,3,-1
 1132 1536 l 1,4,-1
 762 0 l 1,5,-1
 433 0 l 1,6,-1
 71 1524 l 1,0,-1
EndSplineSet
EndChar

StartChar: W
Encoding: 87 87 47
Width: 1748
GlyphClass: 2
Flags: W
HStem: 0 21G<421.906 704.539 1026.52 1331.27> 1516 20G<114 445.522 777 1025.48 1380 1650.73>
DStem2: 442 1536 114 1524 0.200565 -0.97968<0 933.798> 604 616 867 938 0.174264 0.984699<0 362.905> 1184 606 867 938 0.171208 -0.985235<-381.371 0> 1184 606 1327 0 0.208833 0.977951<0 938.691>
LayerCount: 2
Fore
SplineSet
701 0 m 1,0,-1
 426 0 l 1,1,-1
 114 1524 l 1,2,-1
 442 1536 l 1,3,-1
 604 616 l 1,4,-1
 777 1524 l 1,5,-1
 1022 1536 l 1,6,-1
 1184 606 l 1,7,-1
 1380 1524 l 1,8,-1
 1655 1536 l 1,9,-1
 1327 0 l 1,10,-1
 1030 0 l 1,11,-1
 867 938 l 1,12,-1
 701 0 l 1,0,-1
EndSplineSet
EndChar

StartChar: X
Encoding: 88 88 48
Width: 1184
GlyphClass: 2
Flags: W
HStem: 0 21G<64 357.023 772.977 1139> 1516 20G<79 446.922 790.777 1086>
DStem2: 64 0 348 0 0.43212 0.901816<122.722 650.266 1263.9 1703.23> 438 1536 79 1536 0.416165 -0.909289<0 436.884 1012.15 1539.83>
LayerCount: 2
Fore
SplineSet
565 481 m 1,0,-1
 348 0 l 1,1,-1
 64 0 l 1,2,-1
 445 780 l 1,3,-1
 79 1536 l 1,4,-1
 438 1536 l 1,5,-1
 616 1137 l 1,6,-1
 800 1536 l 1,7,-1
 1086 1536 l 1,8,-1
 740 838 l 1,9,-1
 1139 0 l 1,10,-1
 782 0 l 1,11,-1
 565 481 l 1,0,-1
EndSplineSet
EndChar

StartChar: Y
Encoding: 89 89 49
Width: 1143
GlyphClass: 2
Flags: W
HStem: -12 21G<427 679.5> 1516 20G<57 393.594 818.875 1085>
VStem: 427 303<12 608>
DStem2: 598 896 730 643 0.369416 0.929264<0 678.956>
LayerCount: 2
Fore
SplineSet
427 608 m 1,0,-1
 57 1536 l 1,1,-1
 387 1536 l 1,2,-1
 598 896 l 1,3,-1
 826 1536 l 1,4,-1
 1085 1536 l 1,5,-1
 730 643 l 1,6,-1
 730 12 l 1,7,-1
 427 -12 l 1,8,-1
 427 608 l 1,0,-1
EndSplineSet
EndChar

StartChar: Z
Encoding: 90 90 50
Width: 1158
GlyphClass: 2
Flags: W
HStem: 0 240<496 976> 1296 240<197 656>
DStem2: 126 190 496 240 0.432148 0.901803<204.985 1226.43>
LayerCount: 2
Fore
SplineSet
656 1296 m 1,0,-1
 173 1296 l 1,1,-1
 197 1536 l 1,2,-1
 1010 1536 l 1,3,-1
 1010 1337 l 1,4,-1
 496 240 l 1,5,-1
 1024 240 l 1,6,-1
 976 0 l 1,7,-1
 126 0 l 1,8,-1
 126 190 l 1,9,-1
 656 1296 l 1,0,-1
EndSplineSet
EndChar

StartChar: one
Encoding: 49 49 51
Width: 880
GlyphClass: 2
Flags: W
HStem: 0 251<118 315 603 790> 1516 20G<419.951 603>
VStem: 315 288<251 1132>
LayerCount: 2
Fore
SplineSet
315 1132 m 1,0,1
 236 1124 236 1124 190.5 1120 c 128,-1,2
 145 1116 145 1116 131 1116 c 2,3,-1
 105 1116 l 1,4,-1
 105 1331 l 1,5,-1
 454 1536 l 1,6,-1
 603 1536 l 1,7,-1
 603 251 l 1,8,-1
 802 251 l 1,9,-1
 790 0 l 1,10,-1
 118 0 l 1,11,-1
 118 251 l 1,12,-1
 315 251 l 1,13,-1
 315 1132 l 1,0,1
EndSplineSet
EndChar

StartChar: two
Encoding: 50 50 52
Width: 1108
GlyphClass: 2
Flags: W
HStem: 0 252<434 940> 1297 231<459.56 657.113>
VStem: 690 300<956.945 1263.13>
DStem2: 290 451 683.5 512 0.637705 0.770281<-59.1951 603.816>
LayerCount: 2
Fore
SplineSet
690 1156 m 0,0,1
 690 1219 690 1219 656.5 1258 c 128,-1,2
 623 1297 623 1297 565 1297 c 0,3,4
 466 1297 466 1297 414 1183 c 1,5,6
 388 1133 388 1133 378 1070 c 1,7,-1
 132 1148 l 1,8,9
 157 1273 157 1273 229 1362.5 c 128,-1,10
 301 1452 301 1452 410 1497 c 1,11,12
 482 1528 482 1528 575 1528 c 0,13,14
 716 1528 716 1528 812.5 1473 c 128,-1,15
 909 1418 909 1418 957 1316 c 0,16,17
 990 1245 990 1245 990 1152 c 0,18,19
 990 1002 990 1002 901 827 c 0,20,21
 874 774 874 774 840 721 c 128,-1,22
 806 668 806 668 764 613 c 256,23,24
 722 558 722 558 683.5 512 c 128,-1,25
 645 466 645 466 609 428 c 0,26,27
 574 390 574 390 530 346.5 c 128,-1,28
 486 303 486 303 434 252 c 1,29,-1
 964 252 l 1,30,31
 964 205 964 205 952 126 c 0,32,33
 940 48 940 48 940 0 c 1,34,-1
 101 0 l 1,35,-1
 101 223 l 1,36,37
 159 299 159 299 290 451 c 0,38,39
 356 527 356 527 403 584.5 c 128,-1,40
 450 642 450 642 481 682 c 0,41,42
 606 843 606 843 662 998 c 0,43,44
 690 1075 690 1075 690 1156 c 0,0,1
EndSplineSet
EndChar

StartChar: three
Encoding: 51 51 53
Width: 1090
GlyphClass: 2
Flags: W
HStem: -25 261<377.492 637.366> 669 230<369 587.938> 1284 250<417.328 632.254>
VStem: 672 290<976.745 1244.46> 694 289<293.167 580.347>
LayerCount: 2
Fore
SplineSet
672 1116 m 0,0,1
 672 1153 672 1153 662.5 1184 c 128,-1,2
 653 1215 653 1215 634.5 1237 c 128,-1,3
 616 1259 616 1259 589 1271.5 c 128,-1,4
 562 1284 562 1284 528 1284 c 0,5,6
 448 1284 448 1284 383 1204 c 0,7,8
 370 1188 370 1188 358.5 1168.5 c 128,-1,9
 347 1149 347 1149 336 1124 c 1,10,-1
 130 1241 l 1,11,12
 157 1294 157 1294 184 1334 c 128,-1,13
 211 1374 211 1374 249 1413 c 1,14,15
 303 1471 303 1471 378.5 1501.5 c 128,-1,16
 454 1532 454 1532 561 1534 c 1,17,18
 692 1534 692 1534 786 1476 c 128,-1,19
 880 1418 880 1418 928 1319 c 0,20,21
 962 1251 962 1251 962 1155 c 0,22,23
 962 911 962 911 726 801 c 1,24,25
 788 777 788 777 836 744 c 128,-1,26
 884 711 884 711 916.5 666 c 128,-1,27
 949 621 949 621 966 562 c 128,-1,28
 983 503 983 503 983 428 c 0,29,30
 983 267 983 267 911 158.5 c 128,-1,31
 839 50 839 50 713 4 c 0,32,33
 635 -25 635 -25 543 -25 c 0,34,35
 408 -25 408 -25 307 25.5 c 128,-1,36
 206 76 206 76 142 164 c 1,37,38
 96 224 96 224 75 313 c 1,39,-1
 293 408 l 1,40,41
 310 368 310 368 327.5 339.5 c 128,-1,42
 345 311 345 311 371 286 c 1,43,44
 426 236 426 236 524 236 c 0,45,46
 600 236 600 236 647 290 c 0,47,48
 694 345 694 345 694 424 c 0,49,50
 694 567 694 567 604 620 c 0,51,52
 559 647 559 647 503 658 c 128,-1,53
 447 669 447 669 369 669 c 1,54,-1
 369 899 l 1,55,56
 513 899 513 899 593 946 c 1,57,58
 672 994 672 994 672 1116 c 0,0,1
EndSplineSet
EndChar

StartChar: four
Encoding: 52 52 54
Width: 1109
GlyphClass: 2
Flags: W
HStem: -12 21G<558 798> 384 230<273 558 846 1014> 1516 20G<533.937 846>
VStem: 558 288<12 384 614 1153>
DStem2: 35 614 273 614 0.48403 0.875051<115.199 724.801>
LayerCount: 2
Fore
SplineSet
558 384 m 1,0,-1
 35 384 l 1,1,-1
 35 614 l 1,2,-1
 545 1536 l 1,3,-1
 846 1536 l 1,4,-1
 846 614 l 1,5,-1
 1038 614 l 1,6,-1
 1014 384 l 1,7,-1
 846 384 l 1,8,-1
 846 12 l 1,9,-1
 558 -12 l 1,10,-1
 558 384 l 1,0,-1
558 614 m 1,11,-1
 558 1153 l 1,12,-1
 273 614 l 1,13,-1
 558 614 l 1,11,-1
EndSplineSet
EndChar

StartChar: five
Encoding: 53 53 55
Width: 1109
GlyphClass: 2
Flags: W
HStem: -25 264<410.788 643.384> 749 230<412.279 630.918> 1296 240<442 923>
VStem: 710 298<306.931 665.972>
DStem2: 126 731 409 938 0.0817134 0.996656<229.433 588.932>
LayerCount: 2
Fore
SplineSet
409 938 m 1,0,1
 514 979 514 979 608 979 c 2,2,-1
 610 979 l 2,3,4
 779 979 779 979 895 836 c 0,5,6
 1008 696 1008 696 1008 498 c 0,7,8
 1008 322 1008 322 933 198 c 1,9,10
 859 72 859 72 732 14 c 0,11,12
 648 -25 648 -25 547 -25 c 0,13,14
 417 -25 417 -25 320.5 33.5 c 128,-1,15
 224 92 224 92 165 188 c 1,16,17
 122 255 122 255 103 348 c 1,18,-1
 334 434 l 1,19,20
 364 286 364 286 468 248 c 0,21,22
 490 239 490 239 520 239 c 0,23,24
 710 239 710 239 710 493 c 0,25,26
 710 571 710 571 683.5 632.5 c 128,-1,27
 657 694 657 694 609 726 c 0,28,29
 574 749 574 749 528 749 c 0,30,31
 430 749 430 749 340 642 c 1,32,-1
 126 731 l 1,33,-1
 192 1536 l 1,34,-1
 947 1536 l 1,35,-1
 923 1296 l 1,36,-1
 442 1296 l 1,37,-1
 409 938 l 1,0,1
EndSplineSet
EndChar

StartChar: six
Encoding: 54 54 56
Width: 1070
GlyphClass: 2
Flags: W
HStem: -27 257<449.025 632.531> 692 242<450.036 636.246> 1306 240<472.547 664.582>
VStem: 102 293<342.725 648.904 856 1116.35> 686 289<285.576 639.452>
LayerCount: 2
Fore
SplineSet
395 856 m 1,0,1
 440 889 440 889 502.5 911.5 c 128,-1,2
 565 934 565 934 631 934 c 0,3,4
 784 934 784 934 882 806 c 0,5,6
 975 684 975 684 975 512 c 0,7,8
 975 344 975 344 905 214 c 0,9,10
 836 85 836 85 721 18 c 1,11,12
 641 -27 641 -27 547 -27 c 0,13,14
 450 -27 450 -27 377.5 6.5 c 128,-1,15
 305 40 305 40 257 103 c 256,16,17
 209 166 209 166 180.5 237 c 128,-1,18
 152 308 152 308 134 399 c 0,19,20
 102 557 102 557 102 774 c 0,21,22
 102 973 102 973 155 1144 c 0,23,24
 208 1312 208 1312 307 1418 c 0,25,26
 426 1546 426 1546 590 1546 c 0,27,28
 645 1546 645 1546 691 1530.5 c 128,-1,29
 737 1515 737 1515 774.5 1487 c 128,-1,30
 812 1459 812 1459 841 1420 c 128,-1,31
 870 1381 870 1381 891 1333 c 1,32,33
 922 1267 922 1267 934 1174 c 1,34,-1
 710 1122 l 1,35,-1
 703 1155 l 2,36,37
 702 1159 702 1159 700.5 1166.5 c 128,-1,38
 699 1174 699 1174 695 1186 c 1,39,40
 689 1213 689 1213 685 1219 c 256,41,42
 681 1225 681 1225 673 1245 c 0,43,44
 665 1264 665 1264 656 1271 c 128,-1,45
 647 1278 647 1278 634 1288 c 1,46,47
 622 1299 622 1299 606 1302.5 c 128,-1,48
 590 1306 590 1306 571 1306 c 1,49,50
 516 1303 516 1303 482 1271.5 c 128,-1,51
 448 1240 448 1240 430 1181 c 0,52,53
 417 1141 417 1141 410.5 1105 c 128,-1,54
 404 1069 404 1069 400 1018 c 0,55,56
 398 992 398 992 397 971.5 c 128,-1,57
 396 951 396 951 395 934 c 1,58,-1
 395 856 l 1,0,1
686 477 m 0,59,60
 686 570 686 570 648 631 c 0,61,62
 611 692 611 692 530 692 c 0,63,64
 467 692 467 692 397 649 c 1,65,66
 396 646 396 646 396 633 c 1,67,68
 395 630 395 630 395 620 c 2,69,-1
 395 536 l 2,70,71
 395 310 395 310 472 250 c 0,72,73
 498 230 498 230 534 230 c 0,74,75
 577 230 577 230 608 251.5 c 128,-1,76
 639 273 639 273 655 310 c 0,77,78
 686 382 686 382 686 477 c 0,59,60
EndSplineSet
EndChar

StartChar: seven
Encoding: 55 55 57
Width: 1009
GlyphClass: 2
Flags: W
HStem: 0 21G<226 580> 1288 248<127 634>
VStem: 226 354<0 281.056>
LayerCount: 2
Fore
SplineSet
226 0 m 1,0,1
 248 271 248 271 370 622 c 0,2,3
 392 686 392 686 416.5 751.5 c 128,-1,4
 441 817 441 817 472 895 c 2,5,-1
 522 1018 l 1,6,-1
 581 1160 l 1,7,-1
 634 1288 l 1,8,-1
 103 1288 l 1,9,-1
 127 1536 l 1,10,-1
 955 1536 l 1,11,-1
 955 1323 l 1,12,13
 685 788 685 788 606 304 c 0,14,15
 593 222 593 222 586.5 146 c 128,-1,16
 580 70 580 70 580 0 c 1,17,-1
 226 0 l 1,0,1
EndSplineSet
EndChar

StartChar: eight
Encoding: 56 56 58
Width: 1148
GlyphClass: 2
Flags: W
HStem: -27 225<442.763 709.278> 1298 248<467.209 708.736>
VStem: 100 288<251.527 552.297> 145 280<1032.51 1258.68> 750 246<1045.87 1256.88> 763 288<251.7 515.775>
LayerCount: 2
Fore
SplineSet
356 778 m 1,0,1
 306 807 306 807 267 841.5 c 128,-1,2
 228 876 228 876 201 918 c 128,-1,3
 174 960 174 960 159.5 1010.5 c 128,-1,4
 145 1061 145 1061 145 1122 c 0,5,6
 145 1269 145 1269 219 1370 c 1,7,8
 293 1473 293 1473 414 1516 c 1,9,10
 495 1546 495 1546 586 1546 c 0,11,12
 652 1546 652 1546 710 1531 c 128,-1,13
 768 1516 768 1516 816 1488.5 c 128,-1,14
 864 1461 864 1461 901 1421.5 c 128,-1,15
 938 1382 938 1382 962 1334 c 0,16,17
 996 1267 996 1267 996 1178 c 0,18,19
 996 1019 996 1019 861 896 c 0,20,21
 821 859 821 859 776 832 c 1,22,23
 823 803 823 803 862.5 774 c 128,-1,24
 902 745 902 745 933.5 713 c 128,-1,25
 965 681 965 681 989 645.5 c 128,-1,26
 1013 610 1013 610 1029 568 c 1,27,28
 1051 514 1051 514 1051 440 c 0,29,30
 1051 273 1051 273 967 162 c 0,31,32
 884 52 884 52 746 4 c 0,33,34
 656 -27 656 -27 560 -27 c 0,35,36
 415 -27 415 -27 306 33 c 1,37,38
 196 95 196 95 141 196 c 0,39,40
 100 273 100 273 100 371 c 0,41,42
 100 634 100 634 356 778 c 1,0,1
571 198 m 0,43,44
 659 198 659 198 711 243 c 128,-1,45
 763 288 763 288 763 373 c 0,46,47
 763 496 763 496 648 593 c 0,48,49
 597 637 597 637 533 667 c 1,50,51
 454 606 454 606 410 510 c 0,52,53
 388 463 388 463 388 398 c 0,54,55
 388 302 388 302 434 250 c 128,-1,56
 480 198 480 198 571 198 c 0,43,44
582 1298 m 0,57,58
 516 1298 516 1298 470 1261 c 0,59,60
 425 1225 425 1225 425 1165 c 0,61,62
 425 1079 425 1079 478 1023 c 1,63,64
 505 996 505 996 528.5 978 c 128,-1,65
 552 960 552 960 585 939 c 1,66,67
 671 991 671 991 724 1070 c 1,68,69
 750 1111 750 1111 750 1155 c 0,70,71
 750 1188 750 1188 737.5 1214.5 c 128,-1,72
 725 1241 725 1241 702.5 1259.5 c 128,-1,73
 680 1278 680 1278 649 1288 c 128,-1,74
 618 1298 618 1298 582 1298 c 0,57,58
EndSplineSet
EndChar

StartChar: nine
Encoding: 57 57 59
Width: 1070
GlyphClass: 2
Flags: W
HStem: -27 240<405.799 593.866> 585 242<433.739 619.638> 1289 257<437.469 621.98>
VStem: 95 289<879.199 1233.15> 136 224<258.75 348.328> 675 293<405.978 663 847.324 1177.55>
LayerCount: 2
Fore
SplineSet
675 663 m 1,0,1
 630 630 630 630 567.5 607.5 c 128,-1,2
 505 585 505 585 439 585 c 0,3,4
 285 585 285 585 188 714 c 1,5,6
 95 835 95 835 95 1007 c 0,7,8
 95 1175 95 1175 164 1304 c 0,9,10
 235 1435 235 1435 349 1500 c 0,11,12
 429 1546 429 1546 523 1546 c 0,13,14
 620 1546 620 1546 692.5 1512 c 128,-1,15
 765 1478 765 1478 813 1415 c 0,16,17
 860 1353 860 1353 889 1282 c 128,-1,18
 918 1211 918 1211 936 1120 c 0,19,20
 968 962 968 962 968 745 c 0,21,22
 968 543 968 543 914 374 c 1,23,24
 862 207 862 207 763 100 c 0,25,26
 645 -27 645 -27 480 -27 c 0,27,28
 273 -27 273 -27 179 186 c 1,29,30
 148 252 148 252 136 345 c 1,31,-1
 360 397 l 1,32,-1
 367 363 l 1,33,-1
 374 332 l 1,34,35
 378 320 378 320 380.5 312 c 128,-1,36
 383 304 383 304 385 300 c 0,37,38
 389 292 389 292 397 273 c 0,39,40
 405 255 405 255 414 248 c 128,-1,41
 423 241 423 241 435 230 c 1,42,43
 448 220 448 220 464 216.5 c 128,-1,44
 480 213 480 213 499 213 c 0,45,46
 535 213 535 213 563 230.5 c 128,-1,47
 591 248 591 248 607 273 c 0,48,49
 624 300 624 300 636 336 c 0,50,51
 649 375 649 375 654.5 406 c 128,-1,52
 660 437 660 437 665 477 c 0,53,54
 667 500 667 500 670 546 c 128,-1,55
 673 592 673 592 675 663 c 1,0,1
674 886 m 1,56,57
 674 890 674 890 674.5 898.5 c 128,-1,58
 675 907 675 907 675 911 c 2,59,-1
 675 983 l 2,60,61
 675 1211 675 1211 598 1270 c 0,62,63
 573 1289 573 1289 536 1289 c 0,64,65
 493 1289 493 1289 462 1267.5 c 128,-1,66
 431 1246 431 1246 415 1209 c 0,67,68
 384 1137 384 1137 384 1042 c 0,69,70
 384 949 384 949 422 887 c 0,71,72
 459 827 459 827 540 827 c 0,73,74
 606 827 606 827 673 870 c 1,75,76
 673 883 673 883 674 886 c 1,56,57
EndSplineSet
EndChar

StartChar: zero
Encoding: 48 48 60
Width: 1160
GlyphClass: 2
Flags: W
HStem: -27 255<474.164 684.793> 1308 238<469.336 679.982>
VStem: 108 289<366.289 1166.67> 765 288<370.803 1168.09>
LayerCount: 2
Fore
SplineSet
579 -27 m 0,0,1
 498 -27 498 -27 431 -3 c 128,-1,2
 364 21 364 21 318 60 c 0,3,4
 271 101 271 101 236 158 c 0,5,6
 200 217 200 217 178.5 278 c 128,-1,7
 157 339 157 339 142 414 c 0,8,9
 126 493 126 493 117.5 585.5 c 128,-1,10
 109 678 109 678 108 786 c 1,11,12
 108 1380 108 1380 406 1513 c 0,13,14
 479 1546 479 1546 579 1546 c 0,15,16
 922 1546 922 1546 1018 1130 c 0,17,18
 1053 978 1053 978 1053 786 c 1,19,20
 1052 715 1052 715 1048.5 652.5 c 128,-1,21
 1045 590 1045 590 1037.5 532 c 128,-1,22
 1030 474 1030 474 1019 419.5 c 128,-1,23
 1008 365 1008 365 992 311 c 0,24,25
 960 203 960 203 900 126.5 c 128,-1,26
 840 50 840 50 753 8 c 1,27,28
 677 -27 677 -27 579 -27 c 0,0,1
579 228 m 256,29,30
 661 228 661 228 697 290 c 0,31,32
 715 322 715 322 724.5 352.5 c 128,-1,33
 734 383 734 383 742 428 c 0,34,35
 753 491 753 491 759 580 c 128,-1,36
 765 669 765 669 765 786 c 0,37,38
 765 895 765 895 762 968 c 128,-1,39
 759 1041 759 1041 754 1081 c 0,40,41
 736 1211 736 1211 681 1269 c 0,42,43
 643 1308 643 1308 579 1308 c 0,44,45
 536 1308 536 1308 503.5 1289.5 c 128,-1,46
 471 1271 471 1271 452 1242 c 0,47,48
 434 1213 434 1213 422 1170 c 1,49,50
 411 1126 411 1126 406.5 1087 c 128,-1,51
 402 1048 402 1048 400 996 c 0,52,53
 397 900 397 900 397 786 c 0,54,55
 397 668 397 668 402.5 578.5 c 128,-1,56
 408 489 408 489 419 428 c 0,57,58
 423 405 423 405 427 386.5 c 128,-1,59
 431 368 431 368 436 352 c 128,-1,60
 441 336 441 336 447 321 c 128,-1,61
 453 306 453 306 462 290 c 0,62,63
 497 228 497 228 579 228 c 256,29,30
EndSplineSet
EndChar

StartChar: dollar
Encoding: 36 36 61
Width: 1095
GlyphClass: 2
Flags: W
VStem: 155 292<1012.56 1231.65> 528 144<-96 35.6904 302 571 984 1245 1493 1632> 752 306<323.432 540.079>
LayerCount: 2
Fore
SplineSet
528 29 m 1,0,1
 422 41 422 41 336 97 c 1,2,3
 252 154 252 154 201 231.5 c 128,-1,4
 150 309 150 309 118 410 c 1,5,-1
 342 529 l 1,6,7
 346 524 346 524 352 513.5 c 128,-1,8
 358 503 358 503 367 487 c 2,9,-1
 394 442 l 1,10,-1
 421 402 l 2,11,12
 430 389 430 389 438 379.5 c 128,-1,13
 446 370 446 370 453 362 c 0,14,15
 467 347 467 347 487 330 c 128,-1,16
 507 313 507 313 528 302 c 1,17,-1
 528 657 l 1,18,-1
 381 744 l 1,19,20
 303 792 303 792 250.5 844.5 c 128,-1,21
 198 897 198 897 172 972 c 0,22,23
 155 1023 155 1023 155 1076 c 0,24,25
 155 1142 155 1142 171 1200 c 128,-1,26
 187 1258 187 1258 216.5 1305.5 c 128,-1,27
 246 1353 246 1353 287 1390.5 c 128,-1,28
 328 1428 328 1428 378 1454 c 0,29,30
 445 1489 445 1489 528 1501 c 1,31,-1
 528 1632 l 1,32,-1
 672 1632 l 1,33,-1
 672 1501 l 1,34,35
 802 1483 802 1483 886.5 1403 c 128,-1,36
 971 1323 971 1323 1013 1194 c 1,37,-1
 779 1079 l 1,38,39
 777 1083 777 1083 773.5 1090.5 c 128,-1,40
 770 1098 770 1098 765 1109 c 0,41,42
 760 1121 760 1121 757 1128.5 c 128,-1,43
 754 1136 754 1136 751 1142.5 c 128,-1,44
 748 1149 748 1149 744.5 1155.5 c 128,-1,45
 741 1162 741 1162 735 1171 c 1,46,47
 721 1197 721 1197 707 1213.5 c 128,-1,48
 693 1230 693 1230 672 1245 c 1,49,-1
 672 899 l 1,50,-1
 789 831 l 2,51,52
 936 745 936 745 1004 643 c 1,53,54
 1052 569 1052 569 1058 481 c 1,55,56
 1058 410 1058 410 1041.5 349.5 c 128,-1,57
 1025 289 1025 289 994.5 239 c 128,-1,58
 964 189 964 189 921 149.5 c 128,-1,59
 878 110 878 110 826 82 c 0,60,61
 758 46 758 46 672 32 c 1,62,-1
 672 -96 l 1,63,-1
 528 -96 l 1,64,-1
 528 29 l 1,0,1
528 1255 m 1,65,66
 489 1239 489 1239 468 1200 c 128,-1,67
 447 1161 447 1161 447 1107 c 0,68,69
 447 1036 447 1036 528 984 c 1,70,-1
 528 1255 l 1,65,66
672 296 m 1,71,72
 706 314 706 314 729 351.5 c 128,-1,73
 752 389 752 389 752 434 c 0,74,75
 752 512 752 512 672 571 c 1,76,-1
 672 296 l 1,71,72
EndSplineSet
EndChar

StartChar: ampersand
Encoding: 38 38 62
Width: 1356
GlyphClass: 2
Flags: W
HStem: -28 264<420.08 691.115 1154.38 1281> 1346 200<531.386 707.501>
VStem: 93 275<285.944 558.42> 247 261<1080.7 1321.96> 737 245<1095.29 1316.64>
LayerCount: 2
Fore
SplineSet
894 153 m 1,0,1
 848 111 848 111 800 77.5 c 128,-1,2
 752 44 752 44 699.5 20.5 c 128,-1,3
 647 -3 647 -3 588.5 -15.5 c 128,-1,4
 530 -28 530 -28 463 -28 c 0,5,6
 338 -28 338 -28 250 39 c 0,7,8
 162 107 162 107 122 213 c 0,9,10
 93 289 93 289 93 375 c 0,11,12
 93 513 93 513 188 638 c 0,13,14
 257 728 257 728 386 815 c 1,15,16
 308 925 308 925 268 1054 c 0,17,18
 247 1121 247 1121 247 1196 c 0,19,20
 247 1258 247 1258 263.5 1310 c 128,-1,21
 280 1362 280 1362 310 1403 c 128,-1,22
 340 1444 340 1444 382.5 1474 c 128,-1,23
 425 1504 425 1504 476 1522 c 0,24,25
 545 1546 545 1546 623 1546 c 0,26,27
 744 1546 744 1546 829 1496.5 c 128,-1,28
 914 1447 914 1447 954 1357 c 1,29,30
 982 1298 982 1298 982 1214 c 0,31,32
 982 1099 982 1099 894 984 c 0,33,34
 826 895 826 895 717 819 c 1,35,-1
 904 531 l 1,36,37
 939 610 939 610 963.5 683 c 128,-1,38
 988 756 988 756 1002 825 c 1,39,-1
 1229 754 l 1,40,41
 1187 561 1187 561 1057 353 c 1,42,43
 1104 306 1104 306 1156 279.5 c 128,-1,44
 1208 253 1208 253 1281 244 c 1,45,-1
 1281 -14 l 1,46,47
 1224 -14 1224 -14 1178 -8.5 c 128,-1,48
 1132 -3 1132 -3 1094 8.5 c 128,-1,49
 1056 20 1056 20 1024.5 38 c 128,-1,50
 993 56 993 56 966 82 c 0,51,52
 955 93 955 93 937 110.5 c 128,-1,53
 919 128 919 128 894 153 c 1,0,1
368 411 m 0,54,55
 368 329 368 329 416 282.5 c 128,-1,56
 464 236 464 236 549 236 c 0,57,58
 655 236 655 236 753 309 c 1,59,60
 748 316 748 316 693.5 386.5 c 128,-1,61
 639 457 639 457 536 594 c 2,62,-1
 497 646 l 1,63,64
 440 609 440 609 404 549 c 128,-1,65
 368 489 368 489 368 411 c 0,54,55
619 1346 m 0,66,67
 575 1346 575 1346 541 1312 c 0,68,69
 508 1279 508 1279 508 1235 c 0,70,71
 508 1201 508 1201 517 1167 c 0,72,73
 522 1150 522 1150 526 1137.5 c 128,-1,74
 530 1125 530 1125 534 1117 c 256,75,76
 538 1109 538 1109 545 1095.5 c 128,-1,77
 552 1082 552 1082 562 1062 c 2,78,-1
 609 971 l 2,79,80
 609 972 609 972 618 984 c 0,81,82
 700 1089 700 1089 728 1172 c 0,83,84
 737 1200 737 1200 737 1227 c 0,85,86
 737 1279 737 1279 704 1312.5 c 128,-1,87
 671 1346 671 1346 619 1346 c 0,66,67
EndSplineSet
EndChar

StartChar: a
Encoding: 97 97 63
Width: 1044
GlyphClass: 2
Flags: W
HStem: -27 206<338 506.574> -12 21G<642.461 880.333> 568 172<458.201 608> 956 211<446.923 589.503>
VStem: 101 282<211.174 493.812> 608 288<247 568 736.781 943.709>
LayerCount: 2
Fore
SplineSet
896 217 m 2,0,1
 896 129 896 129 927 12 c 1,2,-1
 647 -12 l 1,3,-1
 615 129 l 1,4,5
 559 28 559 28 437 -14 c 0,6,7
 402 -27 402 -27 362 -27 c 0,8,9
 314 -27 314 -27 275.5 -11 c 128,-1,10
 237 5 237 5 207 33 c 128,-1,11
 177 61 177 61 155 100 c 128,-1,12
 133 139 133 139 120 186 c 0,13,14
 101 252 101 252 101 327 c 0,15,16
 101 412 101 412 128 480 c 128,-1,17
 155 548 155 548 200 594 c 1,18,19
 272 664 272 664 378 698.5 c 128,-1,20
 484 733 484 733 608 740 c 1,21,22
 608 852 608 852 599 887 c 0,23,24
 582 956 582 956 525 956 c 0,25,26
 437 956 437 956 421 826 c 1,27,-1
 141 875 l 1,28,29
 159 1019 159 1019 259.5 1093 c 128,-1,30
 360 1167 360 1167 525 1167 c 0,31,32
 702 1167 702 1167 799 1076 c 128,-1,33
 896 985 896 985 896 813 c 2,34,-1
 896 217 l 2,0,1
608 568 m 1,35,36
 383 568 383 568 383 331 c 0,37,38
 383 262 383 262 410 220.5 c 128,-1,39
 437 179 437 179 497 179 c 0,40,41
 520 179 520 179 543 192 c 256,42,43
 566 205 566 205 576 215 c 0,44,45
 581 220 581 220 589 228 c 128,-1,46
 597 236 597 236 608 247 c 1,47,-1
 608 568 l 1,35,36
EndSplineSet
EndChar

StartChar: b
Encoding: 98 98 64
Width: 1083
GlyphClass: 2
Flags: W
HStem: -27 206<514.759 758.5> -12 21G<178.333 368.974> 922 245<576.025 790.5> 1516 20G<270 430>
VStem: 142 288<240.015 869.271 1005 1500> 720 288<240.697 893.446>
LayerCount: 2
Fore
SplineSet
677 -27 m 0,0,1
 577 -27 577 -27 514.5 18 c 128,-1,2
 452 63 452 63 430 144 c 1,3,-1
 360 -12 l 1,4,-1
 142 12 l 1,5,-1
 142 1500 l 1,6,-1
 430 1536 l 1,7,-1
 430 1005 l 1,8,9
 535 1119 535 1119 652 1155 c 0,10,11
 691 1167 691 1167 728 1167 c 0,12,13
 853 1167 853 1167 925 1036 c 0,14,15
 1008 884 1008 884 1008 576 c 0,16,17
 1008 270 1008 270 922 118 c 0,18,19
 840 -27 840 -27 677 -27 c 0,0,1
430 480 m 2,20,21
 430 314 430 314 474 240 c 0,22,23
 511 179 511 179 570 179 c 0,24,25
 627 179 627 179 657.5 213.5 c 128,-1,26
 688 248 688 248 702 302 c 128,-1,27
 716 356 716 356 718 421 c 128,-1,28
 720 486 720 486 720 546 c 2,29,-1
 720 576 l 1,30,-1
 720 615 l 1,31,-1
 720 657 l 2,32,33
 720 662 720 662 720 671.5 c 128,-1,34
 720 681 720 681 719 695 c 0,35,36
 719 709 719 709 719 719.5 c 128,-1,37
 719 730 719 730 718 736 c 0,38,39
 717 749 717 749 715 773 c 128,-1,40
 713 797 713 797 709 810 c 1,41,42
 704 832 704 832 696 856.5 c 128,-1,43
 688 881 688 881 676 895 c 1,44,45
 656 922 656 922 620 922 c 0,46,47
 573 922 573 922 499 882 c 0,48,49
 464 864 464 864 430 843 c 1,50,-1
 430 480 l 2,20,21
EndSplineSet
EndChar

StartChar: c
Encoding: 99 99 65
Width: 975
GlyphClass: 2
Flags: W
HStem: -27 243<457.454 594.765> 939 228<436.766 578.21>
VStem: 99 289<281.172 854.669> 612 273<754 911.676>
LayerCount: 2
Fore
SplineSet
878 405 m 1,0,1
 873 366 873 366 867.5 332.5 c 128,-1,2
 862 299 862 299 854 268 c 128,-1,3
 846 237 846 237 836 208.5 c 128,-1,4
 826 180 826 180 812 151 c 0,5,6
 774 67 774 67 702.5 21.5 c 128,-1,7
 631 -24 631 -24 511 -27 c 1,8,9
 250 -27 250 -27 145 277 c 1,10,11
 99 406 99 406 99 566 c 0,12,13
 99 752 99 752 158 896 c 0,14,15
 218 1041 218 1041 329 1114 c 0,16,17
 409 1167 409 1167 517 1167 c 0,18,19
 643 1167 643 1167 728 1099 c 0,20,21
 813 1032 813 1032 854 921 c 0,22,23
 882 847 882 847 885 754 c 1,24,-1
 612 742 l 1,25,26
 600 844 600 844 588 875 c 0,27,28
 564 937 564 937 514 939 c 0,29,30
 491 939 491 939 472.5 930 c 128,-1,31
 454 921 454 921 441 901 c 0,32,33
 428 882 428 882 418.5 862.5 c 128,-1,34
 409 843 409 843 403 811 c 0,35,36
 400 795 400 795 398 782 c 128,-1,37
 396 769 396 769 394.5 756 c 128,-1,38
 393 743 393 743 391.5 728.5 c 128,-1,39
 390 714 390 714 390 696 c 0,40,41
 389 677 389 677 389 663.5 c 128,-1,42
 389 650 389 650 388 640 c 1,43,-1
 388 587 l 1,44,-1
 388 576 l 2,45,46
 388 450 388 450 403 364 c 128,-1,47
 418 278 418 278 466 236 c 0,48,49
 489 216 489 216 523 216 c 0,50,51
 591 216 591 216 623 324 c 1,52,53
 636 372 636 372 638 432 c 1,54,-1
 878 405 l 1,0,1
EndSplineSet
EndChar

StartChar: d
Encoding: 100 100 66
Width: 1069
GlyphClass: 2
Flags: W
HStem: -27 206<357 555.523> -12 21G<701.026 891.667> 956 211<294 507.227> 1516 20G<768 928>
VStem: 62 288<242.125 898.64> 640 288<239.177 910.916 1000 1500>
LayerCount: 2
Fore
SplineSet
640 144 m 1,0,1
 618 63 618 63 555.5 18 c 128,-1,2
 493 -27 493 -27 393 -27 c 0,3,4
 321 -27 321 -27 266 -0.5 c 128,-1,5
 211 26 211 26 176 74 c 0,6,7
 141 123 141 123 119.5 178.5 c 128,-1,8
 98 234 98 234 84 306 c 0,9,10
 62 415 62 415 62 576 c 0,11,12
 62 731 62 731 77.5 842 c 128,-1,13
 93 953 93 953 136 1031 c 0,14,15
 209 1167 209 1167 379 1167 c 0,16,17
 464 1167 464 1167 559 1083 c 0,18,19
 582 1063 582 1063 602.5 1042.5 c 128,-1,20
 623 1022 623 1022 640 1000 c 1,21,-1
 640 1500 l 1,22,-1
 928 1536 l 1,23,-1
 928 12 l 1,24,-1
 710 -12 l 1,25,-1
 640 144 l 1,0,1
500 956 m 0,26,27
 443 956 443 956 412.5 923 c 128,-1,28
 382 890 382 890 368 838.5 c 128,-1,29
 354 787 354 787 352 724 c 128,-1,30
 350 661 350 661 350 601 c 2,31,-1
 350 576 l 2,32,33
 350 539 350 539 350 511.5 c 128,-1,34
 350 484 350 484 351 465 c 0,35,36
 352 430 352 430 357 371 c 1,37,38
 363 313 363 313 378 275 c 128,-1,39
 393 237 393 237 417 211 c 0,40,41
 447 179 447 179 500 179 c 0,42,43
 556 179 556 179 584.5 221 c 128,-1,44
 613 263 613 263 628 332 c 0,45,46
 640 390 640 390 640 480 c 2,47,-1
 640 864 l 1,48,49
 600 914 600 914 551 942 c 0,50,51
 526 956 526 956 500 956 c 0,26,27
EndSplineSet
EndChar

StartChar: e
Encoding: 101 101 67
Width: 1038
GlyphClass: 2
Flags: W
HStem: -27 212<458.984 606.791> 536 166<391 666> 969 198<455.303 614.119>
VStem: 104 287<271.453 536 702 871.75> 666 283<702 878.786>
LayerCount: 2
Fore
SplineSet
949 570 m 1,0,1
 941 541 941 541 941 536 c 1,2,-1
 391 536 l 1,3,4
 391 315 391 315 465 220 c 0,5,6
 492 185 492 185 531 185 c 0,7,8
 588 185 588 185 642 273 c 0,9,10
 646 278 646 278 691 373 c 1,11,-1
 909 290 l 1,12,13
 817 -27 817 -27 526 -27 c 0,14,15
 441 -27 441 -27 373 0 c 128,-1,16
 305 27 305 27 257 78 c 256,17,18
 209 129 209 129 179 191 c 128,-1,19
 149 253 149 253 130 329 c 0,20,21
 104 436 104 436 104 570 c 0,22,23
 104 771 104 771 164.5 914.5 c 128,-1,24
 225 1058 225 1058 347 1124 c 0,25,26
 426 1167 426 1167 536 1167 c 0,27,28
 736 1167 736 1167 845 1001 c 0,29,30
 949 843 949 843 949 570 c 1,0,1
666 702 m 1,31,32
 666 889 666 889 594 948 c 0,33,34
 568 969 568 969 531 969 c 0,35,36
 476 969 476 969 434 892 c 0,37,38
 391 813 391 813 391 702 c 1,39,-1
 666 702 l 1,31,32
EndSplineSet
EndChar

StartChar: f
Encoding: 102 102 68
Width: 754
GlyphClass: 2
Flags: W
HStem: -12 21G<199 439> 936 216<69 199 487 678> 1344 202<515.371 677.861> 1344 172<515.828 680>
VStem: 199 288<12 936 1152 1299.65>
LayerCount: 2
Fore
SplineSet
617 1344 m 2,0,1
 542 1344 542 1344 514.5 1301 c 128,-1,2
 487 1258 487 1258 487 1173 c 2,3,-1
 487 1152 l 1,4,-1
 690 1152 l 1,5,-1
 678 936 l 1,6,-1
 487 936 l 1,7,-1
 487 12 l 1,8,-1
 199 -12 l 1,9,-1
 199 936 l 1,10,-1
 57 936 l 1,11,-1
 69 1152 l 1,12,-1
 199 1152 l 1,13,-1
 199 1174 l 2,14,15
 199 1356 199 1356 238 1430 c 0,16,17
 300 1546 300 1546 485 1546 c 0,18,19
 612 1546 612 1546 680 1516 c 1,20,-1
 680 1344 l 1,21,-1
 617 1344 l 2,0,1
EndSplineSet
EndChar

StartChar: g
Encoding: 103 103 69
Width: 1262
GlyphClass: 2
Flags: W
HStem: -358 213.5<393.056 786.016> 457 171<485.101 672.503> 993 174<486.284 672.467> 1008 207<986.918 1151.68>
VStem: 96 262<-148.5 -5.19873> 126 296<247 405.5> 159 288<665.837 947.968> 710 305<663.381 958.753> 825 280<-104.505 51.3837>
LayerCount: 2
Fore
SplineSet
497 457 m 0,0,1
 454 457 454 457 438 442 c 128,-1,2
 422 427 422 427 422 384 c 0,3,4
 422 355 422 355 443 335.5 c 128,-1,5
 464 316 464 316 494 312 c 1,6,-1
 766 291 l 2,7,8
 884 282 884 282 965 235.5 c 128,-1,9
 1046 189 1046 189 1082 104 c 0,10,11
 1105 50 1105 50 1105 -20 c 0,12,13
 1105 -86 1105 -86 1081 -139 c 128,-1,14
 1057 -192 1057 -192 1018 -227 c 0,15,16
 977 -264 977 -264 924 -289 c 0,17,18
 869 -315 869 -315 813.5 -329 c 128,-1,19
 758 -343 758 -343 692 -351 c 0,20,21
 664 -355 664 -355 635.5 -356.5 c 128,-1,22
 607 -358 607 -358 578 -358 c 0,23,24
 230 -358 230 -358 128 -218 c 0,25,26
 96 -174 96 -174 96 -123 c 0,27,28
 96 -26 96 -26 197 48 c 0,29,30
 241 81 241 81 298 103 c 1,31,32
 167 138 167 138 134 217 c 0,33,34
 126 238 126 238 126 256 c 0,35,36
 126 314 126 314 155.5 356.5 c 128,-1,37
 185 399 185 399 234 441 c 0,38,39
 257 461 257 461 284.5 478.5 c 128,-1,40
 312 496 312 496 343 511 c 1,41,42
 159 620 159 620 159 815 c 0,43,44
 159 977 159 977 294 1078 c 1,45,46
 416 1167 416 1167 582 1167 c 0,47,48
 744 1167 744 1167 874 1081 c 1,49,50
 969 1170 969 1170 1044 1200 c 0,51,52
 1083 1215 1083 1215 1122 1215 c 0,53,54
 1127 1215 1127 1215 1135 1214 c 128,-1,55
 1143 1213 1143 1213 1153 1211 c 1,56,-1
 1153 969 l 1,57,58
 1078 997 1078 997 1060 1002 c 0,59,60
 1039 1008 1039 1008 1027 1008 c 0,61,62
 1008 1008 1008 1008 971 991 c 1,63,-1
 978 972 l 1,64,-1
 986 952 l 2,65,66
 988 947 988 947 993 932.5 c 128,-1,67
 998 918 998 918 1000 911 c 256,68,69
 1002 904 1002 904 1006 890.5 c 128,-1,70
 1010 877 1010 877 1011 867 c 256,71,72
 1012 857 1012 857 1013.5 844.5 c 128,-1,73
 1015 832 1015 832 1015 820 c 0,74,75
 1015 683 1015 683 914 574 c 1,76,77
 800 453 800 453 617 453 c 0,78,79
 606 453 606 453 590.5 453.5 c 128,-1,80
 575 454 575 454 555 455 c 256,81,82
 535 456 535 456 520.5 456.5 c 128,-1,83
 506 457 506 457 497 457 c 0,0,1
449 80 m 1,84,85
 358 53 358 53 358 -36 c 0,86,87
 358 -72 358 -72 381 -95.5 c 128,-1,88
 404 -119 404 -119 446 -129 c 0,89,90
 467 -134 467 -134 486.5 -137 c 128,-1,91
 506 -140 506 -140 525.5 -142 c 128,-1,92
 545 -144 545 -144 566 -144.5 c 128,-1,93
 587 -145 587 -145 613 -145 c 0,94,95
 670 -145 670 -145 717 -134 c 0,96,97
 763 -123 763 -123 794 -93 c 128,-1,98
 825 -63 825 -63 825 -17 c 0,99,100
 825 80 825 80 617 80 c 2,101,-1
 449 80 l 1,84,85
580 993 m 0,102,103
 516 993 516 993 482 944 c 0,104,105
 447 895 447 895 447 826 c 0,106,107
 447 628 447 628 582 628 c 0,108,109
 615 628 615 628 639 642 c 128,-1,110
 663 656 663 656 679 681.5 c 128,-1,111
 695 707 695 707 702.5 742.5 c 128,-1,112
 710 778 710 778 710 820 c 0,113,114
 710 858 710 858 702 889.5 c 128,-1,115
 694 921 694 921 677.5 944 c 128,-1,116
 661 967 661 967 637 980 c 128,-1,117
 613 993 613 993 580 993 c 0,102,103
EndSplineSet
EndChar

StartChar: h
Encoding: 104 104 70
Width: 1080
GlyphClass: 2
Flags: W
HStem: -12 21G<142 382 718 958> 922 245<591.646 803.5> 1516 20G<270 430>
VStem: 142 288<12 868.36 1005 1500> 718 288<12 904.394>
LayerCount: 2
Fore
SplineSet
718 773 m 2,0,1
 718 922 718 922 618 922 c 0,2,3
 580 922 580 922 534 900 c 128,-1,4
 488 878 488 878 430 843 c 1,5,-1
 430 12 l 1,6,-1
 142 -12 l 1,7,-1
 142 1500 l 1,8,-1
 430 1536 l 1,9,-1
 430 1005 l 1,10,11
 518 1089 518 1089 603 1128 c 1,12,13
 685 1167 685 1167 760 1167 c 0,14,15
 847 1167 847 1167 904.5 1120 c 128,-1,16
 962 1073 962 1073 988 997 c 0,17,18
 1006 943 1006 943 1006 876 c 2,19,-1
 1006 12 l 1,20,-1
 718 -12 l 1,21,-1
 718 773 l 2,0,1
EndSplineSet
EndChar

StartChar: i
Encoding: 105 105 71
Width: 570
GlyphClass: 2
Flags: W
HStem: -12 21G<143 383> 1132 20G<191 431> 1300 298<143 431>
VStem: 143 288<12 1128 1312 1598>
LayerCount: 2
Fore
SplineSet
143 1128 m 1,0,-1
 431 1152 l 1,1,-1
 431 12 l 1,2,-1
 143 -12 l 1,3,-1
 143 1128 l 1,0,-1
431 1600 m 1,4,-1
 431 1312 l 1,5,-1
 143 1300 l 1,6,-1
 143 1598 l 1,7,-1
 431 1600 l 1,4,-1
EndSplineSet
EndChar

StartChar: j
Encoding: 106 106 72
Width: 632
GlyphClass: 2
Flags: W
HStem: -269 173<46 155.319> 1132 20G<253 493> 1300 298<205 493>
VStem: 205 288<-77.8105 1128 1312 1598>
LayerCount: 2
Fore
SplineSet
238 -288 m 0,0,1
 197 -288 197 -288 149.5 -283.5 c 128,-1,2
 102 -279 102 -279 46 -269 c 1,3,-1
 46 -96 l 1,4,5
 119 -96 119 -96 156.5 -80.5 c 128,-1,6
 194 -65 194 -65 201 -16 c 0,7,8
 205 7 205 7 205 54 c 2,9,-1
 205 1128 l 1,10,-1
 493 1152 l 1,11,-1
 493 54 l 2,12,13
 493 28 493 28 493 9.5 c 128,-1,14
 493 -9 493 -9 492 -21 c 1,15,16
 492 -46 492 -46 489 -85 c 0,17,18
 486 -127 486 -127 479 -146 c 1,19,20
 474 -164 474 -164 466.5 -182 c 128,-1,21
 459 -200 459 -200 448 -216 c 128,-1,22
 437 -232 437 -232 421.5 -245 c 128,-1,23
 406 -258 406 -258 386 -265 c 1,24,25
 332 -288 332 -288 238 -288 c 0,0,1
493 1600 m 1,26,-1
 493 1312 l 1,27,-1
 205 1300 l 1,28,-1
 205 1598 l 1,29,-1
 493 1600 l 1,26,-1
EndSplineSet
EndChar

StartChar: k
Encoding: 107 107 73
Width: 1068
GlyphClass: 2
Flags: W
HStem: 0 21G<143 431 749.867 816.391> 1132 20G<708.456 1035> 1516 20G<271 431>
VStem: 143 288<0 421 775 1500> 724 311<841 1152>
DStem2: 431 775 711 738 0.616308 0.787505<143.429 477.468>
LayerCount: 2
Fore
SplineSet
431 421 m 1,0,-1
 431 0 l 1,1,-1
 143 0 l 1,2,-1
 143 1500 l 1,3,-1
 431 1536 l 1,4,-1
 431 775 l 1,5,-1
 724 1152 l 1,6,-1
 1035 1152 l 1,7,-1
 711 738 l 1,8,-1
 1012 60 l 1,9,-1
 758 -27 l 1,10,-1
 525 546 l 1,11,-1
 431 421 l 1,0,-1
EndSplineSet
EndChar

StartChar: l
Encoding: 108 108 74
Width: 569
GlyphClass: 2
Flags: W
HStem: -12 21G<142 382> 1516 20G<270 430>
VStem: 142 288<12 1500>
LayerCount: 2
Fore
SplineSet
142 1500 m 1,0,-1
 430 1536 l 1,1,-1
 430 12 l 1,2,-1
 142 -12 l 1,3,-1
 142 1500 l 1,0,-1
EndSplineSet
EndChar

StartChar: m
Encoding: 109 109 75
Width: 1530
GlyphClass: 2
Flags: W
HStem: -12 21G<142 382 622 862 1102 1342> 921 246<566.219 763 1039.64 1218.5> 1132 20G<190 430>
VStem: 142 288<12 879.996 1005 1128> 622 288<12 885.686> 1102 288<12 918.203>
CounterMasks: 1 1c
LayerCount: 2
Fore
SplineSet
1193 1167 m 0,0,1
 1244 1167 1244 1167 1280.5 1147 c 128,-1,2
 1317 1127 1317 1127 1337 1096 c 0,3,4
 1358 1064 1358 1064 1370 1016 c 0,5,6
 1383 968 1383 968 1386.5 922.5 c 128,-1,7
 1390 877 1390 877 1390 817 c 2,8,-1
 1390 12 l 1,9,-1
 1102 -12 l 1,10,-1
 1102 802 l 2,11,12
 1102 823 1102 823 1099 844 c 128,-1,13
 1096 865 1096 865 1089.5 882.5 c 128,-1,14
 1083 900 1083 900 1071.5 910.5 c 128,-1,15
 1060 921 1060 921 1043 921 c 0,16,17
 971 921 971 921 910 839 c 1,18,-1
 910 12 l 1,19,-1
 622 -12 l 1,20,-1
 622 804 l 2,21,22
 622 921 622 921 573 921 c 0,23,24
 530 921 530 921 474 880 c 0,25,26
 450 862 450 862 430 839 c 1,27,-1
 430 12 l 1,28,-1
 142 -12 l 1,29,-1
 142 1128 l 1,30,-1
 430 1152 l 1,31,-1
 430 1005 l 1,32,33
 566 1167 566 1167 727 1167 c 0,34,35
 799 1167 799 1167 838.5 1120 c 128,-1,36
 878 1073 878 1073 897 988 c 1,37,38
 963 1074 963 1074 1030 1119 c 0,39,40
 1100 1167 1100 1167 1193 1167 c 0,0,1
EndSplineSet
EndChar

StartChar: n
Encoding: 110 110 76
Width: 1143
GlyphClass: 2
Flags: W
HStem: -12 21G<142 382 718 958> 922 245<598.252 803.5> 1132 20G<190 430>
VStem: 142 288<12 867.497 1005 1128> 718 288<12 902.24>
LayerCount: 2
Fore
SplineSet
718 769 m 2,0,1
 718 922 718 922 613 922 c 0,2,3
 574 922 574 922 528 897 c 0,4,5
 499 881 499 881 474.5 867.5 c 128,-1,6
 450 854 450 854 430 842 c 1,7,-1
 430 12 l 1,8,-1
 142 -12 l 1,9,-1
 142 1128 l 1,10,-1
 430 1152 l 1,11,-1
 430 1005 l 1,12,13
 474 1043 474 1043 516.5 1072.5 c 128,-1,14
 559 1102 559 1102 601 1124 c 0,15,16
 686 1167 686 1167 760 1167 c 0,17,18
 847 1167 847 1167 904.5 1120 c 128,-1,19
 962 1073 962 1073 988 997 c 0,20,21
 1006 943 1006 943 1006 876 c 2,22,-1
 1006 12 l 1,23,-1
 718 -12 l 1,24,-1
 718 769 l 2,0,1
EndSplineSet
EndChar

StartChar: o
Encoding: 111 111 77
Width: 1073
GlyphClass: 2
Flags: W
HStem: -27 214<448.298 622.456> 964 203<448.498 621.715>
VStem: 105 288<271.266 875.397> 680 289<276.704 871.063>
LayerCount: 2
Fore
SplineSet
537 -27 m 0,0,1
 449 -27 449 -27 379.5 0.5 c 128,-1,2
 310 28 310 28 262 79 c 256,3,4
 214 130 214 130 182.5 192 c 128,-1,5
 151 254 151 254 132 332 c 0,6,7
 105 443 105 443 105 577 c 0,8,9
 105 775 105 775 166 916.5 c 128,-1,10
 227 1058 227 1058 348 1124 c 0,11,12
 427 1167 427 1167 537 1167 c 0,13,14
 625 1167 625 1167 692.5 1139 c 128,-1,15
 760 1111 760 1111 809 1062.5 c 128,-1,16
 858 1014 858 1014 890.5 950 c 128,-1,17
 923 886 923 886 941 814 c 1,18,19
 969 709 969 709 969 577 c 0,20,21
 969 375 969 375 907.5 230 c 128,-1,22
 846 85 846 85 723 18 c 0,23,24
 642 -27 642 -27 537 -27 c 0,0,1
535 187 m 0,25,26
 561 187 561 187 582.5 196 c 128,-1,27
 604 205 604 205 619 225 c 0,28,29
 634 246 634 246 645 266 c 128,-1,30
 656 286 656 286 662 320 c 0,31,32
 666 337 666 337 668 351.5 c 128,-1,33
 670 366 670 366 672 377 c 0,34,35
 674 389 674 389 675 405 c 128,-1,36
 676 421 676 421 677 441 c 256,37,38
 678 461 678 461 678.5 476.5 c 128,-1,39
 679 492 679 492 679 503 c 0,40,41
 680 514 680 514 680 528.5 c 128,-1,42
 680 543 680 543 680 563 c 2,43,-1
 680 577 l 2,44,45
 680 611 680 611 679.5 638.5 c 128,-1,46
 679 666 679 666 678 688 c 256,47,48
 677 710 677 710 674.5 735 c 128,-1,49
 672 760 672 760 668 788 c 0,50,51
 655 901 655 901 596 945 c 1,52,53
 574 964 574 964 536 964 c 0,54,55
 510 964 510 964 488.5 955 c 128,-1,56
 467 946 467 946 452 926 c 0,57,58
 438 907 438 907 427.5 888 c 128,-1,59
 417 869 417 869 410 835 c 2,60,-1
 400 779 l 2,61,62
 396 757 396 757 394 715 c 0,63,64
 393 695 393 695 393 680 c 128,-1,65
 393 665 393 665 393 655 c 2,66,-1
 393 596 l 1,67,-1
 393 577 l 2,68,69
 393 540 393 540 393 512 c 128,-1,70
 393 484 393 484 394 464 c 0,71,72
 395 424 395 424 403 364 c 0,73,74
 410 304 410 304 427.5 266 c 128,-1,75
 445 228 445 228 474 206 c 1,76,77
 496 187 496 187 535 187 c 0,25,26
EndSplineSet
EndChar

StartChar: p
Encoding: 112 112 78
Width: 1055
GlyphClass: 2
Flags: W
HStem: -358 21G<143 245.857> -27 220<510.734 693> 960 207<533.581 711> 1132 20G<191 431>
VStem: 143 288<-302 99 223.749 928.75 1041 1128> 691 288<246 897.964>
DStem2: 659 276 945 225.5 0.233743 0.972298<-88.9466 297.289>
LayerCount: 2
Fore
SplineSet
143 1128 m 1,0,-1
 431 1152 l 1,1,-1
 431 1041 l 1,2,3
 517 1127 517 1127 605 1156 c 1,4,5
 643 1167 643 1167 675 1167 c 0,6,7
 747 1167 747 1167 800 1146 c 0,8,9
 854 1125 854 1125 886 1078 c 1,10,11
 918 1033 918 1033 938 985 c 0,12,13
 948 962 948 962 955 930.5 c 128,-1,14
 962 899 962 899 966 859 c 0,15,16
 971 819 971 819 973.5 786 c 128,-1,17
 976 753 976 753 977 725 c 256,18,19
 978 697 978 697 978.5 660.5 c 128,-1,20
 979 624 979 624 979 576 c 0,21,22
 979 534 979 534 978 497.5 c 128,-1,23
 977 461 977 461 975 427 c 128,-1,24
 973 393 973 393 969 360 c 128,-1,25
 965 327 965 327 959 291 c 0,26,27
 953 256 953 256 945 225.5 c 128,-1,28
 937 195 937 195 927 169 c 0,29,30
 907 117 907 117 871.5 72.5 c 128,-1,31
 836 28 836 28 788 2 c 0,32,33
 733 -27 733 -27 653 -27 c 0,34,35
 560 -27 560 -27 487 36 c 0,36,37
 470 50 470 50 456 66 c 128,-1,38
 442 82 442 82 431 99 c 1,39,-1
 431 -302 l 1,40,-1
 143 -358 l 1,41,-1
 143 1128 l 1,0,-1
431 285 m 1,42,43
 475 193 475 193 556 193 c 0,44,45
 583 193 583 193 604 204.5 c 128,-1,46
 625 216 625 216 637 232 c 0,47,48
 649 247 649 247 659 276 c 0,49,50
 668 303 668 303 672.5 326 c 128,-1,51
 677 349 677 349 681 382 c 0,52,53
 686 417 686 417 688.5 465.5 c 128,-1,54
 691 514 691 514 691 576 c 0,55,56
 691 783 691 783 656 876 c 0,57,58
 624 960 624 960 554 960 c 0,59,60
 487 960 487 960 431 880 c 1,61,-1
 431 285 l 1,42,43
EndSplineSet
EndChar

StartChar: q
Encoding: 113 113 79
Width: 1041
GlyphClass: 2
Flags: W
HStem: -358 21G<609 769> -27 220<341.5 528.624> 960 207<327 511.59> 1132 20G<648.351 857>
VStem: 81 288<239.925 901.113> 609 288<-322 99 223.749 937.422>
LayerCount: 2
Fore
SplineSet
897 -322 m 1,0,-1
 609 -358 l 1,1,-1
 609 99 l 1,2,3
 564 30 564 30 484 -8 c 0,4,5
 445 -27 445 -27 387 -27 c 1,6,7
 296 -24 296 -24 238 13.5 c 128,-1,8
 180 51 180 51 147 122 c 0,9,10
 124 171 124 171 111.5 219.5 c 128,-1,11
 99 268 99 268 92 334 c 256,12,13
 85 400 85 400 83 453 c 0,14,15
 82 479 82 479 81.5 510 c 128,-1,16
 81 541 81 541 81 576 c 0,17,18
 81 615 81 615 81 645 c 128,-1,19
 81 675 81 675 82 697 c 256,20,21
 83 719 83 719 84 746.5 c 128,-1,22
 85 774 85 774 87 808 c 256,23,24
 89 842 89 842 92.5 869.5 c 128,-1,25
 96 897 96 897 101 918 c 256,26,27
 106 939 106 939 113.5 961.5 c 128,-1,28
 121 984 121 984 129 1007 c 0,29,30
 146 1055 146 1055 174 1087 c 128,-1,31
 202 1119 202 1119 240 1140 c 0,32,33
 289 1167 289 1167 365 1167 c 0,34,35
 418 1167 418 1167 466 1145 c 0,36,37
 491 1134 491 1134 510 1123 c 128,-1,38
 529 1112 529 1112 543 1101 c 0,39,40
 571 1078 571 1078 609 1041 c 1,41,-1
 657 1152 l 1,42,-1
 897 1128 l 1,43,-1
 897 -322 l 1,0,-1
609 880 m 1,44,45
 564 960 564 960 506 960 c 0,46,47
 439 960 439 960 410 893 c 1,48,49
 397 860 397 860 390.5 831 c 128,-1,50
 384 802 384 802 378 758 c 0,51,52
 369 684 369 684 369 576 c 0,53,54
 369 353 369 353 402 265 c 0,55,56
 416 229 416 229 433.5 211 c 128,-1,57
 451 193 451 193 484 193 c 0,58,59
 565 193 565 193 609 285 c 1,60,-1
 609 880 l 1,44,45
EndSplineSet
EndChar

StartChar: r
Encoding: 114 114 80
Width: 849
GlyphClass: 2
Flags: W
HStem: -12 21G<142 382> 864 303<606.733 813.328> 1132 20G<190 430>
VStem: 142 288<12 810 967 1128>
LayerCount: 2
Fore
SplineSet
622 864 m 0,0,1
 561 864 561 864 517.5 840 c 128,-1,2
 474 816 474 816 430 768 c 1,3,-1
 430 12 l 1,4,-1
 142 -12 l 1,5,-1
 142 1128 l 1,6,-1
 430 1152 l 1,7,-1
 430 967 l 1,8,9
 531 1102 531 1102 663 1148 c 1,10,11
 713 1167 713 1167 779 1167 c 0,12,13
 784 1167 784 1167 793 1166 c 128,-1,14
 802 1165 802 1165 814 1163 c 1,15,-1
 814 820 l 1,16,-1
 771 833 l 2,17,18
 755 838 755 838 742.5 842.5 c 128,-1,19
 730 847 730 847 721 849 c 0,20,21
 704 854 704 854 675.5 859 c 128,-1,22
 647 864 647 864 622 864 c 0,0,1
EndSplineSet
EndChar

StartChar: s
Encoding: 115 115 81
Width: 1003
GlyphClass: 2
Flags: W
HStem: -27 227<371.496 602.686> 954 213<397.955 590.995>
VStem: 106 267<794.708 933.428> 634 276<223.602 369.923>
DStem2: 678 679 306 490 0.926341 -0.376686<-344.439 97.2406>
LayerCount: 2
Fore
SplineSet
497 954 m 0,0,1
 443 954 443 954 408 931 c 128,-1,2
 373 908 373 908 373 862 c 0,3,4
 373 806 373 806 473 764 c 2,5,-1
 678 679 l 1,6,7
 785 630 785 630 848 551 c 0,8,9
 910 472 910 472 910 342 c 0,10,11
 910 209 910 209 839 120 c 0,12,13
 769 33 769 33 654 -4 c 1,14,15
 579 -27 579 -27 508 -27 c 0,16,17
 337 -27 337 -27 234 48 c 128,-1,18
 131 123 131 123 99 265 c 1,19,-1
 321 337 l 1,20,21
 336 276 336 276 378 238 c 128,-1,22
 420 200 420 200 489 200 c 0,23,24
 546 200 546 200 590 223 c 256,25,26
 634 246 634 246 634 293 c 0,27,28
 634 357 634 357 547 392 c 2,29,-1
 306 490 l 2,30,31
 210 528 210 528 158 609 c 128,-1,32
 106 690 106 690 106 814 c 0,33,34
 106 877 106 877 123.5 930 c 128,-1,35
 141 983 141 983 173.5 1024.5 c 128,-1,36
 206 1066 206 1066 251 1096 c 128,-1,37
 296 1126 296 1126 350 1144 c 1,38,39
 424 1167 424 1167 495 1167 c 0,40,41
 603 1167 603 1167 684.5 1123.5 c 128,-1,42
 766 1080 766 1080 820 1008 c 0,43,44
 859 956 859 956 878 889 c 1,45,-1
 642 816 l 1,46,47
 620 891 620 891 567 932 c 0,48,49
 538 954 538 954 497 954 c 0,0,1
EndSplineSet
EndChar

StartChar: t
Encoding: 116 116 82
Width: 810
GlyphClass: 2
Flags: W
HStem: -27 219<452.5 717.319> 936 216<63 212 500 723>
VStem: 212 288<214.38 936 1152 1248.86> 249 250<1278.41 1402>
LayerCount: 2
Fore
SplineSet
719 1 m 1,0,1
 641 -27 641 -27 499 -27 c 0,2,3
 406 -27 406 -27 340.5 10.5 c 128,-1,4
 275 48 275 48 240 115 c 0,5,6
 212 168 212 168 212 244 c 2,7,-1
 212 936 l 1,8,-1
 51 936 l 1,9,-1
 63 1152 l 1,10,-1
 220 1152 l 1,11,-1
 249 1402 l 1,12,-1
 499 1438 l 1,13,-1
 499 1152 l 1,14,-1
 735 1152 l 1,15,-1
 723 936 l 1,16,-1
 500 936 l 1,17,-1
 500 301 l 2,18,19
 500 192 500 192 647 192 c 0,20,21
 690 192 690 192 719 199 c 1,22,-1
 719 1 l 1,0,1
EndSplineSet
EndChar

StartChar: u
Encoding: 117 117 83
Width: 1143
GlyphClass: 2
Flags: W
HStem: -27 255<333 550.983> -12 21G<714 954> 1132 20G<186 426 762 1002>
VStem: 138 288<269.258 1128> 714 288<12 135 318 1128>
LayerCount: 2
Fore
SplineSet
426 381 m 2,0,1
 426 308 426 308 446.5 268 c 128,-1,2
 467 228 467 228 521 228 c 0,3,4
 556 228 556 228 590 244 c 0,5,6
 601 249 601 249 605.5 251 c 128,-1,7
 610 253 610 253 621 259 c 2,8,-1
 635 268 l 1,9,-1
 662 285 l 1,10,-1
 714 318 l 1,11,-1
 714 1128 l 1,12,-1
 1002 1152 l 1,13,-1
 1002 12 l 1,14,-1
 714 -12 l 1,15,-1
 714 135 l 1,16,17
 629 59 629 59 548 16 c 0,18,19
 466 -27 466 -27 394 -27 c 0,20,21
 272 -27 272 -27 205 54 c 0,22,23
 138 134 138 134 138 264 c 2,24,-1
 138 1128 l 1,25,-1
 426 1152 l 1,26,-1
 426 381 l 2,0,1
EndSplineSet
EndChar

StartChar: v
Encoding: 118 118 84
Width: 1050
GlyphClass: 2
Flags: W
HStem: 0 21G<383.326 659.789> 1132 20G<126.167 415.935>
LayerCount: 2
Fore
SplineSet
69 1128 m 1,0,-1
 412 1152 l 1,1,-1
 557 415 l 1,2,-1
 723 1116 l 1,3,-1
 984 1140 l 1,4,-1
 654 0 l 1,5,-1
 389 0 l 1,6,-1
 69 1128 l 1,0,-1
EndSplineSet
EndChar

StartChar: w
Encoding: 119 119 85
Width: 1455
GlyphClass: 2
Flags: W
HStem: 0 21G<332.805 576.337 861.493 1100.63> 1132 20G<126.636 396.037 677 880.851>
DStem2: 492 500 734 747 0.211941 0.977283<0 292.678> 1001 508 1096 0 0.225608 0.974218<0 632.216>
LayerCount: 2
Fore
SplineSet
734 747 m 1,0,-1
 572 0 l 1,1,-1
 337 0 l 1,2,-1
 100 1130 l 1,3,-1
 393 1152 l 1,4,-1
 492 500 l 1,5,-1
 637 1128 l 1,6,-1
 877 1152 l 1,7,-1
 1001 508 l 1,8,-1
 1126 1128 l 1,9,-1
 1360 1140 l 1,10,-1
 1096 0 l 1,11,-1
 865 0 l 1,12,-1
 734 747 l 1,0,-1
EndSplineSet
EndChar

StartChar: x
Encoding: 120 120 86
Width: 1159
GlyphClass: 2
Flags: W
HStem: 0 21G<116 400.383 726.313 1000.17> 1132 20G<127 450.858 715.645 998>
DStem2: 116 0 390 0 0.467958 0.883751<128.221 510.173 985.996 1303.54> 441 1152 127 1152 0.463335 -0.886183<0 314.307 778.384 1168.2>
LayerCount: 2
Fore
SplineSet
566 339 m 1,0,-1
 390 0 l 1,1,-1
 116 0 l 1,2,-1
 427 579 l 1,3,-1
 127 1152 l 1,4,-1
 441 1152 l 1,5,-1
 580 870 l 1,6,-1
 726 1152 l 1,7,-1
 998 1152 l 1,8,-1
 721 634 l 1,9,-1
 1053 12 l 1,10,-1
 736 -12 l 1,11,-1
 566 339 l 1,0,-1
EndSplineSet
EndChar

StartChar: y
Encoding: 121 121 87
Width: 1059
GlyphClass: 2
Flags: W
HStem: -365 251.5<152 412.735> 1132 20G<124 440.494>
VStem: 751 260<886 1146>
LayerCount: 2
Fore
SplineSet
152 -113 m 1,0,1
 159 -113 159 -113 172.5 -113.5 c 128,-1,2
 186 -114 186 -114 207 -115 c 256,3,4
 228 -116 228 -116 244 -116.5 c 128,-1,5
 260 -117 260 -117 271 -117 c 0,6,7
 453 -117 453 -117 453 52 c 2,8,-1
 453 108 l 1,9,-1
 124 1138 l 1,10,-1
 436 1152 l 1,11,-1
 598 431 l 1,12,-1
 751 1146 l 1,13,-1
 1011 1148 l 1,14,-1
 716 21 l 1,15,16
 652 -204 652 -204 514 -298 c 0,17,18
 417 -365 417 -365 273 -365 c 0,19,20
 224 -365 224 -365 152 -353 c 1,21,-1
 152 -113 l 1,0,1
EndSplineSet
EndChar

StartChar: z
Encoding: 122 122 88
Width: 1037
GlyphClass: 2
Flags: W
HStem: 0 234<481 887> 925 227<184 525>
DStem2: 130 181 481 234 0.460456 0.887683<208.667 842.316>
LayerCount: 2
Fore
SplineSet
911 234 m 1,0,-1
 887 0 l 1,1,-1
 130 0 l 1,2,-1
 130 181 l 1,3,-1
 525 925 l 1,4,-1
 160 925 l 1,5,-1
 184 1152 l 1,6,-1
 869 1152 l 1,7,-1
 869 982 l 1,8,-1
 481 234 l 1,9,-1
 911 234 l 1,0,-1
EndSplineSet
EndChar

StartChar: bar
Encoding: 124 124 89
Width: 588
GlyphClass: 2
Flags: W
VStem: 145 300<-96 1632>
LayerCount: 2
Fore
SplineSet
145 1632 m 1,0,-1
 445 1632 l 1,1,-1
 445 -96 l 1,2,-1
 145 -96 l 1,3,-1
 145 1632 l 1,0,-1
EndSplineSet
EndChar

StartChar: D
Encoding: 68 68 90
Width: 1158
GlyphClass: 2
Flags: W
HStem: 0 240<442 628.047> 1296 240<442 623.459>
VStem: 143 299<240 1296> 760 300<413.579 1129.92>
LayerCount: 2
Fore
SplineSet
457 1536 m 2,0,1
 623 1536 623 1536 738.5 1481.5 c 128,-1,2
 854 1427 854 1427 925 1326 c 128,-1,3
 996 1225 996 1225 1028 1082 c 128,-1,4
 1060 939 1060 939 1060 762 c 0,5,6
 1060 583 1060 583 1022 436 c 0,7,8
 985 291 985 291 901.5 184.5 c 128,-1,9
 818 78 818 78 691 30 c 0,10,11
 611 0 611 0 510 0 c 2,12,-1
 143 0 l 1,13,-1
 143 1536 l 1,14,-1
 457 1536 l 2,0,1
760 817 m 2,15,16
 760 896 760 896 754 959.5 c 128,-1,17
 748 1023 748 1023 729 1088 c 0,18,19
 716 1135 716 1135 695.5 1173 c 128,-1,20
 675 1211 675 1211 644 1238 c 128,-1,21
 613 1265 613 1265 572 1280 c 128,-1,22
 531 1295 531 1295 477 1296 c 1,23,-1
 442 1296 l 1,24,-1
 442 240 l 1,25,-1
 485 240 l 2,26,27
 552 240 552 240 602 267 c 128,-1,28
 652 294 652 294 681 337 c 0,29,30
 711 381 711 381 729 443 c 0,31,32
 747 506 747 506 753.5 568 c 128,-1,33
 760 630 760 630 760 705 c 2,34,-1
 760 817 l 2,15,16
EndSplineSet
EndChar

StartChar: parenright
Encoding: 41 41 91
Width: 819
GlyphClass: 2
Flags: W
HStem: -76 189<96 194.461> 1380 183<96 184.188>
VStem: 373 288<417.007 1073.74>
LayerCount: 2
Fore
SplineSet
96 113 m 1,0,1
 227 124 227 124 304 319 c 0,2,3
 373 496 373 496 373 745 c 0,4,5
 373 922 373 922 334 1071 c 0,6,7
 295 1219 295 1219 217 1308 c 0,8,9
 165 1366 165 1366 96 1380 c 1,10,-1
 96 1563 l 1,11,12
 362 1554 362 1554 518 1301 c 0,13,14
 661 1069 661 1069 661 745 c 0,15,16
 661 428 661 428 522 198 c 0,17,18
 370 -54 370 -54 96 -76 c 1,19,-1
 96 113 l 1,0,1
EndSplineSet
EndChar

StartChar: parenleft
Encoding: 40 40 92
Width: 819
GlyphClass: 2
Flags: W
HStem: -76 189<564.283 661> 1380 183<570.484 661>
VStem: 96 288<420.707 1079.63>
LayerCount: 2
Fore
SplineSet
661 -76 m 1,0,1
 302 -46 302 -46 158 364 c 1,2,3
 96 544 96 544 96 745 c 0,4,5
 96 967 96 967 162 1146 c 0,6,7
 229 1326 229 1326 348 1435 c 0,8,9
 484 1559 484 1559 661 1563 c 1,10,-1
 661 1380 l 1,11,12
 530 1354 530 1354 454 1162 c 0,13,14
 384 986 384 986 384 745 c 0,15,16
 384 565 384 565 422 411 c 1,17,18
 461 260 461 260 540 175 c 0,19,20
 593 119 593 119 661 113 c 1,21,-1
 661 -76 l 1,0,1
EndSplineSet
EndChar

StartChar: A
Encoding: 65 65 93
Width: 1235
GlyphClass: 2
Flags: W
HStem: 0 21G<75 346.073 827.535 1158> 329 246<463 720> 1516 20G<399 830.357>
VStem: 75 267<0 267>
DStem2: 75 0 342 0 0.208737 0.977972<55.7328 391.471 643.324 1061.92> 826 1536 579 1310 0.212856 -0.977084<168.246 916.415 1168.27 1440.58> 1158 12 720 575 0.212856 -0.977084<-1391.5 -643.329 -391.472 -391.472>
LayerCount: 2
Fore
SplineSet
409 329 m 1,0,-1
 342 0 l 1,1,-1
 75 0 l 1,2,-1
 399 1518 l 1,3,-1
 826 1536 l 1,4,-1
 1158 12 l 1,5,-1
 831 0 l 1,6,-1
 774 329 l 1,7,-1
 409 329 l 1,0,-1
720 575 m 1,8,-1
 579 1310 l 1,9,-1
 463 575 l 1,10,-1
 720 575 l 1,8,-1
EndSplineSet
EndChar

StartChar: B
Encoding: 66 66 94
Width: 1165
GlyphClass: 2
Flags: W
HStem: 0 240<443 675.959> 693 218<443 685.736> 1296 240<433 675.531>
VStem: 143 300<240 693 911 1296> 740 279<964.844 1236.6> 778 288<336.666 622.869>
LayerCount: 2
Fore
SplineSet
852 818 m 1,0,1
 905 791 905 791 945 755.5 c 128,-1,2
 985 720 985 720 1012 673 c 128,-1,3
 1039 626 1039 626 1052.5 566 c 128,-1,4
 1066 506 1066 506 1066 431 c 0,5,6
 1066 328 1066 328 1028.5 251 c 128,-1,7
 991 174 991 174 930 126 c 1,8,9
 899 103 899 103 861.5 83.5 c 128,-1,10
 824 64 824 64 778 50 c 0,11,12
 688 21 688 21 595.5 10.5 c 128,-1,13
 503 0 503 0 389 0 c 2,14,-1
 143 0 l 1,15,-1
 143 1536 l 1,16,-1
 487 1536 l 2,17,18
 765 1536 765 1536 901 1420 c 0,19,20
 1019 1320 1019 1320 1019 1140 c 0,21,22
 1019 1025 1019 1025 975 941 c 128,-1,23
 931 857 931 857 852 818 c 1,0,1
778 471 m 0,24,25
 778 595 778 595 711 644 c 1,26,27
 646 693 646 693 509 693 c 2,28,-1
 443 693 l 1,29,-1
 443 240 l 1,30,-1
 498 240 l 2,31,32
 603 240 603 240 672 281 c 128,-1,33
 741 322 741 322 765 397 c 0,34,35
 778 435 778 435 778 471 c 0,24,25
740 1111 m 0,36,37
 740 1162 740 1162 723.5 1197.5 c 128,-1,38
 707 1233 707 1233 675.5 1255 c 128,-1,39
 644 1277 644 1277 598 1286.5 c 128,-1,40
 552 1296 552 1296 492 1296 c 2,41,-1
 433 1296 l 1,42,-1
 433 911 l 1,43,-1
 505 911 l 2,44,45
 629 911 629 911 684 954 c 0,46,47
 740 998 740 998 740 1111 c 0,36,37
EndSplineSet
EndChar

StartChar: C
Encoding: 67 67 95
Width: 1116
GlyphClass: 2
Flags: W
HStem: -32 257<531.002 694.743> 1328 240<494.179 658.091>
VStem: 105 300<388.829 1153.26> 729 290<1014 1244.44> 766 255<313.153 523>
LayerCount: 2
Fore
SplineSet
1021 523 m 1,0,1
 1021 434 1021 434 1005 356 c 128,-1,2
 989 278 989 278 958 213 c 128,-1,3
 927 148 927 148 881.5 97.5 c 128,-1,4
 836 47 836 47 778 14 c 0,5,6
 696 -32 696 -32 585 -32 c 0,7,8
 504 -32 504 -32 437.5 -7 c 128,-1,9
 371 18 371 18 325 58 c 0,10,11
 302 78 302 78 281.5 103.5 c 128,-1,12
 261 129 261 129 242 158 c 1,13,14
 206 218 206 218 183.5 278.5 c 128,-1,15
 161 339 161 339 144 412 c 0,16,17
 105 578 105 578 105 800 c 0,18,19
 105 1006 105 1006 156 1174 c 256,20,21
 207 1342 207 1342 306 1446 c 0,22,23
 423 1568 423 1568 592 1568 c 0,24,25
 784 1568 784 1568 906 1392 c 0,26,27
 1019 1228 1019 1228 1019 1014 c 1,28,-1
 729 999 l 1,29,30
 729 1049 729 1049 723.5 1095.5 c 128,-1,31
 718 1142 718 1142 707 1182.5 c 128,-1,32
 696 1223 696 1223 679 1254.5 c 128,-1,33
 662 1286 662 1286 638 1306 c 0,34,35
 613 1328 613 1328 575 1328 c 0,36,37
 508 1328 508 1328 467 1242 c 0,38,39
 405 1110 405 1110 405 800 c 0,40,41
 405 547 405 547 440 404 c 0,42,43
 467 293 467 293 530 248 c 0,44,45
 562 225 562 225 604 225 c 1,46,47
 628 223 628 223 648.5 232.5 c 128,-1,48
 669 242 669 242 684.5 258 c 128,-1,49
 700 274 700 274 712 295 c 128,-1,50
 724 316 724 316 732 337 c 0,51,52
 743 366 743 366 750 408 c 0,53,54
 754 430 754 430 756 447.5 c 128,-1,55
 758 465 758 465 760 478 c 0,56,57
 763 503 763 503 766 547 c 1,58,-1
 1021 523 l 1,0,1
EndSplineSet
EndChar

StartChar: exclam
Encoding: 33 33 96
Width: 566
GlyphClass: 2
Flags: W
HStem: -12 312<140 428> 1516 20G<140 428>
VStem: 140 288<0 300 1217.68 1536> 189 192<448 766.318>
LayerCount: 2
Fore
SplineSet
140 1536 m 1,0,-1
 428 1536 l 1,1,-1
 381 448 l 1,2,-1
 189 448 l 1,3,-1
 140 1536 l 1,0,-1
140 -12 m 1,4,-1
 140 300 l 1,5,-1
 428 300 l 1,6,-1
 428 0 l 1,7,-1
 140 -12 l 1,4,-1
EndSplineSet
EndChar

StartChar: fi
Encoding: 64257 64257 97
Width: 1358
GlyphClass: 2
Flags: W
HStem: -12 21G<229 469 927 1167> 915 237<111 229 517 927> 1288 312<927 1215> 1344 202<545.371 707.861> 1344 172<545.828 710>
VStem: 229 288<12 915 1152 1299.65> 927 288<12 915 1300 1600>
LayerCount: 2
Fore
SplineSet
647 1344 m 2,0,1
 572 1344 572 1344 544.5 1301 c 128,-1,2
 517 1258 517 1258 517 1173 c 2,3,-1
 517 1152 l 1,4,-1
 1215 1152 l 1,5,-1
 1215 12 l 1,6,-1
 927 -12 l 1,7,-1
 927 915 l 1,8,-1
 517 915 l 1,9,-1
 517 12 l 1,10,-1
 229 -12 l 1,11,-1
 229 917 l 1,12,-1
 87 917 l 1,13,-1
 111 1152 l 1,14,-1
 229 1152 l 1,15,-1
 229 1174 l 2,16,17
 229 1356 229 1356 268 1430 c 0,18,19
 330 1546 330 1546 515 1546 c 0,20,21
 642 1546 642 1546 710 1516 c 1,22,-1
 710 1344 l 1,23,-1
 647 1344 l 2,0,1
1215 1600 m 1,24,-1
 1215 1300 l 1,25,-1
 927 1288 l 1,26,-1
 927 1600 l 1,27,-1
 1215 1600 l 1,24,-1
EndSplineSet
EndChar

StartChar: fl
Encoding: 64258 64258 98
Width: 1361
GlyphClass: 2
Flags: W
HStem: -12 21G<232 472 930 1170> 915 237<114 232 520 687> 1344 192<539.755 930>
VStem: 232 288<12 915 1152 1332.47> 930 288<12 1344>
LayerCount: 2
Fore
SplineSet
610 1344 m 2,0,1
 549 1344 549 1344 533 1289 c 0,2,3
 525 1261 525 1261 522.5 1236.5 c 128,-1,4
 520 1212 520 1212 520 1173 c 2,5,-1
 520 1152 l 1,6,-1
 711 1152 l 1,7,-1
 687 915 l 1,8,-1
 520 915 l 1,9,-1
 520 12 l 1,10,-1
 232 -12 l 1,11,-1
 232 917 l 1,12,-1
 90 917 l 1,13,-1
 114 1152 l 1,14,-1
 232 1152 l 1,15,-1
 232 1174 l 2,16,17
 232 1236 232 1236 237.5 1285 c 128,-1,18
 243 1334 243 1334 256.5 1371.5 c 128,-1,19
 270 1409 270 1409 293 1436.5 c 128,-1,20
 316 1464 316 1464 350 1484 c 0,21,22
 441 1536 441 1536 618 1536 c 2,23,-1
 1218 1536 l 1,24,-1
 1218 12 l 1,25,-1
 930 -12 l 1,26,-1
 930 1344 l 1,27,-1
 610 1344 l 2,0,1
EndSplineSet
EndChar

StartChar: fraction
Encoding: 8260 8260 99
Width: 622
GlyphClass: 2
Flags: W
HStem: 0 21G<61 363.617> 1516 20G<259.383 562>
VStem: 61 300<0 300> 262 300<1236 1536>
DStem2: 61 0 361 0 0.129753 0.991546<38.9259 1549.1>
LayerCount: 2
Fore
SplineSet
262 1536 m 1,0,-1
 562 1536 l 1,1,-1
 361 0 l 1,2,-1
 61 0 l 1,3,-1
 262 1536 l 1,0,-1
EndSplineSet
EndChar

StartChar: slash
Encoding: 47 47 100
Width: 622
GlyphClass: 2
Flags: W
HStem: 0 21G<61 363.617> 1516 20G<259.383 562>
VStem: 61 300<0 300> 262 300<1236 1536>
DStem2: 61 0 361 0 0.129753 0.991546<38.9259 1549.1>
LayerCount: 2
Fore
SplineSet
262 1536 m 1,0,-1
 562 1536 l 1,1,-1
 361 0 l 1,2,-1
 61 0 l 1,3,-1
 262 1536 l 1,0,-1
EndSplineSet
EndChar

StartChar: plus
Encoding: 43 43 101
Width: 572
GlyphClass: 2
Flags: W
HStem: 260 238<-67 173 411 651>
VStem: 173 238<20 260 498 738>
LayerCount: 2
Fore
SplineSet
411 260 m 1,0,-1
 411 20 l 1,1,-1
 173 20 l 1,2,-1
 173 260 l 1,3,-1
 -67 260 l 1,4,-1
 -67 498 l 1,5,-1
 173 498 l 1,6,-1
 173 738 l 1,7,-1
 411 738 l 1,8,-1
 411 498 l 1,9,-1
 651 498 l 1,10,-1
 651 260 l 1,11,-1
 411 260 l 1,0,-1
EndSplineSet
EndChar

StartChar: acute
Encoding: 180 180 103
Width: 685
GlyphClass: 2
Flags: W
HStem: 1248 384
VStem: 39 576
LayerCount: 2
Fore
SplineSet
39 1392 m 1,0,-1
 519 1632 l 1,1,-1
 615 1344 l 1,2,-1
 87 1248 l 1,3,-1
 39 1392 l 1,0,-1
EndSplineSet
EndChar

StartChar: macron
Encoding: 175 175 104
Width: 861
GlyphClass: 2
Flags: W
HStem: 1248 192<143 719>
VStem: 143 576<1248 1440>
LayerCount: 2
Fore
SplineSet
143 1440 m 1,0,-1
 719 1440 l 1,1,-1
 719 1248 l 1,2,-1
 143 1248 l 1,3,-1
 143 1440 l 1,0,-1
EndSplineSet
EndChar

StartChar: grave
Encoding: 96 96 105
Width: 685
GlyphClass: 2
Flags: W
HStem: 1248 384
VStem: 70 576
LayerCount: 2
Fore
SplineSet
598 1248 m 1,0,-1
 70 1344 l 1,1,-1
 166 1632 l 1,2,-1
 646 1392 l 1,3,-1
 598 1248 l 1,0,-1
EndSplineSet
EndChar

StartChar: period
Encoding: 46 46 106
Width: 572
GlyphClass: 2
Flags: W
HStem: -12 300<96 268.032> 12 276<211.968 384>
VStem: 96 288<12 288>
LayerCount: 2
Fore
SplineSet
384 288 m 1,0,-1
 384 12 l 1,1,-1
 96 -12 l 1,2,-1
 96 288 l 1,3,-1
 384 288 l 1,0,-1
EndSplineSet
EndChar

StartChar: dieresis
Encoding: 168 168 107
Width: 1053
GlyphClass: 2
Flags: W
HStem: 1248 288<143 431 623 911>
VStem: 143 288<1248 1536> 623 288<1248 1536>
LayerCount: 2
Fore
SplineSet
431 1536 m 1,0,-1
 431 1248 l 1,1,-1
 143 1248 l 1,2,-1
 143 1536 l 1,3,-1
 431 1536 l 1,0,-1
911 1536 m 1,4,-1
 911 1248 l 1,5,-1
 623 1248 l 1,6,-1
 623 1536 l 1,7,-1
 911 1536 l 1,4,-1
EndSplineSet
EndChar

StartChar: periodcentered
Encoding: 183 183 110
Width: 572
GlyphClass: 2
Flags: W
HStem: 480 288<0 288>
VStem: 0 288<480 768>
LayerCount: 2
Fore
SplineSet
288 768 m 1,0,-1
 288 480 l 1,1,-1
 0 480 l 1,2,-1
 0 768 l 1,3,-1
 288 768 l 1,0,-1
EndSplineSet
EndChar

StartChar: comma
Encoding: 44 44 111
Width: 507
GlyphClass: 2
Flags: W
HStem: 0 288<112 256>
VStem: 112 288<0 288> 256 144<-68.6678 0>
LayerCount: 2
Fore
SplineSet
400 288 m 1,0,-1
 400 0 l 2,1,2
 400 -129 400 -129 337.5 -205 c 128,-1,3
 275 -281 275 -281 160 -288 c 1,4,-1
 160 -96 l 1,5,6
 205 -96 205 -96 229.5 -69.5 c 128,-1,7
 254 -43 254 -43 256 0 c 1,8,-1
 112 0 l 1,9,-1
 112 288 l 1,10,-1
 400 288 l 1,0,-1
EndSplineSet
EndChar

StartChar: semicolon
Encoding: 59 59 112
Width: 572
GlyphClass: 2
Flags: W
HStem: -12 300<96 240> 576 288<96 384>
VStem: 96 288<-12 288 576 864> 240 144<-68.6678 0>
LayerCount: 2
Fore
SplineSet
384 288 m 1,0,-1
 384 0 l 2,1,2
 384 -129 384 -129 321.5 -205 c 128,-1,3
 259 -281 259 -281 144 -288 c 1,4,-1
 144 -96 l 1,5,6
 189 -96 189 -96 213.5 -69.5 c 128,-1,7
 238 -43 238 -43 240 0 c 1,8,-1
 96 -12 l 1,9,-1
 96 288 l 1,10,-1
 384 288 l 1,0,-1
384 864 m 1,11,-1
 384 576 l 1,12,-1
 96 576 l 1,13,-1
 96 864 l 1,14,-1
 384 864 l 1,11,-1
EndSplineSet
EndChar

StartChar: colon
Encoding: 58 58 113
Width: 572
GlyphClass: 2
Flags: W
HStem: -12 300<96 384> 576 288<96 384>
VStem: 96 288<0 288 576 864>
LayerCount: 2
Fore
SplineSet
384 288 m 1,0,-1
 384 0 l 1,1,-1
 96 -12 l 1,2,-1
 96 288 l 1,3,-1
 384 288 l 1,0,-1
384 864 m 1,4,-1
 384 576 l 1,5,-1
 96 576 l 1,6,-1
 96 864 l 1,7,-1
 384 864 l 1,4,-1
EndSplineSet
EndChar

StartChar: hyphen
Encoding: 45 45 114
Width: 572
GlyphClass: 2
Flags: W
HStem: 480 238<0 576>
VStem: 0 576<480 718>
LayerCount: 2
Fore
SplineSet
0 718 m 1,0,-1
 576 718 l 1,1,-1
 576 480 l 1,2,-1
 0 480 l 1,3,-1
 0 718 l 1,0,-1
EndSplineSet
EndChar

StartChar: quotedblbase
Encoding: 8222 8222 115
Width: 572
GlyphClass: 2
Flags: W
HStem: -288 192<144 212.729 528 596.729> 0 288<96 240 480 624>
VStem: 96 288<0 288> 240 144<-68.6678 0> 480 288<0 288> 624 144<-68.6678 0>
LayerCount: 2
Fore
SplineSet
768 288 m 1,0,-1
 768 0 l 2,1,2
 768 -129 768 -129 705.5 -205 c 128,-1,3
 643 -281 643 -281 528 -288 c 1,4,-1
 528 -96 l 1,5,6
 573 -96 573 -96 597.5 -69.5 c 128,-1,7
 622 -43 622 -43 624 0 c 1,8,-1
 480 0 l 1,9,-1
 480 288 l 1,10,-1
 768 288 l 1,0,-1
384 288 m 1,11,-1
 384 0 l 2,12,13
 384 -129 384 -129 321.5 -205 c 128,-1,14
 259 -281 259 -281 144 -288 c 1,15,-1
 144 -96 l 1,16,17
 189 -96 189 -96 213.5 -69.5 c 128,-1,18
 238 -43 238 -43 240 0 c 1,19,-1
 96 0 l 1,20,-1
 96 288 l 1,21,-1
 384 288 l 1,11,-1
EndSplineSet
EndChar

StartChar: quotedblright
Encoding: 8221 8221 116
Width: 929
GlyphClass: 2
Flags: W
HStem: 960 192<178 246.729 562 630.729> 1236 300<130 274 514 658>
VStem: 130 288<1236 1536> 274 144<1179.33 1248> 514 288<1236 1536> 658 144<1179.33 1248>
LayerCount: 2
Fore
SplineSet
802 1536 m 1,0,-1
 802 1248 l 2,1,2
 802 1119 802 1119 739.5 1043 c 128,-1,3
 677 967 677 967 562 960 c 1,4,-1
 562 1152 l 1,5,6
 607 1152 607 1152 631.5 1178.5 c 128,-1,7
 656 1205 656 1205 658 1248 c 1,8,-1
 514 1236 l 1,9,-1
 514 1536 l 1,10,-1
 802 1536 l 1,0,-1
418 1536 m 1,11,-1
 418 1248 l 2,12,13
 418 1119 418 1119 355.5 1043 c 128,-1,14
 293 967 293 967 178 960 c 1,15,-1
 178 1152 l 1,16,17
 223 1152 223 1152 247.5 1178.5 c 128,-1,18
 272 1205 272 1205 274 1248 c 1,19,-1
 130 1236 l 1,20,-1
 130 1536 l 1,21,-1
 418 1536 l 1,11,-1
EndSplineSet
EndChar

StartChar: quotedblleft
Encoding: 8220 8220 117
Width: 928
GlyphClass: 2
Flags: W
HStem: 960 288<272 416 656 800> 1344 192<299.271 368 683.271 752>
VStem: 128 288<960 1248> 128 144<1248 1316.67> 512 288<960 1248> 512 144<1248 1316.67>
LayerCount: 2
Fore
SplineSet
128 948 m 1,0,-1
 128 1248 l 2,1,2
 128 1426 128 1426 248 1500 c 0,3,4
 300 1531 300 1531 368 1536 c 1,5,-1
 368 1344 l 1,6,7
 323 1344 323 1344 298.5 1317.5 c 128,-1,8
 274 1291 274 1291 272 1248 c 1,9,-1
 416 1248 l 1,10,-1
 416 960 l 1,11,-1
 128 948 l 1,0,-1
512 948 m 1,12,-1
 512 1248 l 2,13,14
 512 1426 512 1426 632 1500 c 0,15,16
 684 1531 684 1531 752 1536 c 1,17,-1
 752 1344 l 1,18,19
 707 1344 707 1344 682.5 1317.5 c 128,-1,20
 658 1291 658 1291 656 1248 c 1,21,-1
 800 1248 l 1,22,-1
 800 960 l 1,23,-1
 512 948 l 1,12,-1
EndSplineSet
EndChar

StartChar: quoteleft
Encoding: 8216 8216 118
Width: 562
GlyphClass: 2
Flags: W
HStem: 918 330<255 448> 1344 192<299.225 400>
VStem: 111 337<930 1248>
LayerCount: 2
Fore
SplineSet
111 918 m 1,0,-1
 111 1248 l 2,1,2
 111 1425 111 1425 255 1500 c 0,3,4
 318 1532 318 1532 400 1536 c 1,5,-1
 400 1344 l 1,6,7
 337 1344 337 1344 298 1320.5 c 128,-1,8
 259 1297 259 1297 255 1248 c 1,9,-1
 448 1248 l 1,10,-1
 448 930 l 1,11,-1
 111 918 l 1,0,-1
EndSplineSet
EndChar

StartChar: quoteright
Encoding: 8217 8217 119
Width: 508
GlyphClass: 2
Flags: W
HStem: 1236 300<113 257>
VStem: 113 288<1236 1536> 257 144<1179.33 1248>
LayerCount: 2
Fore
SplineSet
401 1536 m 1,0,-1
 401 1248 l 2,1,2
 401 1119 401 1119 338.5 1043 c 128,-1,3
 276 967 276 967 161 960 c 1,4,-1
 161 1152 l 1,5,6
 206 1152 206 1152 230.5 1178.5 c 128,-1,7
 255 1205 255 1205 257 1248 c 1,8,-1
 113 1236 l 1,9,-1
 113 1536 l 1,10,-1
 401 1536 l 1,0,-1
EndSplineSet
EndChar

StartChar: minus
Encoding: 8722 8722 120
Width: 861
GlyphClass: 2
Flags: W
HStem: 480 238<143 719>
VStem: 143 576<480 718>
LayerCount: 2
Fore
SplineSet
143 718 m 1,0,-1
 719 718 l 1,1,-1
 719 480 l 1,2,-1
 143 480 l 1,3,-1
 143 718 l 1,0,-1
EndSplineSet
EndChar

StartChar: logicalnot
Encoding: 172 172 121
Width: 757
GlyphClass: 2
Flags: W
HStem: 480 238<39 471>
VStem: 471 144<288 480>
LayerCount: 2
Fore
SplineSet
39 718 m 1,0,-1
 615 718 l 1,1,-1
 615 288 l 1,2,-1
 471 288 l 1,3,-1
 471 480 l 1,4,-1
 39 480 l 1,5,-1
 39 718 l 1,0,-1
EndSplineSet
EndChar

StartChar: brokenbar
Encoding: 166 166 122
Width: 588
GlyphClass: 2
Flags: W
VStem: 145 300<-96 576 960 1632>
LayerCount: 2
Fore
SplineSet
145 576 m 1,0,-1
 445 576 l 1,1,-1
 445 -96 l 1,2,-1
 145 -96 l 1,3,-1
 145 576 l 1,0,-1
145 1632 m 1,4,-1
 445 1632 l 1,5,-1
 445 960 l 1,6,-1
 145 960 l 1,7,-1
 145 1632 l 1,4,-1
EndSplineSet
EndChar

StartChar: bracketleft
Encoding: 91 91 126
Width: 588
GlyphClass: 2
Flags: W
HStem: -96 191<480 672> 1440 192<480 672>
VStem: 180 492<-96 95 1440 1632> 180 300<95 1440>
LayerCount: 2
Fore
SplineSet
180 1632 m 1,0,-1
 672 1632 l 1,1,-1
 672 1440 l 1,2,-1
 480 1440 l 1,3,-1
 480 95 l 1,4,-1
 672 95 l 1,5,-1
 672 -96 l 1,6,-1
 180 -96 l 1,7,-1
 180 1632 l 1,0,-1
EndSplineSet
EndChar

StartChar: bracketright
Encoding: 93 93 127
Width: 588
GlyphClass: 2
Flags: W
HStem: -96 191<180 372> 1440 192<180 372>
VStem: 180 492<-96 95 1440 1632> 372 300<95 1440>
LayerCount: 2
Fore
SplineSet
672 -96 m 1,0,-1
 180 -96 l 1,1,-1
 180 95 l 1,2,-1
 372 95 l 1,3,-1
 372 1440 l 1,4,-1
 180 1440 l 1,5,-1
 180 1632 l 1,6,-1
 672 1632 l 1,7,-1
 672 -96 l 1,0,-1
EndSplineSet
EndChar

StartChar: backslash
Encoding: 92 92 128
Width: 622
GlyphClass: 2
Flags: W
HStem: 0 21G<259.383 562> 1516 20G<61 363.617>
VStem: 61 300<1236 1536> 262 300<0 300>
DStem2: 361 1536 61 1536 0.129753 -0.991546<0 1510.17>
LayerCount: 2
Fore
SplineSet
562 0 m 1,0,-1
 262 0 l 1,1,-1
 61 1536 l 1,2,-1
 361 1536 l 1,3,-1
 562 0 l 1,0,-1
EndSplineSet
EndChar

StartChar: hungarumlaut
Encoding: 733 733 129
Width: 1165
GlyphClass: 2
Flags: W
HStem: 1150 578
LayerCount: 2
Fore
SplineSet
591 1248 m 1,0,-1
 860 1728 l 1,1,-1
 1094 1534 l 1,2,-1
 710 1150 l 1,3,-1
 591 1248 l 1,0,-1
88 1248 m 1,4,-1
 357 1728 l 1,5,-1
 591 1534 l 1,6,-1
 207 1150 l 1,7,-1
 88 1248 l 1,4,-1
EndSplineSet
EndChar

StartChar: degree
Encoding: 176 176 131
Width: 1073
GlyphClass: 2
Flags: W
HStem: 387 192<420.775 636.84> 959 192<419.645 637.598>
VStem: 136 248<622.452 916.084> 671 249<620.025 917.596>
LayerCount: 2
Fore
SplineSet
136 769 m 0,0,1
 136 904 136 904 195.5 992 c 128,-1,2
 255 1080 255 1080 361 1122 c 1,3,4
 439 1151 439 1151 537 1151 c 0,5,6
 675 1151 675 1151 765.5 1090.5 c 128,-1,7
 856 1030 856 1030 895 921 c 0,8,9
 920 853 920 853 920 769 c 0,10,11
 920 635 920 635 862.5 546.5 c 128,-1,12
 805 458 805 458 702 416 c 1,13,14
 627 387 627 387 537 387 c 0,15,16
 348 387 348 387 242 487 c 256,17,18
 136 587 136 587 136 769 c 0,0,1
536 579 m 0,19,20
 612 579 612 579 641.5 629 c 128,-1,21
 671 679 671 679 671 769 c 256,22,23
 671 859 671 859 641.5 909 c 128,-1,24
 612 959 612 959 536 959 c 0,25,26
 451 959 451 959 417.5 911 c 128,-1,27
 384 863 384 863 384 769 c 256,28,29
 384 675 384 675 417.5 627 c 128,-1,30
 451 579 451 579 536 579 c 0,19,20
EndSplineSet
EndChar

StartChar: currency
Encoding: 164 164 134
Width: 1290
GlyphClass: 2
Flags: W
HStem: 482 216<511.008 777.075> 1127 216<510.272 778.151>
VStem: 213 240<756.3 1069.94> 835 240<754.991 1069.75>
DStem2: 220 1387 125 1278 0.75095 -0.660359<0.638903 201.744 1063.52 1258.41> 125 556 220 447 0.75095 0.660359<0 193.559 1055.26 1257.77>
LayerCount: 2
Fore
SplineSet
358 568 m 1,0,-1
 220 447 l 1,1,-1
 125 556 l 1,2,-1
 265 679 l 1,3,4
 213 777 213 777 213 912 c 0,5,6
 213 1050 213 1050 269 1151 c 1,7,-1
 125 1278 l 1,8,-1
 220 1387 l 1,9,-1
 363 1261 l 1,10,11
 472 1343 472 1343 645 1343 c 0,12,13
 816 1343 816 1343 926 1260 c 1,14,-1
 1070 1387 l 1,15,-1
 1165 1278 l 1,16,-1
 1020 1150 l 1,17,18
 1075 1050 1075 1050 1075 912 c 0,19,20
 1075 778 1075 778 1023 680 c 1,21,-1
 1165 556 l 1,22,-1
 1070 447 l 1,23,-1
 931 569 l 1,24,25
 820 482 820 482 644 482 c 256,26,27
 468 482 468 482 358 568 c 1,0,-1
644 698 m 256,28,29
 835 698 835 698 835 912 c 0,30,31
 835 1127 835 1127 644 1127 c 256,32,33
 453 1127 453 1127 453 912 c 0,34,35
 453 698 453 698 644 698 c 256,28,29
EndSplineSet
EndChar

StartChar: cent
Encoding: 162 162 135
Width: 999
GlyphClass: 2
Flags: W
VStem: 68 289<318.811 848.949> 455 139<-192 -19.4521 252 918 1153.87 1344>
LayerCount: 2
Fore
SplineSet
937 405 m 1,0,1
 927 330 927 330 913 272.5 c 128,-1,2
 899 215 899 215 873 159 c 1,3,4
 837 77 837 77 771 31 c 128,-1,5
 705 -15 705 -15 594 -25 c 1,6,-1
 594 -192 l 1,7,-1
 455 -192 l 1,8,-1
 455 -16 l 1,9,10
 313 12 313 12 221 115 c 0,11,12
 129 219 129 219 92 368 c 0,13,14
 68 464 68 464 68 566 c 0,15,16
 68 653 68 653 82 731.5 c 128,-1,17
 96 810 96 810 123.5 877 c 128,-1,18
 151 944 151 944 190.5 998.5 c 128,-1,19
 230 1053 230 1053 281 1092 c 0,20,21
 355 1148 355 1148 455 1162 c 1,22,-1
 455 1344 l 1,23,-1
 594 1344 l 1,24,-1
 594 1161 l 1,25,26
 712 1143 712 1143 794 1076 c 128,-1,27
 876 1009 876 1009 915 904 c 0,28,29
 941 832 941 832 944 754 c 1,30,-1
 671 742 l 1,31,32
 650 877 650 877 594 918 c 1,33,-1
 594 218 l 1,34,35
 686 238 686 238 697 432 c 1,36,-1
 937 405 l 1,0,1
455 920 m 1,37,38
 396 882 396 882 376.5 794 c 128,-1,39
 357 706 357 706 357 576 c 0,40,41
 357 326 357 326 455 252 c 1,42,-1
 455 920 l 1,37,38
EndSplineSet
EndChar

StartChar: plusminus
Encoding: 177 177 138
Width: 868
GlyphClass: 2
Flags: W
HStem: 1 238<143 719> 576 238<76 316 554 794>
VStem: 316 238<336 576 814 1054>
LayerCount: 2
Fore
SplineSet
554 576 m 1,0,-1
 554 336 l 1,1,-1
 316 336 l 1,2,-1
 316 576 l 1,3,-1
 76 576 l 1,4,-1
 76 814 l 1,5,-1
 316 814 l 1,6,-1
 316 1054 l 1,7,-1
 554 1054 l 1,8,-1
 554 814 l 1,9,-1
 794 814 l 1,10,-1
 794 576 l 1,11,-1
 554 576 l 1,0,-1
143 239 m 1,12,-1
 719 239 l 1,13,-1
 719 1 l 1,14,-1
 143 1 l 1,15,-1
 143 239 l 1,12,-1
EndSplineSet
EndChar

StartChar: bullet
Encoding: 8226 8226 139
Width: 1073
GlyphClass: 2
Flags: W
HStem: 385 671<287.706 660.082>
VStem: 136 673<534.463 906.251>
LayerCount: 2
Fore
SplineSet
136 720 m 0,0,1
 136 879 136 879 227 967 c 0,2,3
 319 1056 319 1056 480 1056 c 0,4,5
 634 1056 634 1056 721 965 c 1,6,7
 809 876 809 876 809 720 c 0,8,9
 809 603 809 603 759.5 524.5 c 128,-1,10
 710 446 710 446 622 410 c 0,11,12
 563 385 563 385 480 385 c 0,13,14
 399 385 399 385 335 407.5 c 128,-1,15
 271 430 271 430 227 473 c 128,-1,16
 183 516 183 516 159.5 578 c 128,-1,17
 136 640 136 640 136 720 c 0,0,1
EndSplineSet
EndChar

StartChar: copyright
Encoding: 169 169 140
Width: 1484
GlyphClass: 2
Flags: W
HStem: 0 133<538.462 945.467> 242 149<678.834 836.418> 944 162<667.821 813.333> 1213 133<538.462 947.961>
VStem: 98 133<453.162 894.073> 435 198<441.474 912.461> 847 191<763 915.14> 871 168<420.795 582> 1254 133<448.74 895.789>
LayerCount: 2
Fore
SplineSet
764 391 m 0,0,1
 826 391 826 391 849 464 c 0,2,3
 860 499 860 499 864.5 528.5 c 128,-1,4
 869 558 869 558 871 598 c 1,5,-1
 1039 582 l 1,6,7
 1039 470 1039 470 997.5 389.5 c 128,-1,8
 956 309 956 309 878 270 c 1,9,10
 826 242 826 242 751 242 c 0,11,12
 685 242 685 242 632.5 266 c 128,-1,13
 580 290 580 290 545 332 c 256,14,15
 510 374 510 374 487.5 423.5 c 128,-1,16
 465 473 465 473 452 533 c 0,17,18
 435 618 435 618 435 689 c 0,19,20
 435 763 435 763 449 827 c 128,-1,21
 463 891 463 891 490.5 942.5 c 128,-1,22
 518 994 518 994 558 1031 c 128,-1,23
 598 1068 598 1068 650 1088 c 0,24,25
 696 1106 696 1106 756 1106 c 0,26,27
 857 1106 857 1106 923 1043 c 1,28,29
 990 981 990 981 1019 887 c 1,30,31
 1038 829 1038 829 1038 763 c 1,32,-1
 847 755 l 1,33,34
 847 812 847 812 831.5 860 c 128,-1,35
 816 908 816 908 786 931 c 0,36,37
 770 944 770 944 744 944 c 0,38,39
 714 944 714 944 692.5 926.5 c 128,-1,40
 671 909 671 909 660 885 c 0,41,42
 650 861 650 861 642 823 c 1,43,44
 636 785 636 785 634.5 756 c 128,-1,45
 633 727 633 727 633 689 c 0,46,47
 633 669 633 669 633 652 c 128,-1,48
 633 635 633 635 634 621 c 0,49,50
 634 607 634 607 635.5 590 c 128,-1,51
 637 573 637 573 639 555.5 c 128,-1,52
 641 538 641 538 644 521 c 128,-1,53
 647 504 647 504 651 491 c 0,54,55
 665 449 665 449 690.5 420 c 128,-1,56
 716 391 716 391 764 391 c 0,0,1
231 673 m 0,57,58
 231 451 231 451 382 291 c 1,59,60
 534 133 534 133 743 133 c 0,61,62
 854 133 854 133 945.5 177 c 128,-1,63
 1037 221 1037 221 1104 291 c 0,64,65
 1254 448 1254 448 1254 673 c 0,66,67
 1254 896 1254 896 1104 1055 c 0,68,69
 955 1213 955 1213 743 1213 c 0,70,71
 534 1213 534 1213 382 1055 c 0,72,73
 231 898 231 898 231 673 c 0,57,58
98 673 m 0,74,75
 98 955 98 955 287 1149 c 0,76,77
 478 1346 478 1346 743 1346 c 0,78,79
 1007 1346 1007 1346 1198 1149 c 1,80,81
 1387 952 1387 952 1387 673 c 0,82,83
 1387 390 1387 390 1198 197 c 1,84,85
 1007 0 1007 0 743 0 c 0,86,87
 478 0 478 0 287 197 c 0,88,89
 98 393 98 393 98 673 c 0,74,75
EndSplineSet
EndChar

StartChar: registered
Encoding: 174 174 141
Width: 1484
GlyphClass: 2
Flags: W
HStem: 0 133<538.462 945.467> 591 140<711 895.29> 936 157.5<711 896.781> 1213 133<538.462 947.961>
VStem: 98 133<453.162 894.073> 512 197<233 591 731 936> 913 197<753.079 917.013> 1254 133<448.74 895.789>
LayerCount: 2
Fore
SplineSet
231 673 m 0,0,1
 231 451 231 451 382 291 c 1,2,3
 534 133 534 133 743 133 c 0,4,5
 854 133 854 133 945.5 177 c 128,-1,6
 1037 221 1037 221 1104 291 c 0,7,8
 1254 448 1254 448 1254 673 c 0,9,10
 1254 896 1254 896 1104 1055 c 0,11,12
 955 1213 955 1213 743 1213 c 0,13,14
 534 1213 534 1213 382 1055 c 0,15,16
 231 898 231 898 231 673 c 0,0,1
98 673 m 0,17,18
 98 955 98 955 287 1149 c 0,19,20
 478 1346 478 1346 743 1346 c 0,21,22
 1007 1346 1007 1346 1198 1149 c 1,23,24
 1387 952 1387 952 1387 673 c 0,25,26
 1387 390 1387 390 1198 197 c 1,27,28
 1007 0 1007 0 743 0 c 0,29,30
 478 0 478 0 287 197 c 0,31,32
 98 393 98 393 98 673 c 0,17,18
1110 831 m 0,33,34
 1110 770 1110 770 1087.5 726 c 128,-1,35
 1065 682 1065 682 1029 656 c 0,36,37
 1012 643 1012 643 989.5 633 c 128,-1,38
 967 623 967 623 939 615 c 0,39,40
 885 600 885 600 832 595.5 c 128,-1,41
 779 591 779 591 709 591 c 1,42,-1
 709 233 l 1,43,-1
 512 233 l 1,44,-1
 512 1094 l 1,45,-1
 638 1094 l 2,46,47
 670 1094 670 1094 696.5 1093.5 c 128,-1,48
 723 1093 723 1093 744 1092 c 256,49,50
 765 1091 765 1091 789 1089.5 c 128,-1,51
 813 1088 813 1088 840 1085 c 0,52,53
 895 1080 895 1080 930 1070 c 256,54,55
 965 1060 965 1060 1002.5 1040.5 c 128,-1,56
 1040 1021 1040 1021 1061 993 c 0,57,58
 1082 966 1082 966 1096 925.5 c 128,-1,59
 1110 885 1110 885 1110 831 c 0,33,34
913 832 m 0,60,61
 913 860 913 860 903.5 879.5 c 128,-1,62
 894 899 894 899 880 910 c 256,63,64
 866 921 866 921 841 927 c 0,65,66
 817 933 817 933 794.5 934.5 c 128,-1,67
 772 936 772 936 739 936 c 2,68,-1
 711 936 l 1,69,-1
 711 731 l 1,70,-1
 744 731 l 2,71,72
 793 731 793 731 828 737 c 1,73,74
 862 744 862 744 887.5 767 c 128,-1,75
 913 790 913 790 913 832 c 0,60,61
EndSplineSet
EndChar

StartChar: florin
Encoding: 402 402 142
Width: 754
GlyphClass: 2
Flags: W
HStem: -394 202<7.83179 170.629> -364 172<6 170.629> 627 237<57 199 487 678> 1344 202<515.371 677.861> 1344 172<515.828 680>
VStem: 199 288<-147.646 627 864 1299.65>
LayerCount: 2
Fore
SplineSet
617 1344 m 2,0,1
 542 1344 542 1344 514.5 1301 c 128,-1,2
 487 1258 487 1258 487 1173 c 2,3,-1
 487 864 l 1,4,-1
 678 864 l 1,5,-1
 678 627 l 1,6,-1
 487 627 l 1,7,-1
 487 -22 l 2,8,9
 487 -205 487 -205 448 -278 c 0,10,11
 386 -394 386 -394 201 -394 c 0,12,13
 64 -394 64 -394 6 -364 c 1,14,-1
 6 -192 l 1,15,-1
 69 -192 l 2,16,17
 144 -192 144 -192 171.5 -149 c 128,-1,18
 199 -106 199 -106 199 -21 c 2,19,-1
 199 629 l 1,20,-1
 57 629 l 1,21,-1
 57 864 l 1,22,-1
 199 864 l 1,23,-1
 199 1174 l 2,24,25
 199 1356 199 1356 238 1430 c 0,26,27
 300 1546 300 1546 485 1546 c 0,28,29
 612 1546 612 1546 680 1516 c 1,30,-1
 680 1344 l 1,31,-1
 617 1344 l 2,0,1
EndSplineSet
EndChar

StartChar: ae
Encoding: 230 230 143
Width: 1576
GlyphClass: 2
Flags: W
HStem: -27 212<421.976 584.499 978.652 1125.79> 536 166<910 1185> 568 172<472.201 622> 956 211<460.923 603.731 965.87 1142.98>
VStem: 115 282<211.272 493.812> 622 288<271.453 536 736.781 893.317> 1185 283<702 878.786>
LayerCount: 2
Fore
SplineSet
1468 570 m 1,0,1
 1460 541 1460 541 1460 536 c 1,2,-1
 910 536 l 1,3,4
 910 315 910 315 984 220 c 0,5,6
 1011 185 1011 185 1050 185 c 0,7,8
 1107 185 1107 185 1161 273 c 0,9,10
 1165 278 1165 278 1210 373 c 1,11,-1
 1428 290 l 1,12,13
 1336 -27 1336 -27 1045 -27 c 0,14,15
 879 -27 879 -27 774 144 c 1,16,17
 685 -27 685 -27 426 -27 c 0,18,19
 315 -27 315 -27 243 31.5 c 128,-1,20
 171 90 171 90 138 186 c 0,21,22
 115 253 115 253 115 327 c 0,23,24
 115 412 115 412 142 480 c 128,-1,25
 169 548 169 548 214 594 c 1,26,27
 286 664 286 664 392 698.5 c 128,-1,28
 498 733 498 733 622 740 c 1,29,30
 622 852 622 852 613 887 c 0,31,32
 596 956 596 956 539 956 c 0,33,34
 451 956 451 956 435 826 c 1,35,-1
 155 875 l 1,36,37
 173 1019 173 1019 273.5 1093 c 128,-1,38
 374 1167 374 1167 539 1167 c 0,39,40
 692 1167 692 1167 784 1032 c 1,41,42
 901 1167 901 1167 1055 1167 c 0,43,44
 1255 1167 1255 1167 1364 1001 c 0,45,46
 1468 843 1468 843 1468 570 c 1,0,1
622 568 m 1,47,48
 397 568 397 568 397 331 c 0,49,50
 397 262 397 262 424 220.5 c 128,-1,51
 451 179 451 179 511 179 c 0,52,53
 548 179 548 179 574 214 c 0,54,55
 601 249 601 249 611.5 293 c 128,-1,56
 622 337 622 337 622 382 c 2,57,-1
 622 568 l 1,47,48
1185 702 m 1,58,59
 1185 890 1185 890 1112 948 c 0,60,61
 1086 969 1086 969 1050 969 c 0,62,63
 996 969 996 969 956 896 c 0,64,65
 912 817 912 817 910 713 c 1,66,-1
 910 702 l 1,67,-1
 1185 702 l 1,58,59
EndSplineSet
EndChar

StartChar: paragraph
Encoding: 182 182 144
Width: 1218
GlyphClass: 2
Flags: W
HStem: 0 21G<357 589 741 973> 1288 248<973 1117>
VStem: 69 904<959.18 1286.84> 357 232<0 770> 741 232<0 764>
LayerCount: 2
Fore
SplineSet
357 801 m 1,0,1
 222 838 222 838 145 918 c 0,2,3
 69 998 69 998 69 1145 c 0,4,5
 69 1209 69 1209 85 1261.5 c 128,-1,6
 101 1314 101 1314 123 1352 c 0,7,8
 145 1389 145 1389 190 1420 c 0,9,10
 213 1435 213 1435 233 1447 c 128,-1,11
 253 1459 253 1459 271 1469 c 0,12,13
 290 1479 290 1479 315.5 1486.5 c 128,-1,14
 341 1494 341 1494 374 1501 c 0,15,16
 408 1508 408 1508 435.5 1513 c 128,-1,17
 463 1518 463 1518 485 1521 c 0,18,19
 507 1525 507 1525 538 1527 c 128,-1,20
 569 1529 569 1529 609 1531 c 0,21,22
 650 1533 650 1533 681 1534 c 128,-1,23
 712 1535 712 1535 734 1535 c 0,24,25
 757 1536 757 1536 789.5 1536 c 128,-1,26
 822 1536 822 1536 866 1536 c 2,27,-1
 881 1536 l 1,28,-1
 1117 1536 l 1,29,-1
 1117 1288 l 1,30,-1
 973 1288 l 1,31,-1
 973 0 l 1,32,-1
 741 0 l 1,33,-1
 741 764 l 1,34,35
 649 764 649 764 589 770 c 1,36,-1
 589 0 l 1,37,-1
 357 0 l 1,38,-1
 357 801 l 1,0,1
EndSplineSet
EndChar

StartChar: question
Encoding: 63 63 145
Width: 917
GlyphClass: 2
Flags: W
HStem: -12 300<202 490> 1318 228<401.564 544.561>
VStem: 82 274<1133 1288.4> 202 288<0 288> 227 240<384 567.656> 579 289<943.739 1285.57>
LayerCount: 2
Fore
SplineSet
579 1105 m 0,0,1
 579 1318 579 1318 463 1318 c 0,2,3
 433 1318 433 1318 413 1303 c 128,-1,4
 393 1288 393 1288 381 1253 c 0,5,6
 370 1218 370 1218 366 1199 c 1,7,-1
 357 1135 l 2,8,9
 356 1130 356 1130 356 1126.5 c 128,-1,10
 356 1123 356 1123 355 1121 c 1,11,-1
 82 1133 l 1,12,13
 86 1273 86 1273 148 1372 c 128,-1,14
 210 1471 210 1471 316 1516 c 0,15,16
 386 1546 386 1546 470 1546 c 0,17,18
 618 1546 618 1546 712 1467 c 0,19,20
 807 1387 807 1387 844 1258 c 0,21,22
 868 1177 868 1177 868 1095 c 0,23,24
 868 864 868 864 741 762 c 0,25,26
 733 755 733 755 696.5 729 c 128,-1,27
 660 703 660 703 594 658 c 0,28,29
 467 573 467 573 467 396 c 2,30,-1
 467 384 l 1,31,-1
 227 384 l 1,32,33
 201 660 201 660 316 770 c 0,34,35
 339 792 339 792 373 816 c 128,-1,36
 407 840 407 840 454 868 c 0,37,38
 579 940 579 940 579 1105 c 0,0,1
490 288 m 1,39,-1
 490 0 l 1,40,-1
 202 -12 l 1,41,-1
 202 288 l 1,42,-1
 490 288 l 1,39,-1
EndSplineSet
EndChar

StartChar: breve
Encoding: 728 728 146
Width: 1062
GlyphClass: 2
Flags: W
HStem: 1248 240<392.575 670.117>
VStem: 99 240<1543.37 1728> 723 240<1542.43 1728>
LayerCount: 2
Fore
SplineSet
339 1728 m 1,0,1
 339 1608 339 1608 380 1547 c 1,2,3
 422 1488 422 1488 531 1488 c 0,4,5
 708 1488 708 1488 720 1650 c 0,6,7
 723 1692 723 1692 723 1728 c 1,8,-1
 963 1728 l 1,9,10
 963 1556 963 1556 887 1437 c 0,11,12
 810 1317 810 1317 679 1271 c 0,13,14
 612 1248 612 1248 531 1248 c 0,15,16
 454 1248 454 1248 392 1267 c 128,-1,17
 330 1286 330 1286 281 1322 c 128,-1,18
 232 1358 232 1358 196 1408.5 c 128,-1,19
 160 1459 160 1459 136 1522 c 0,20,21
 99 1618 99 1618 99 1728 c 1,22,-1
 339 1728 l 1,0,1
EndSplineSet
EndChar

StartChar: ogonek
Encoding: 731 731 147
Width: 603
GlyphClass: 2
Flags: W
HStem: -385 194<313.818 514.707>
VStem: 104 206<-240.5 -73.5703>
LayerCount: 2
Fore
SplineSet
538 -321 m 1,0,1
 510 -351 510 -351 455.5 -368 c 128,-1,2
 401 -385 401 -385 340 -385 c 0,3,4
 183 -385 183 -385 125 -294 c 1,5,6
 104 -263 104 -263 104 -218 c 0,7,8
 104 -191 104 -191 121 -148 c 1,9,-1
 183 20 l 1,10,-1
 345 20 l 1,11,-1
 315 -101 l 2,12,13
 310 -123 310 -123 310 -130 c 0,14,15
 310 -191 310 -191 389 -191 c 0,16,17
 460 -191 460 -191 538 -156 c 1,18,-1
 538 -321 l 1,0,1
EndSplineSet
EndChar

StartChar: cedilla
Encoding: 184 184 148
Width: 610
GlyphClass: 2
Flags: W
HStem: -556 193<130.267 328.604> -171 219<185 277.183>
VStem: 185 152<-11.2555 48> 337 206<-347.668 -208.059>
LayerCount: 2
Fore
SplineSet
241 -363 m 0,0,1
 286 -363 286 -363 311.5 -344 c 128,-1,2
 337 -325 337 -325 337 -289 c 0,3,4
 337 -230 337 -230 279 -200 c 0,5,6
 221 -171 221 -171 145 -171 c 1,7,-1
 185 48 l 1,8,-1
 337 48 l 1,9,-1
 307 -76 l 1,10,11
 497 -130 497 -130 536 -282 c 0,12,13
 543 -309 543 -309 543 -339 c 0,14,15
 543 -444 543 -444 486.5 -500 c 128,-1,16
 430 -556 430 -556 327 -556 c 0,17,18
 261 -556 261 -556 200 -538.5 c 128,-1,19
 139 -521 139 -521 97 -492 c 1,20,-1
 97 -327 l 1,21,22
 176 -363 176 -363 241 -363 c 0,0,1
EndSplineSet
EndChar

StartChar: dagger
Encoding: 8224 8224 151
Width: 588
GlyphClass: 2
Flags: W
HStem: 960 192<-84 120 360 564>
VStem: 120 240<192 960 1152 1428>
LayerCount: 2
Fore
SplineSet
120 1152 m 1,0,-1
 120 1428 l 1,1,-1
 360 1440 l 1,2,-1
 360 1152 l 1,3,-1
 576 1152 l 1,4,-1
 564 960 l 1,5,-1
 360 960 l 1,6,-1
 360 192 l 1,7,-1
 120 180 l 1,8,-1
 120 960 l 1,9,-1
 -96 960 l 1,10,-1
 -84 1152 l 1,11,-1
 120 1152 l 1,0,-1
EndSplineSet
EndChar

StartChar: daggerdbl
Encoding: 8225 8225 152
Width: 588
GlyphClass: 2
Flags: W
HStem: 480 192<-84 120 360 564> 960 192<-84 120 360 564>
VStem: 120 240<192 480 672 960 1152 1428>
LayerCount: 2
Fore
SplineSet
120 1152 m 1,0,-1
 120 1428 l 1,1,-1
 360 1440 l 1,2,-1
 360 1152 l 1,3,-1
 576 1152 l 1,4,-1
 564 960 l 1,5,-1
 360 960 l 1,6,-1
 360 672 l 1,7,-1
 576 672 l 1,8,-1
 564 480 l 1,9,-1
 360 480 l 1,10,-1
 360 192 l 1,11,-1
 120 180 l 1,12,-1
 120 480 l 1,13,-1
 -96 480 l 1,14,-1
 -84 672 l 1,15,-1
 120 672 l 1,16,-1
 120 960 l 1,17,-1
 -96 960 l 1,18,-1
 -84 1152 l 1,19,-1
 120 1152 l 1,0,-1
EndSplineSet
EndChar

StartChar: sterling
Encoding: 163 163 153
Width: 980
GlyphClass: 2
Flags: W
HStem: -12 31G<195.5 246.5 796 863> 97 225<456.13 750.993> 636 191<125 230 574 721> 1331 233<445.798 602.698>
VStem: 130 294<997.633 1302.29> 265.5 308.5<426.49 636>
LayerCount: 2
Fore
SplineSet
596 322 m 0,0,1
 721 322 721 322 863 231 c 1,2,-1
 863 10 l 1,3,-1
 821 -2 l 1,4,5
 771 46 771 46 716 71.5 c 128,-1,6
 661 97 661 97 583 97 c 0,7,8
 562 97 562 97 540.5 94 c 128,-1,9
 519 91 519 91 498.5 86.5 c 128,-1,10
 478 82 478 82 460.5 76.5 c 128,-1,11
 443 71 443 71 431 66 c 0,12,13
 406 56 406 56 360 33 c 2,14,-1
 302 5 l 1,15,16
 262 -12 262 -12 231 -12 c 0,17,18
 160 -12 160 -12 117 36 c 1,19,-1
 117 226 l 1,20,21
 266 274 266 274 266 591 c 0,22,23
 266 602 266 602 265.5 613.5 c 128,-1,24
 265 625 265 625 265 636 c 1,25,-1
 125 636 l 1,26,-1
 125 827 l 1,27,-1
 230 827 l 1,28,29
 225 846 225 846 214 879.5 c 128,-1,30
 203 913 203 913 186 964 c 256,31,32
 169 1015 169 1015 158 1054 c 128,-1,33
 147 1093 147 1093 140 1121 c 0,34,35
 130 1160 130 1160 130 1199 c 0,36,37
 130 1360 130 1360 248 1466 c 0,38,39
 358 1564 358 1564 502 1564 c 0,40,41
 616 1564 616 1564 696 1515.5 c 128,-1,42
 776 1467 776 1467 824 1382 c 1,43,44
 859 1316 859 1316 871 1233 c 1,45,-1
 639 1145 l 1,46,47
 639 1187 639 1187 631.5 1221 c 128,-1,48
 624 1255 624 1255 608.5 1279.5 c 128,-1,49
 593 1304 593 1304 570 1317.5 c 128,-1,50
 547 1331 547 1331 516 1331 c 0,51,52
 468 1331 468 1331 446 1289.5 c 128,-1,53
 424 1248 424 1248 424 1179 c 0,54,55
 424 1164 424 1164 425.5 1148 c 128,-1,56
 427 1132 427 1132 428 1119 c 0,57,58
 429 1105 429 1105 434 1089 c 0,59,60
 438 1073 438 1073 440.5 1063 c 128,-1,61
 443 1053 443 1053 449 1035 c 0,62,63
 452 1026 452 1026 454 1020.5 c 128,-1,64
 456 1015 456 1015 457.5 1009.5 c 128,-1,65
 459 1004 459 1004 461.5 998 c 128,-1,66
 464 992 464 992 468 983 c 2,67,-1
 478 960 l 1,68,-1
 488 935 l 1,69,-1
 499 912 l 1,70,71
 512 882 512 882 520.5 861 c 128,-1,72
 529 840 529 840 534 827 c 1,73,-1
 721 827 l 1,74,-1
 721 636 l 1,75,-1
 574 636 l 1,76,-1
 574 632 l 2,77,78
 574 561 574 561 548 474 c 0,79,80
 522 390 522 390 455 288 c 1,81,82
 522 322 522 322 596 322 c 0,0,1
EndSplineSet
EndChar

StartChar: ellipsis
Encoding: 8230 8230 155
Width: 1716
GlyphClass: 2
Flags: W
HStem: -12 300<96 268.032 668 840.032 1240 1412.03> 12 276<211.968 384 783.968 956 1355.97 1528>
VStem: 96 288<12 288> 668 288<12 288> 1240 288<12 288>
CounterMasks: 1 38
LayerCount: 2
Fore
SplineSet
384 288 m 1,0,-1
 384 12 l 1,1,-1
 96 -12 l 1,2,-1
 96 288 l 1,3,-1
 384 288 l 1,0,-1
956 288 m 1,4,-1
 956 12 l 1,5,-1
 668 -12 l 1,6,-1
 668 288 l 1,7,-1
 956 288 l 1,4,-1
1528 288 m 1,8,-1
 1528 12 l 1,9,-1
 1240 -12 l 1,10,-1
 1240 288 l 1,11,-1
 1528 288 l 1,8,-1
EndSplineSet
EndChar

StartChar: quotesinglbase
Encoding: 8218 8218 156
Width: 572
GlyphClass: 2
Flags: W
HStem: 0 288<96 240>
VStem: 96 288<0 288> 240 144<-68.6678 0>
LayerCount: 2
Fore
SplineSet
384 288 m 1,0,-1
 384 0 l 2,1,2
 384 -129 384 -129 321.5 -205 c 128,-1,3
 259 -281 259 -281 144 -288 c 1,4,-1
 144 -96 l 1,5,6
 189 -96 189 -96 213.5 -69.5 c 128,-1,7
 238 -43 238 -43 240 0 c 1,8,-1
 96 0 l 1,9,-1
 96 288 l 1,10,-1
 384 288 l 1,0,-1
EndSplineSet
EndChar

StartChar: at
Encoding: 64 64 157
Width: 1605
GlyphClass: 2
Flags: W
HStem: -32 183<581.111 1046.7> 324 187<751.601 903.248> 348 121<1184.7 1320.09> 911 157<752.621 909.922> 1258 194<626.469 1095.48>
VStem: 83 224<432.38 912.406> 482 234<544.616 860.775> 952 223<548.734 882.146> 1364 190<529.505 1002.95>
LayerCount: 2
Fore
SplineSet
1175 581 m 2,0,1
 1175 469 1175 469 1238 469 c 1,2,3
 1261 467 1261 467 1278.5 476 c 128,-1,4
 1296 485 1296 485 1309.5 500 c 128,-1,5
 1323 515 1323 515 1332 535 c 128,-1,6
 1341 555 1341 555 1347 575 c 0,7,8
 1351 589 1351 589 1353.5 605.5 c 128,-1,9
 1356 622 1356 622 1358 642 c 256,10,11
 1360 662 1360 662 1361 679 c 128,-1,12
 1362 696 1362 696 1363 709 c 256,13,14
 1364 722 1364 722 1364 738.5 c 128,-1,15
 1364 755 1364 755 1364 775 c 0,16,17
 1364 1008 1364 1008 1226 1133 c 0,18,19
 1087 1258 1087 1258 846 1258 c 0,20,21
 752 1258 752 1258 677 1234 c 128,-1,22
 602 1210 602 1210 543.5 1168.5 c 128,-1,23
 485 1127 485 1127 441.5 1070.5 c 128,-1,24
 398 1014 398 1014 368 950 c 0,25,26
 307 819 307 819 307 671 c 0,27,28
 307 499 307 499 379 377 c 128,-1,29
 451 255 451 255 578 195 c 1,30,31
 674 151 674 151 797 151 c 0,32,33
 892 151 892 151 997 180 c 0,34,35
 1051 195 1051 195 1109.5 218.5 c 128,-1,36
 1168 242 1168 242 1233 274 c 1,37,-1
 1305 124 l 1,38,39
 1162 45 1162 45 1028 6 c 0,40,41
 896 -32 896 -32 781 -32 c 0,42,43
 443 -32 443 -32 253 184 c 0,44,45
 83 378 83 378 83 666 c 0,46,47
 83 974 83 974 280 1204 c 0,48,49
 493 1452 493 1452 847 1452 c 0,50,51
 1130 1452 1130 1452 1333 1282 c 0,52,53
 1554 1096 1554 1096 1554 775 c 0,54,55
 1554 470 1554 470 1366 378 c 0,56,57
 1306 348 1306 348 1227 348 c 256,58,59
 1148 348 1148 348 1096 391.5 c 128,-1,60
 1044 435 1044 435 1022 510 c 1,61,62
 972 416 972 416 905 370 c 1,63,64
 841 324 841 324 767 324 c 0,65,66
 717 324 717 324 676.5 339.5 c 128,-1,67
 636 355 636 355 603.5 382.5 c 128,-1,68
 571 410 571 410 546.5 448.5 c 128,-1,69
 522 487 522 487 506 534 c 0,70,71
 482 604 482 604 482 699 c 0,72,73
 482 829 482 829 527.5 920.5 c 128,-1,74
 573 1012 573 1012 660 1048 c 0,75,76
 708 1068 708 1068 759 1068 c 0,77,78
 837 1068 837 1068 895.5 1033 c 128,-1,79
 954 998 954 998 982 941 c 1,80,-1
 1018 1050 l 1,81,-1
 1175 1050 l 1,82,-1
 1175 581 l 2,0,1
831 511 m 0,83,84
 908 511 908 511 952 625 c 1,85,-1
 952 844 l 1,86,87
 886 911 886 911 834 911 c 0,88,89
 771 911 771 911 743 848 c 0,90,91
 716 786 716 786 716 699 c 0,92,93
 716 562 716 562 788 522 c 0,94,95
 808 511 808 511 831 511 c 0,83,84
EndSplineSet
EndChar

StartChar: quotesingle
Encoding: 39 39 158
Width: 495
GlyphClass: 2
Flags: W
HStem: 948 588<151.83 345>
VStem: 153 192<960 1123.62>
LayerCount: 2
Fore
SplineSet
393 1536 m 1,0,-1
 345 960 l 1,1,-1
 153 948 l 1,2,-1
 105 1536 l 1,3,-1
 393 1536 l 1,0,-1
EndSplineSet
EndChar

StartChar: quotedbl
Encoding: 34 34 159
Width: 922
GlyphClass: 2
Flags: W
HStem: 948 588<172.83 366 556.83 750>
VStem: 174 192<960 1123.62> 558 192<960 1123.62>
LayerCount: 2
Fore
SplineSet
414 1536 m 1,0,-1
 366 960 l 1,1,-1
 174 948 l 1,2,-1
 126 1536 l 1,3,-1
 414 1536 l 1,0,-1
798 1536 m 1,4,-1
 750 960 l 1,5,-1
 558 948 l 1,6,-1
 510 1536 l 1,7,-1
 798 1536 l 1,4,-1
EndSplineSet
EndChar

StartChar: numbersign
Encoding: 35 35 160
Width: 1335
GlyphClass: 2
Flags: W
HStem: 0 21G<186 488.604 672 974.604> 384 238<87 236 567 722 1053 1194> 960 238<135 311 642 797 1128 1242> 1516 20G<384.337 687 870.337 1173>
VStem: 186 300<0 300> 387 300<1236 1536> 672 300<0 300> 873 300<1236 1536>
DStem2: 186 0 486 0 0.129753 0.991546<38.9259 387.241 666.178 968.104 1247.04 1549.1> 672 0 972 0 0.129753 0.991546<38.9259 387.241 666.178 968.104 1247.04 1549.1>
LayerCount: 2
Fore
SplineSet
135 1198 m 1,0,-1
 342 1198 l 1,1,-1
 387 1536 l 1,2,-1
 687 1536 l 1,3,-1
 642 1198 l 1,4,-1
 828 1198 l 1,5,-1
 873 1536 l 1,6,-1
 1173 1536 l 1,7,-1
 1128 1198 l 1,8,-1
 1242 1198 l 1,9,-1
 1242 960 l 1,10,-1
 1097 960 l 1,11,-1
 1053 622 l 1,12,-1
 1194 622 l 1,13,-1
 1194 384 l 1,14,-1
 1022 384 l 1,15,-1
 972 0 l 1,16,-1
 672 0 l 1,17,-1
 722 384 l 1,18,-1
 536 384 l 1,19,-1
 486 0 l 1,20,-1
 186 0 l 1,21,-1
 236 384 l 1,22,-1
 87 384 l 1,23,-1
 87 622 l 1,24,-1
 267 622 l 1,25,-1
 311 960 l 1,26,-1
 135 960 l 1,27,-1
 135 1198 l 1,0,-1
567 622 m 1,28,-1
 753 622 l 1,29,-1
 797 960 l 1,30,-1
 611 960 l 1,31,-1
 567 622 l 1,28,-1
EndSplineSet
EndChar

StartChar: asterisk
Encoding: 42 42 161
Width: 1075
GlyphClass: 2
Flags: W
LayerCount: 2
Fore
SplineSet
668 1392 m 1,0,-1
 617 1030 l 1,1,-1
 933 1182 l 1,2,-1
 1013 909 l 1,3,-1
 663 855 l 1,4,-1
 925 595 l 1,5,-1
 698 428 l 1,6,-1
 537 748 l 1,7,-1
 376 428 l 1,8,-1
 149 595 l 1,9,-1
 411 855 l 1,10,-1
 61 909 l 1,11,-1
 141 1182 l 1,12,-1
 457 1030 l 1,13,-1
 406 1392 l 1,14,-1
 668 1392 l 1,0,-1
EndSplineSet
EndChar

StartChar: dotlessi
Encoding: 305 305 162
Width: 570
GlyphClass: 2
Flags: W
HStem: -12 21G<143 383> 1132 20G<191 431>
VStem: 143 288<12 1128>
LayerCount: 2
Fore
SplineSet
143 1128 m 1,0,-1
 431 1152 l 1,1,-1
 431 12 l 1,2,-1
 143 -12 l 1,3,-1
 143 1128 l 1,0,-1
EndSplineSet
EndChar

StartChar: equal
Encoding: 61 61 163
Width: 572
GlyphClass: 2
Flags: W
HStem: 288 238<0 576> 672 238<0 576>
VStem: 0 576<288 526 672 910>
LayerCount: 2
Fore
SplineSet
0 526 m 1,0,-1
 576 526 l 1,1,-1
 576 288 l 1,2,-1
 0 288 l 1,3,-1
 0 526 l 1,0,-1
0 910 m 1,4,-1
 576 910 l 1,5,-1
 576 672 l 1,6,-1
 0 672 l 1,7,-1
 0 910 l 1,4,-1
EndSplineSet
EndChar

StartChar: braceleft
Encoding: 123 123 164
Width: 819
GlyphClass: 2
Flags: W
HStem: -87 162<658.227 768> 693 189<192 274.344> 1470 162<638.967 768>
VStem: 288 288<187.272 682.198 892.054 1368.55>
LayerCount: 2
Fore
SplineSet
192 882 m 1,0,1
 222 882 222 882 240.5 890.5 c 128,-1,2
 259 899 259 899 269.5 917 c 128,-1,3
 280 935 280 935 284 961.5 c 128,-1,4
 288 988 288 988 288 1024 c 0,5,6
 288 1252 288 1252 341 1393 c 0,7,8
 394 1533 394 1533 531 1592 c 1,9,10
 621 1632 621 1632 768 1632 c 1,11,-1
 768 1470 l 1,12,13
 663 1470 663 1470 622 1408 c 1,14,15
 584 1347 584 1347 579 1221 c 0,16,17
 576 1137 576 1137 576 1024 c 0,18,19
 576 951 576 951 551 905 c 0,20,21
 539 881 539 881 523.5 864 c 128,-1,22
 508 847 508 847 488 834 c 128,-1,23
 468 821 468 821 442.5 810 c 128,-1,24
 417 799 417 799 384 787 c 1,25,26
 447 766 447 766 488 740 c 128,-1,27
 529 714 529 714 552 675 c 0,28,29
 576 634 576 634 576 551 c 0,30,31
 576 541 576 541 576 524.5 c 128,-1,32
 576 508 576 508 575 485 c 1,33,-1
 575 417 l 1,34,35
 576 406 576 406 576 391.5 c 128,-1,36
 576 377 576 377 577 358 c 2,37,-1
 580 296 l 1,38,39
 583 273 583 273 588 244 c 128,-1,40
 593 215 593 215 600 192 c 0,41,42
 618 132 618 132 657 103.5 c 128,-1,43
 696 75 696 75 768 75 c 1,44,-1
 768 -87 l 1,45,46
 561 -87 561 -87 451 4 c 128,-1,47
 341 95 341 95 309 278 c 0,48,49
 288 396 288 396 288 551 c 0,50,51
 288 587 288 587 284 613.5 c 128,-1,52
 280 640 280 640 269.5 658 c 128,-1,53
 259 676 259 676 240.5 684.5 c 128,-1,54
 222 693 222 693 192 693 c 1,55,-1
 192 882 l 1,0,1
EndSplineSet
EndChar

StartChar: braceright
Encoding: 125 125 165
Width: 819
GlyphClass: 2
Flags: W
HStem: -87 162<192 319.534> 693 189<685.656 768> 1470 162<192 321.771>
VStem: 384 288<189.008 682.677 892.802 1371.15>
LayerCount: 2
Fore
SplineSet
768 693 m 1,0,1
 738 693 738 693 719.5 684.5 c 128,-1,2
 701 676 701 676 690.5 658 c 128,-1,3
 680 640 680 640 676 613.5 c 128,-1,4
 672 587 672 587 672 551 c 0,5,6
 672 313 672 313 619 165 c 0,7,8
 566 18 566 18 429 -45 c 0,9,10
 336 -87 336 -87 192 -87 c 1,11,-1
 192 75 l 1,12,13
 238 75 238 75 271 88.5 c 128,-1,14
 304 102 304 102 324 123 c 0,15,16
 345 145 345 145 357 180 c 0,17,18
 370 216 370 216 374.5 252.5 c 128,-1,19
 379 289 379 289 381 340 c 0,20,21
 384 430 384 430 384 551 c 0,22,23
 384 623 384 623 409 669 c 0,24,25
 421 693 421 693 436.5 710.5 c 128,-1,26
 452 728 452 728 472 741.5 c 128,-1,27
 492 755 492 755 517.5 765.5 c 128,-1,28
 543 776 543 776 576 787 c 1,29,30
 512 809 512 809 471.5 835 c 128,-1,31
 431 861 431 861 408 900 c 0,32,33
 384 940 384 940 384 1024 c 2,34,-1
 384 1095 l 1,35,36
 386 1146 386 1146 384 1169 c 1,37,38
 384 1181 384 1181 383.5 1197.5 c 128,-1,39
 383 1214 383 1214 382 1236 c 0,40,41
 382 1258 382 1258 380 1274.5 c 128,-1,42
 378 1291 378 1291 375.5 1304.5 c 128,-1,43
 373 1318 373 1318 369 1330.5 c 128,-1,44
 365 1343 365 1343 361 1358 c 0,45,46
 353 1389 353 1389 338 1409 c 128,-1,47
 323 1429 323 1429 303 1443 c 0,48,49
 264 1470 264 1470 192 1470 c 1,50,-1
 192 1632 l 1,51,52
 397 1632 397 1632 507.5 1546 c 128,-1,53
 618 1460 618 1460 651 1284 c 0,54,55
 672 1170 672 1170 672 1024 c 0,56,57
 672 988 672 988 676 961.5 c 128,-1,58
 680 935 680 935 690.5 917 c 128,-1,59
 701 899 701 899 719.5 890.5 c 128,-1,60
 738 882 738 882 768 882 c 1,61,-1
 768 693 l 1,0,1
EndSplineSet
EndChar

StartChar: mu
Encoding: 181 181 168
Width: 1143
GlyphClass: 2
Flags: W
HStem: -12 21G<714 954> 43 185<445.649 637.027> 1132 20G<186 426 762 1002>
VStem: 138 288<-192 46 269.258 1128> 714 288<12 135 318 1128>
LayerCount: 2
Fore
SplineSet
714 135 m 1,0,1
 584 43 584 43 484 43 c 0,2,3
 453 43 453 43 426 46 c 1,4,-1
 426 -192 l 1,5,-1
 138 -204 l 1,6,-1
 138 1128 l 1,7,-1
 426 1152 l 1,8,-1
 426 381 l 2,9,10
 426 308 426 308 446.5 268 c 128,-1,11
 467 228 467 228 521 228 c 0,12,13
 556 228 556 228 590 244 c 0,14,15
 601 249 601 249 605.5 251 c 128,-1,16
 610 253 610 253 621 259 c 2,17,-1
 635 268 l 1,18,-1
 662 285 l 1,19,-1
 714 318 l 1,20,-1
 714 1128 l 1,21,-1
 1002 1152 l 1,22,-1
 1002 12 l 1,23,-1
 714 -12 l 1,24,-1
 714 135 l 1,0,1
EndSplineSet
EndChar

StartChar: ordmasculine
Encoding: 186 186 169
Width: 1073
GlyphClass: 2
Flags: W
HStem: 363 194<446.641 631.929> 984 183<441.357 626.535>
VStem: 145 247<613.89 926.595> 680 249<614.71 930.403>
LayerCount: 2
Fore
SplineSet
535 557 m 1,0,1
 608 557 608 557 644 619 c 0,2,3
 680 682 680 682 680 769 c 0,4,5
 680 835 680 835 659 887 c 128,-1,6
 638 939 638 939 599 966 c 0,7,8
 572 984 572 984 536 984 c 0,9,10
 464 984 464 984 428 921 c 0,11,12
 392 859 392 859 392 771 c 0,13,14
 392 705 392 705 413 654.5 c 128,-1,15
 434 604 434 604 472 577 c 0,16,17
 498 558 498 558 535 557 c 1,0,1
537 363 m 0,18,19
 349 363 349 363 247 469 c 256,20,21
 145 575 145 575 145 767 c 0,22,23
 145 907 145 907 202.5 1000.5 c 128,-1,24
 260 1094 260 1094 366 1137 c 0,25,26
 439 1167 439 1167 537 1167 c 0,27,28
 680 1167 680 1167 772 1104 c 128,-1,29
 864 1041 864 1041 904 927 c 0,30,31
 929 856 929 856 929 767 c 0,32,33
 929 625 929 625 870.5 531.5 c 128,-1,34
 812 438 812 438 706 393 c 1,35,36
 632 363 632 363 537 363 c 0,18,19
EndSplineSet
EndChar

StartChar: percent
Encoding: 37 37 170
Width: 2153
GlyphClass: 2
Flags: W
HStem: -1 194<1596.1 1780.93> 620 183<1589.97 1775.51> 732 194<378.103 562.929> 1353 183<371.974 557.508>
VStem: 76 247<983.51 1295.93> 611 249<983.71 1297.19> 732 276<0 276> 1125 276<1260 1536> 1294 247<250.51 562.928> 1829 249<250.71 566.403>
DStem2: 732 0 1008 0 0.247875 0.968792<68.4134 1585.48>
LayerCount: 2
Fore
SplineSet
466 926 m 1,0,1
 539 926 539 926 575 988 c 0,2,3
 611 1051 611 1051 611 1138 c 0,4,5
 611 1204 611 1204 590 1255.5 c 128,-1,6
 569 1307 569 1307 530 1334 c 0,7,8
 502 1353 502 1353 467 1353 c 0,9,10
 395 1353 395 1353 359 1290 c 0,11,12
 323 1228 323 1228 323 1140 c 0,13,14
 323 1074 323 1074 344.5 1023.5 c 128,-1,15
 366 973 366 973 404 946 c 0,16,17
 430 927 430 927 466 926 c 1,0,1
468 732 m 0,18,19
 280 732 280 732 178 838 c 256,20,21
 76 944 76 944 76 1136 c 0,22,23
 76 1277 76 1277 133 1370 c 128,-1,24
 190 1463 190 1463 296 1506 c 0,25,26
 369 1536 369 1536 468 1536 c 0,27,28
 611 1536 611 1536 702.5 1473 c 128,-1,29
 794 1410 794 1410 834 1296 c 0,30,31
 860 1220 860 1220 860 1136 c 0,32,33
 860 994 860 994 801.5 900.5 c 128,-1,34
 743 807 743 807 637 762 c 1,35,36
 563 732 563 732 468 732 c 0,18,19
1684 193 m 1,37,38
 1757 193 1757 193 1793 255 c 0,39,40
 1829 318 1829 318 1829 405 c 0,41,42
 1829 471 1829 471 1808 523 c 128,-1,43
 1787 575 1787 575 1748 602 c 0,44,45
 1721 620 1721 620 1685 620 c 0,46,47
 1613 620 1613 620 1577 557 c 0,48,49
 1541 495 1541 495 1541 407 c 0,50,51
 1541 341 1541 341 1562.5 290.5 c 128,-1,52
 1584 240 1584 240 1622 213 c 0,53,54
 1648 194 1648 194 1684 193 c 1,37,38
1686 -1 m 0,55,56
 1498 -1 1498 -1 1396 105 c 256,57,58
 1294 211 1294 211 1294 403 c 0,59,60
 1294 544 1294 544 1351 637 c 128,-1,61
 1408 730 1408 730 1514 773 c 0,62,63
 1587 803 1587 803 1686 803 c 0,64,65
 1829 803 1829 803 1920.5 740 c 128,-1,66
 2012 677 2012 677 2052 563 c 0,67,68
 2078 487 2078 487 2078 403 c 0,69,70
 2078 261 2078 261 2019.5 167.5 c 128,-1,71
 1961 74 1961 74 1855 29 c 1,72,73
 1781 -1 1781 -1 1686 -1 c 0,55,56
1125 1536 m 1,74,-1
 1401 1536 l 1,75,-1
 1008 0 l 1,76,-1
 732 0 l 1,77,-1
 1125 1536 l 1,74,-1
EndSplineSet
EndChar

StartChar: perthousand
Encoding: 8240 8240 171
Width: 3049
GlyphClass: 2
Flags: W
HStem: -1 194<1614.1 1798.93 2514.64 2699.93> 620 183<1607.97 1793.51 2509.36 2694.53> 732 194<396.103 580.929> 1353 183<389.974 575.508>
VStem: 94 247<983.51 1295.93> 629 249<983.71 1297.19> 750 276<0 276> 1143 276<1260 1536> 1312 247<250.51 562.928> 1847 249<250.71 566.403> 2213 247<249.89 562.595> 2748 249<250.71 566.403>
DStem2: 750 0 1026 0 0.247875 0.968792<68.4134 1585.48>
LayerCount: 2
Fore
SplineSet
484 926 m 1,0,1
 557 926 557 926 593 988 c 0,2,3
 629 1051 629 1051 629 1138 c 0,4,5
 629 1204 629 1204 608 1255.5 c 128,-1,6
 587 1307 587 1307 548 1334 c 0,7,8
 520 1353 520 1353 485 1353 c 0,9,10
 413 1353 413 1353 377 1290 c 0,11,12
 341 1228 341 1228 341 1140 c 0,13,14
 341 1074 341 1074 362.5 1023.5 c 128,-1,15
 384 973 384 973 422 946 c 0,16,17
 448 927 448 927 484 926 c 1,0,1
486 732 m 0,18,19
 298 732 298 732 196 838 c 256,20,21
 94 944 94 944 94 1136 c 0,22,23
 94 1277 94 1277 151 1370 c 128,-1,24
 208 1463 208 1463 314 1506 c 0,25,26
 387 1536 387 1536 486 1536 c 0,27,28
 629 1536 629 1536 720.5 1473 c 128,-1,29
 812 1410 812 1410 852 1296 c 0,30,31
 878 1220 878 1220 878 1136 c 0,32,33
 878 994 878 994 819.5 900.5 c 128,-1,34
 761 807 761 807 655 762 c 1,35,36
 581 732 581 732 486 732 c 0,18,19
2603 193 m 1,37,38
 2676 193 2676 193 2712 255 c 0,39,40
 2748 318 2748 318 2748 405 c 0,41,42
 2748 471 2748 471 2727 523 c 128,-1,43
 2706 575 2706 575 2667 602 c 0,44,45
 2640 620 2640 620 2604 620 c 0,46,47
 2532 620 2532 620 2496 557 c 0,48,49
 2460 495 2460 495 2460 407 c 0,50,51
 2460 341 2460 341 2481 290.5 c 128,-1,52
 2502 240 2502 240 2540 213 c 0,53,54
 2566 194 2566 194 2603 193 c 1,37,38
2605 -1 m 0,55,56
 2417 -1 2417 -1 2315 105 c 256,57,58
 2213 211 2213 211 2213 403 c 0,59,60
 2213 543 2213 543 2270.5 636.5 c 128,-1,61
 2328 730 2328 730 2434 773 c 0,62,63
 2507 803 2507 803 2605 803 c 0,64,65
 2748 803 2748 803 2840 740 c 128,-1,66
 2932 677 2932 677 2972 563 c 0,67,68
 2997 492 2997 492 2997 403 c 0,69,70
 2997 261 2997 261 2938.5 167.5 c 128,-1,71
 2880 74 2880 74 2774 29 c 1,72,73
 2700 -1 2700 -1 2605 -1 c 0,55,56
1143 1536 m 1,74,-1
 1419 1536 l 1,75,-1
 1026 0 l 1,76,-1
 750 0 l 1,77,-1
 1143 1536 l 1,74,-1
1702 193 m 1,78,79
 1775 193 1775 193 1811 255 c 0,80,81
 1847 318 1847 318 1847 405 c 0,82,83
 1847 471 1847 471 1826 523 c 128,-1,84
 1805 575 1805 575 1766 602 c 0,85,86
 1739 620 1739 620 1703 620 c 0,87,88
 1631 620 1631 620 1595 557 c 0,89,90
 1559 495 1559 495 1559 407 c 0,91,92
 1559 341 1559 341 1580.5 290.5 c 128,-1,93
 1602 240 1602 240 1640 213 c 0,94,95
 1666 194 1666 194 1702 193 c 1,78,79
1704 -1 m 0,96,97
 1516 -1 1516 -1 1414 105 c 256,98,99
 1312 211 1312 211 1312 403 c 0,100,101
 1312 544 1312 544 1369 637 c 128,-1,102
 1426 730 1426 730 1532 773 c 0,103,104
 1605 803 1605 803 1704 803 c 0,105,106
 1847 803 1847 803 1938.5 740 c 128,-1,107
 2030 677 2030 677 2070 563 c 0,108,109
 2096 487 2096 487 2096 403 c 0,110,111
 2096 261 2096 261 2037.5 167.5 c 128,-1,112
 1979 74 1979 74 1873 29 c 1,113,114
 1799 -1 1799 -1 1704 -1 c 0,96,97
EndSplineSet
EndChar

StartChar: section
Encoding: 167 167 172
Width: 1003
GlyphClass: 2
Flags: W
HStem: -32 207<362.084 592.701> 1365 203<397.734 579.132>
VStem: 96 267<745.561 885.82 1211.19 1341.11> 624 276<199.612 344.941 655.166 806.593>
LayerCount: 2
Fore
SplineSet
818 529 m 1,0,1
 900 447 900 447 900 317 c 0,2,3
 900 189 900 189 828 107 c 1,4,5
 758 25 758 25 644 -10 c 0,6,7
 575 -32 575 -32 498 -32 c 0,8,9
 329 -32 329 -32 225 37 c 128,-1,10
 121 106 121 106 89 240 c 1,11,-1
 311 312 l 1,12,13
 326 251 326 251 368 213 c 128,-1,14
 410 175 410 175 479 175 c 0,15,16
 536 175 536 175 580 198 c 256,17,18
 624 221 624 221 624 268 c 0,19,20
 624 332 624 332 537 367 c 2,21,-1
 296 465 l 1,22,23
 202 502 202 502 149 580.5 c 128,-1,24
 96 659 96 659 96 779 c 0,25,26
 96 912 96 912 179 1007 c 1,27,28
 106 1089 106 1089 106 1225 c 0,29,30
 106 1348 106 1348 174 1430 c 0,31,32
 240 1511 240 1511 350 1546 c 0,33,34
 417 1568 417 1568 495 1568 c 0,35,36
 601 1568 601 1568 683.5 1526 c 128,-1,37
 766 1484 766 1484 820 1415 c 0,38,39
 859 1365 859 1365 878 1300 c 1,40,-1
 642 1227 l 1,41,42
 619 1303 619 1303 567 1344 c 1,43,44
 538 1365 538 1365 497 1365 c 0,45,46
 443 1365 443 1365 408 1342 c 128,-1,47
 373 1319 373 1319 373 1273 c 0,48,49
 373 1211 373 1211 473 1175 c 1,50,-1
 678 1090 l 2,51,52
 786 1045 786 1045 848 971 c 256,53,54
 910 897 910 897 910 773 c 0,55,56
 910 629 910 629 818 529 c 1,0,1
386 888 m 1,57,58
 363 862 363 862 363 827 c 0,59,60
 363 758 363 758 463 709 c 1,61,-1
 596 654 l 1,62,63
 634 683 634 683 634 724 c 0,64,65
 634 788 634 788 547 823 c 2,66,-1
 386 888 l 1,57,58
EndSplineSet
EndChar

StartChar: greater
Encoding: 62 62 173
Width: 1050
GlyphClass: 2
Flags: W
DStem2: 292 1064 306 803 0.913812 -0.406138<118.796 610.528>
LayerCount: 2
Fore
SplineSet
294 89 m 1,0,-1
 280 432 l 1,1,-1
 757 607 l 1,2,-1
 306 803 l 1,3,-1
 292 1064 l 1,4,-1
 1102 704 l 1,5,-1
 1102 439 l 1,6,-1
 294 89 l 1,0,-1
EndSplineSet
EndChar

StartChar: less
Encoding: 60 60 174
Width: 1050
GlyphClass: 2
Flags: W
DStem2: 280 704 625 607 0.913812 0.406138<275.87 767.602>
LayerCount: 2
Fore
SplineSet
280 439 m 1,0,-1
 280 704 l 1,1,-1
 1090 1064 l 1,2,-1
 1076 803 l 1,3,-1
 625 607 l 1,4,-1
 1102 432 l 1,5,-1
 1088 89 l 1,6,-1
 280 439 l 1,0,-1
EndSplineSet
EndChar

StartChar: guilsinglleft
Encoding: 8249 8249 175
Width: 1050
GlyphClass: 2
Flags: W
VStem: 280 652
DStem2: 280 704 525 607 0.853941 0.52037<158.74 601.695>
LayerCount: 2
Fore
SplineSet
280 439 m 1,0,-1
 280 704 l 1,1,-1
 920 1094 l 1,2,-1
 906 833 l 1,3,-1
 525 607 l 1,4,-1
 932 402 l 1,5,-1
 918 59 l 1,6,-1
 280 439 l 1,0,-1
EndSplineSet
EndChar

StartChar: guilsinglright
Encoding: 8250 8250 176
Width: 1050
GlyphClass: 2
Flags: W
VStem: 280 652
DStem2: 292 1094 306 833 0.853941 -0.52037<147.772 590.727>
LayerCount: 2
Fore
SplineSet
294 59 m 1,0,-1
 280 402 l 1,1,-1
 687 607 l 1,2,-1
 306 833 l 1,3,-1
 292 1094 l 1,4,-1
 932 704 l 1,5,-1
 932 439 l 1,6,-1
 294 59 l 1,0,-1
EndSplineSet
EndChar

StartChar: trademark
Encoding: 8482 8482 177
Width: 2694
GlyphClass: 2
Flags: W
HStem: 1215 176<305 506 715 913>
VStem: 506 209<548 1215> 1056 172<548 1104> 1704 216<548 1100>
DStem2: 1361 1389 1228 1104 0.302019 -0.953302<231.522 520.189> 1502 888 1704 1100 0.286878 0.957967<0 261.038>
LayerCount: 2
Fore
SplineSet
288 1215 m 1,0,-1
 305 1391 l 1,1,-1
 931 1391 l 1,2,-1
 913 1215 l 1,3,-1
 715 1215 l 1,4,-1
 715 548 l 1,5,-1
 506 531 l 1,6,-1
 506 1215 l 1,7,-1
 288 1215 l 1,0,-1
1228 1104 m 1,8,-1
 1228 548 l 1,9,-1
 1056 539 l 1,10,-1
 1056 1381 l 1,11,-1
 1361 1389 l 1,12,-1
 1502 888 l 1,13,-1
 1642 1364 l 1,14,-1
 1920 1382 l 1,15,-1
 1920 548 l 1,16,-1
 1704 531 l 1,17,-1
 1704 1100 l 1,18,-1
 1536 539 l 1,19,-1
 1407 539 l 1,20,-1
 1228 1104 l 1,8,-1
EndSplineSet
EndChar

StartChar: emdash
Encoding: 8212 8212 178
Width: 572
GlyphClass: 2
Flags: W
HStem: 480 238<0 1152>
LayerCount: 2
Fore
SplineSet
0 718 m 1,0,-1
 1152 718 l 1,1,-1
 1152 480 l 1,2,-1
 0 480 l 1,3,-1
 0 718 l 1,0,-1
EndSplineSet
EndChar

StartChar: endash
Encoding: 8211 8211 179
Width: 572
GlyphClass: 2
Flags: W
HStem: 480 238<0 576>
VStem: 0 576<480 718>
LayerCount: 2
Fore
SplineSet
0 718 m 1,0,-1
 576 718 l 1,1,-1
 576 480 l 1,2,-1
 0 480 l 1,3,-1
 0 718 l 1,0,-1
EndSplineSet
EndChar

StartChar: onesuperior
Encoding: 185 185 180
Width: 786
GlyphClass: 2
Flags: W
HStem: 576 192<103 282 522 697> 1516 20G<388.707 522>
VStem: 282 240<768 1206>
LayerCount: 2
Fore
SplineSet
103 768 m 1,0,-1
 282 768 l 1,1,-1
 282 1206 l 1,2,-1
 220 1198 l 2,3,4
 182 1194 182 1194 156 1192 c 128,-1,5
 130 1190 130 1190 116 1190 c 2,6,-1
 90 1190 l 1,7,-1
 90 1331 l 1,8,-1
 421 1536 l 1,9,-1
 522 1536 l 1,10,-1
 522 768 l 1,11,-1
 709 768 l 1,12,-1
 697 576 l 1,13,-1
 103 576 l 1,14,-1
 103 768 l 1,0,-1
EndSplineSet
EndChar

StartChar: underscore
Encoding: 95 95 181
Width: 861
GlyphClass: 2
Flags: W
HStem: -238 238<143 719>
VStem: 143 576<-238 0>
LayerCount: 2
Fore
SplineSet
143 0 m 1,0,-1
 719 0 l 1,1,-1
 719 -238 l 1,2,-1
 143 -238 l 1,3,-1
 143 0 l 1,0,-1
EndSplineSet
EndChar

StartChar: asciicircum
Encoding: 94 94 182
Width: 1108
GlyphClass: 2
Flags: W
LayerCount: 2
Fore
SplineSet
1040 644 m 1,0,-1
 697 636 l 1,1,-1
 522 1119 l 1,2,-1
 326 644 l 1,3,-1
 65 642 l 1,4,-1
 425 1440 l 1,5,-1
 690 1440 l 1,6,-1
 1040 644 l 1,0,-1
EndSplineSet
EndChar

StartChar: twosuperior
Encoding: 178 178 183
Width: 884
GlyphClass: 2
Flags: W
HStem: 576 192<425 713> 1378 190<371.088 479.117>
VStem: 491 285<1139.22 1362.09>
LayerCount: 2
Fore
SplineSet
491 1286 m 0,0,1
 491 1324 491 1324 475.5 1351 c 128,-1,2
 460 1378 460 1378 430 1378 c 0,3,4
 363 1378 363 1378 348 1241 c 1,5,-1
 109 1321 l 1,6,7
 129 1403 129 1403 187.5 1461.5 c 128,-1,8
 246 1520 246 1520 328 1548 c 1,9,10
 390 1568 390 1568 456 1568 c 0,11,12
 530 1568 530 1568 589 1550 c 128,-1,13
 648 1532 648 1532 689.5 1496 c 128,-1,14
 731 1460 731 1460 753.5 1407 c 128,-1,15
 776 1354 776 1354 776 1284 c 0,16,17
 776 1159 776 1159 659 1008 c 0,18,19
 569 892 569 892 425 768 c 1,20,-1
 729 768 l 1,21,22
 729 750 729 750 727 726 c 128,-1,23
 725 702 725 702 721 672 c 256,24,25
 717 642 717 642 715 618 c 128,-1,26
 713 594 713 594 713 576 c 1,27,-1
 109 576 l 1,28,-1
 109 749 l 1,29,30
 148 794 148 794 232 881 c 0,31,32
 275 925 275 925 305.5 957.5 c 128,-1,33
 336 990 336 990 356 1013 c 0,34,35
 438 1107 438 1107 473 1194 c 0,36,37
 491 1239 491 1239 491 1286 c 0,0,1
EndSplineSet
EndChar

StartChar: threesuperior
Encoding: 179 179 184
Width: 890
GlyphClass: 2
Flags: W
HStem: 528 194<317.898 488.349> 971 193<305 444.912> 1381 186<343.686 478.568>
VStem: 511 273<744.723 934.278 1205.48 1357.41>
LayerCount: 2
Fore
SplineSet
411 1381 m 0,0,1
 356 1381 356 1381 323 1294 c 1,2,-1
 116 1372 l 1,3,4
 170 1466 170 1466 242 1516 c 0,5,6
 314 1567 314 1567 433 1567 c 0,7,8
 539 1567 539 1567 619 1529 c 128,-1,9
 699 1491 699 1491 741 1424 c 0,10,11
 770 1377 770 1377 770 1315 c 0,12,13
 770 1210 770 1210 684 1136 c 0,14,15
 647 1105 647 1105 583 1079 c 1,16,17
 679 1049 679 1049 731.5 991 c 128,-1,18
 784 933 784 933 784 830 c 0,19,20
 784 774 784 774 767.5 729 c 128,-1,21
 751 684 751 684 721.5 648.5 c 128,-1,22
 692 613 692 613 651 588 c 128,-1,23
 610 563 610 563 560 548 c 0,24,25
 491 528 491 528 421 528 c 0,26,27
 355 528 355 528 298.5 543.5 c 128,-1,28
 242 559 242 559 197.5 588 c 128,-1,29
 153 617 153 617 123 659 c 128,-1,30
 93 701 93 701 79 754 c 1,31,-1
 294 817 l 1,32,33
 323 722 323 722 408 722 c 0,34,35
 454 722 454 722 482.5 751 c 128,-1,36
 511 780 511 780 511 828 c 0,37,38
 511 869 511 869 497.5 896.5 c 128,-1,39
 484 924 484 924 458 940.5 c 128,-1,40
 432 957 432 957 393.5 964 c 128,-1,41
 355 971 355 971 305 971 c 1,42,-1
 305 1164 l 1,43,44
 396 1164 396 1164 446.5 1190.5 c 128,-1,45
 497 1217 497 1217 497 1289 c 0,46,47
 497 1328 497 1328 473.5 1354.5 c 128,-1,48
 450 1381 450 1381 411 1381 c 0,0,1
EndSplineSet
EndChar

StartChar: onehalf
Encoding: 189 189 185
Width: 1982
GlyphClass: 2
Flags: W
HStem: 0 192<1548 1836> 576 192<90 269 509 684> 802 190<1494.09 1602.12> 1516 20G<375.707 509 1032 1325>
VStem: 269 240<768 1206> 653 288<0 288> 1037 288<1248 1536> 1614 285<563.223 786.093>
DStem2: 653 0 941 0 0.242536 0.970143<69.8503 1583.27>
LayerCount: 2
Fore
SplineSet
1037 1536 m 1,0,-1
 1325 1536 l 1,1,-1
 941 0 l 1,2,-1
 653 0 l 1,3,-1
 1037 1536 l 1,0,-1
90 768 m 1,4,-1
 269 768 l 1,5,-1
 269 1206 l 1,6,-1
 207 1198 l 2,7,8
 169 1194 169 1194 143 1192 c 128,-1,9
 117 1190 117 1190 103 1190 c 2,10,-1
 77 1190 l 1,11,-1
 77 1331 l 1,12,-1
 408 1536 l 1,13,-1
 509 1536 l 1,14,-1
 509 768 l 1,15,-1
 696 768 l 1,16,-1
 684 576 l 1,17,-1
 90 576 l 1,18,-1
 90 768 l 1,4,-1
1614 710 m 0,19,20
 1614 748 1614 748 1598.5 775 c 128,-1,21
 1583 802 1583 802 1553 802 c 0,22,23
 1486 802 1486 802 1471 665 c 1,24,-1
 1232 745 l 1,25,26
 1252 827 1252 827 1310.5 885.5 c 128,-1,27
 1369 944 1369 944 1451 972 c 1,28,29
 1513 992 1513 992 1579 992 c 0,30,31
 1653 992 1653 992 1712 974 c 128,-1,32
 1771 956 1771 956 1812.5 920 c 128,-1,33
 1854 884 1854 884 1876.5 831 c 128,-1,34
 1899 778 1899 778 1899 708 c 0,35,36
 1899 583 1899 583 1782 432 c 0,37,38
 1692 316 1692 316 1548 192 c 1,39,-1
 1852 192 l 1,40,41
 1852 174 1852 174 1850 150 c 128,-1,42
 1848 126 1848 126 1844 96 c 256,43,44
 1840 66 1840 66 1838 42 c 128,-1,45
 1836 18 1836 18 1836 0 c 1,46,-1
 1232 0 l 1,47,-1
 1232 173 l 1,48,49
 1271 218 1271 218 1355 305 c 0,50,51
 1398 350 1398 350 1428.5 382.5 c 128,-1,52
 1459 415 1459 415 1479 437 c 0,53,54
 1561 531 1561 531 1596 618 c 0,55,56
 1614 663 1614 663 1614 710 c 0,19,20
EndSplineSet
EndChar

StartChar: onequarter
Encoding: 188 188 186
Width: 1970
GlyphClass: 2
Flags: W
HStem: 0 21G<645 938> 192 178<1313 1518 1766 1875> 576 192<82 261 501 676> 1516 20G<367.707 501 1024 1317>
VStem: 261 240<768 1206> 645 288<0 288> 1029 288<1248 1536> 1518 248<-32 192 370 711>
DStem2: 645 0 933 0 0.242536 0.970143<69.8503 1583.27> 1128 360 1313 370 0.506015 0.862525<102.238 500.092>
LayerCount: 2
Fore
SplineSet
1029 1536 m 1,0,-1
 1317 1536 l 1,1,-1
 933 0 l 1,2,-1
 645 0 l 1,3,-1
 1029 1536 l 1,0,-1
82 768 m 1,4,-1
 261 768 l 1,5,-1
 261 1206 l 1,6,-1
 199 1198 l 2,7,8
 161 1194 161 1194 135 1192 c 128,-1,9
 109 1190 109 1190 95 1190 c 2,10,-1
 69 1190 l 1,11,-1
 69 1331 l 1,12,-1
 400 1536 l 1,13,-1
 501 1536 l 1,14,-1
 501 768 l 1,15,-1
 688 768 l 1,16,-1
 676 576 l 1,17,-1
 82 576 l 1,18,-1
 82 768 l 1,4,-1
1518 192 m 1,19,-1
 1128 192 l 1,20,-1
 1128 360 l 1,21,-1
 1480 960 l 1,22,-1
 1766 960 l 1,23,-1
 1766 370 l 1,24,-1
 1891 370 l 1,25,-1
 1875 192 l 1,26,-1
 1766 192 l 1,27,-1
 1766 -32 l 1,28,-1
 1518 -48 l 1,29,-1
 1518 192 l 1,19,-1
1518 370 m 1,30,-1
 1518 711 l 1,31,-1
 1313 370 l 1,32,-1
 1518 370 l 1,30,-1
EndSplineSet
EndChar

StartChar: foursuperior
Encoding: 8308 8308 187
Width: 884
GlyphClass: 2
Flags: W
HStem: 768 178<226 431 679 788> 1516 20G<381.267 679>
VStem: 431 248<544 768 946 1287>
DStem2: 41 936 226 946 0.506015 0.862525<102.238 500.092>
LayerCount: 2
Fore
SplineSet
431 768 m 1,0,-1
 41 768 l 1,1,-1
 41 936 l 1,2,-1
 393 1536 l 1,3,-1
 679 1536 l 1,4,-1
 679 946 l 1,5,-1
 804 946 l 1,6,-1
 788 768 l 1,7,-1
 679 768 l 1,8,-1
 679 544 l 1,9,-1
 431 528 l 1,10,-1
 431 768 l 1,0,-1
431 946 m 1,11,-1
 431 1287 l 1,12,-1
 226 946 l 1,13,-1
 431 946 l 1,11,-1
EndSplineSet
EndChar

StartChar: threequarters
Encoding: 190 190 188
Width: 2010
GlyphClass: 2
Flags: W
HStem: 0 21G<688 981> 192 178<1356 1561 1809 1918> 528 194<299.898 470.349> 971 193<287 426.912> 1381 186<325.686 460.568> 1516 20G<1067 1360>
VStem: 493 273<744.723 934.278 1205.48 1357.41> 688 288<0 288> 1072 288<1248 1536> 1561 248<-32 192 370 711>
DStem2: 688 0 976 0 0.242536 0.970143<69.8503 1583.27> 1171 360 1356 370 0.506015 0.862525<102.238 500.092>
LayerCount: 2
Fore
SplineSet
1072 1536 m 1,0,-1
 1360 1536 l 1,1,-1
 976 0 l 1,2,-1
 688 0 l 1,3,-1
 1072 1536 l 1,0,-1
393 1381 m 0,4,5
 338 1381 338 1381 305 1294 c 1,6,-1
 98 1372 l 1,7,8
 152 1466 152 1466 224 1516 c 0,9,10
 296 1567 296 1567 415 1567 c 0,11,12
 521 1567 521 1567 601 1529 c 128,-1,13
 681 1491 681 1491 723 1424 c 0,14,15
 752 1377 752 1377 752 1315 c 0,16,17
 752 1210 752 1210 666 1136 c 0,18,19
 629 1105 629 1105 565 1079 c 1,20,21
 661 1049 661 1049 713.5 991 c 128,-1,22
 766 933 766 933 766 830 c 0,23,24
 766 774 766 774 749.5 729 c 128,-1,25
 733 684 733 684 703.5 648.5 c 128,-1,26
 674 613 674 613 633 588 c 128,-1,27
 592 563 592 563 542 548 c 0,28,29
 473 528 473 528 403 528 c 0,30,31
 337 528 337 528 280.5 543.5 c 128,-1,32
 224 559 224 559 179.5 588 c 128,-1,33
 135 617 135 617 105 659 c 128,-1,34
 75 701 75 701 61 754 c 1,35,-1
 276 817 l 1,36,37
 305 722 305 722 390 722 c 0,38,39
 436 722 436 722 464.5 751 c 128,-1,40
 493 780 493 780 493 828 c 0,41,42
 493 869 493 869 479.5 896.5 c 128,-1,43
 466 924 466 924 440 940.5 c 128,-1,44
 414 957 414 957 375.5 964 c 128,-1,45
 337 971 337 971 287 971 c 1,46,-1
 287 1164 l 1,47,48
 378 1164 378 1164 428.5 1190.5 c 128,-1,49
 479 1217 479 1217 479 1289 c 0,50,51
 479 1328 479 1328 455.5 1354.5 c 128,-1,52
 432 1381 432 1381 393 1381 c 0,4,5
1561 192 m 1,53,-1
 1171 192 l 1,54,-1
 1171 360 l 1,55,-1
 1523 960 l 1,56,-1
 1809 960 l 1,57,-1
 1809 370 l 1,58,-1
 1934 370 l 1,59,-1
 1918 192 l 1,60,-1
 1809 192 l 1,61,-1
 1809 -32 l 1,62,-1
 1561 -48 l 1,63,-1
 1561 192 l 1,53,-1
1561 370 m 1,64,-1
 1561 711 l 1,65,-1
 1356 370 l 1,66,-1
 1561 370 l 1,64,-1
EndSplineSet
EndChar

StartChar: oslash
Encoding: 248 248 191
Width: 1073
GlyphClass: 2
Flags: W
HStem: -27 214<449.96 622.456> 964 203<448.498 621.457>
VStem: 105 288<429.402 875.397> 680 289<276.704 620>
DStem2: 90 37 167 -31 0.618913 0.78546<0 141.679 495.55 823.082 1234.75 1369.24>
LayerCount: 2
Fore
SplineSet
537 1167 m 0,0,1
 737 1167 737 1167 854 1007 c 1,2,-1
 941 1117 l 1,3,-1
 1018 1049 l 1,4,-1
 908 910 l 1,5,6
 969 773 969 773 969 577 c 0,7,8
 969 375 969 375 907.5 230 c 128,-1,9
 846 85 846 85 723 18 c 0,10,11
 642 -27 642 -27 537 -27 c 0,12,13
 367 -27 367 -27 258 85 c 1,14,-1
 167 -31 l 1,15,-1
 90 37 l 1,16,-1
 195 170 l 1,17,18
 105 326 105 326 105 577 c 0,19,20
 105 775 105 775 166 916.5 c 128,-1,21
 227 1058 227 1058 348 1124 c 0,22,23
 427 1167 427 1167 537 1167 c 0,0,1
670 773 m 1,24,25
 646 964 646 964 536 964 c 0,26,27
 510 964 510 964 488.5 955 c 128,-1,28
 467 946 467 946 452 926 c 0,29,30
 438 907 438 907 427.5 888 c 128,-1,31
 417 869 417 869 410 835 c 2,32,-1
 400 779 l 2,33,34
 396 757 396 757 394 715 c 0,35,36
 393 695 393 695 393 680 c 128,-1,37
 393 665 393 665 393 655 c 2,38,-1
 393 596 l 1,39,-1
 393 577 l 2,40,41
 393 525 393 525 394 487.5 c 128,-1,42
 395 450 395 450 397 426 c 1,43,-1
 670 773 l 1,24,25
420 290 m 1,44,45
 454 187 454 187 535 187 c 0,46,47
 561 187 561 187 582.5 196 c 128,-1,48
 604 205 604 205 619 225 c 0,49,50
 634 246 634 246 645 266 c 128,-1,51
 656 286 656 286 662 320 c 0,52,53
 666 337 666 337 668 351.5 c 128,-1,54
 670 366 670 366 672 377 c 0,55,56
 674 389 674 389 675 405 c 128,-1,57
 676 421 676 421 677 441 c 256,58,59
 678 461 678 461 678.5 476.5 c 128,-1,60
 679 492 679 492 679 503 c 0,61,62
 680 514 680 514 680 528.5 c 128,-1,63
 680 543 680 543 680 563 c 2,64,-1
 680 577 l 1,65,-1
 680 620 l 1,66,-1
 420 290 l 1,44,45
EndSplineSet
EndChar

StartChar: Oslash
Encoding: 216 216 192
Width: 1169
GlyphClass: 2
Flags: W
HStem: -32 255<482.88 679.446> 1329 239<490.132 671.808>
VStem: 108 299<636.722 1194.56> 761 298<359.312 849.655>
DStem2: 50 198 145 106 0.635884 0.771784<0 102.334 564.78 957.633 1449.91 1571.45> 732 384 1025 407 0.194468 0.980909<-124.234 375.381>
LayerCount: 2
Fore
SplineSet
583 1568 m 0,0,1
 852 1568 852 1568 972 1317 c 1,2,-1
 1056 1419 l 1,3,-1
 1151 1327 l 1,4,-1
 1023 1171 l 1,5,6
 1061 1011 1061 1011 1061 820 c 0,7,8
 1061 761 1061 761 1059 707.5 c 128,-1,9
 1057 654 1057 654 1053 605 c 256,10,11
 1049 556 1049 556 1042.5 507 c 128,-1,12
 1036 458 1036 458 1025 407 c 1,13,14
 1006 309 1006 309 971 232 c 0,15,16
 945 175 945 175 908.5 126 c 128,-1,17
 872 77 872 77 824 41.5 c 128,-1,18
 776 6 776 6 716 -14 c 128,-1,19
 656 -34 656 -34 583 -32 c 1,20,21
 515 -32 515 -32 460 -16.5 c 128,-1,22
 405 -1 405 -1 360.5 28 c 128,-1,23
 316 57 316 57 280.5 98.5 c 128,-1,24
 245 140 245 140 217 193 c 1,25,-1
 145 106 l 1,26,-1
 50 198 l 1,27,-1
 162 334 l 1,28,29
 108 523 108 523 108 820 c 0,30,31
 108 1359 108 1359 368 1514 c 0,32,33
 458 1568 458 1568 583 1568 c 0,0,1
407 820 m 2,34,-1
 407 723 l 2,35,36
 407 707 407 707 407.5 685 c 128,-1,37
 408 663 408 663 409 634 c 1,38,-1
 750 1048 l 1,39,40
 729 1244 729 1244 652 1306 c 0,41,42
 624 1329 624 1329 583 1329 c 0,43,44
 558 1329 558 1329 539 1321 c 128,-1,45
 520 1313 520 1313 504.5 1299.5 c 128,-1,46
 489 1286 489 1286 477.5 1267.5 c 128,-1,47
 466 1249 466 1249 456 1228 c 0,48,49
 443 1201 443 1201 436 1164 c 0,50,51
 432 1145 432 1145 429 1129.5 c 128,-1,52
 426 1114 426 1114 423.5 1099.5 c 128,-1,53
 421 1085 421 1085 419.5 1069.5 c 128,-1,54
 418 1054 418 1054 416 1036 c 0,55,56
 407 949 407 949 407 820 c 2,34,-1
424 444 m 1,57,58
 431 396 431 396 440.5 361 c 128,-1,59
 450 326 450 326 467 292 c 0,60,61
 484 259 484 259 513.5 241 c 128,-1,62
 543 223 543 223 583 223 c 0,63,64
 647 223 647 223 680.5 266 c 128,-1,65
 714 309 714 309 732 384 c 0,66,67
 739 413 739 413 744 446.5 c 128,-1,68
 749 480 749 480 752 520 c 0,69,70
 756 560 756 560 757.5 594 c 128,-1,71
 759 628 759 628 760 656 c 0,72,73
 761 685 761 685 761 725.5 c 128,-1,74
 761 766 761 766 761 820 c 2,75,-1
 761 853 l 1,76,-1
 424 444 l 1,57,58
EndSplineSet
EndChar

StartChar: Thorn
Encoding: 222 222 193
Width: 1086
GlyphClass: 2
Flags: W
HStem: 265 223<447 675.955> 937 230<447 686.929> 1516 20G<145 447>
VStem: 145 302<-68 265 488 937 1167 1536> 754 299<563.703 872.924>
LayerCount: 2
Fore
SplineSet
1053 716 m 0,0,1
 1053 610 1053 610 1023.5 531 c 128,-1,2
 994 452 994 452 942 401 c 0,3,4
 891 351 891 351 812 320 c 0,5,6
 734 289 734 289 646 277 c 128,-1,7
 558 265 558 265 445 265 c 1,8,-1
 445 -68 l 1,9,-1
 145 -92 l 1,10,-1
 145 1536 l 1,11,-1
 447 1536 l 1,12,-1
 447 1167 l 1,13,14
 495 1166 495 1166 536.5 1164 c 128,-1,15
 578 1162 578 1162 616 1157 c 0,16,17
 691 1148 691 1148 762 1129 c 128,-1,18
 833 1110 833 1110 884 1076 c 1,19,20
 924 1051 924 1051 955 1017.5 c 128,-1,21
 986 984 986 984 1008 940 c 128,-1,22
 1030 896 1030 896 1041.5 840.5 c 128,-1,23
 1053 785 1053 785 1053 716 c 0,0,1
498 488 m 2,24,25
 626 488 626 488 690 542.5 c 128,-1,26
 754 597 754 597 754 718 c 0,27,28
 754 843 754 843 691 890 c 0,29,30
 627 937 627 937 490 937 c 2,31,-1
 447 937 l 1,32,-1
 447 488 l 1,33,-1
 498 488 l 2,24,25
EndSplineSet
EndChar

StartChar: AE
Encoding: 198 198 194
Width: 2330
GlyphClass: 2
Flags: W
HStem: 0 240<995 1397> 329 246<440 676> 672 258<995 1247> 1296 240<995 1381>
VStem: 676 319<240 329 575 672 930 1033.13> 699 296<930 1296>
DStem2: -116 0 211 0 0.399234 0.916849<130.55 484.093 749.162 897.95>
LayerCount: 2
Fore
SplineSet
660 0 m 1,0,-1
 676 329 l 1,1,-1
 341 329 l 1,2,-1
 211 0 l 1,3,-1
 -116 0 l 1,4,-1
 545 1518 l 1,5,-1
 749 1536 l 1,6,-1
 1405 1536 l 1,7,-1
 1381 1296 l 1,8,-1
 995 1296 l 1,9,-1
 995 930 l 1,10,-1
 1248 930 l 1,11,-1
 1247 672 l 1,12,-1
 995 672 l 1,13,-1
 995 240 l 1,14,-1
 1421 240 l 1,15,-1
 1397 0 l 1,16,-1
 660 0 l 1,0,-1
677 575 m 1,17,-1
 699 1310 l 1,18,-1
 440 575 l 1,19,-1
 677 575 l 1,17,-1
EndSplineSet
EndChar

StartChar: Lslash
Encoding: 321 321 195
Width: 989
GlyphClass: 2
Flags: W
HStem: 0 240<444 916> 672 238<0 238> 768 238<434 672> 1516 20G<194.833 444>
VStem: 145 299<240 1512>
DStem2: 0 910 0 672 0.989949 0.141421<0 645.164>
LayerCount: 2
Fore
SplineSet
0 910 m 1,0,-1
 672 1006 l 1,1,-1
 672 768 l 1,2,-1
 0 672 l 1,3,-1
 0 910 l 1,0,-1
444 1536 m 1,4,-1
 444 240 l 1,5,-1
 964 240 l 1,6,-1
 916 0 l 1,7,-1
 145 0 l 1,8,-1
 145 1512 l 1,9,-1
 444 1536 l 1,4,-1
EndSplineSet
EndChar

StartChar: lslash
Encoding: 322 322 196
Width: 569
GlyphClass: 2
Flags: W
HStem: -12 21G<142 382> 576 238<0 238> 722 238<338 576> 1516 20G<270 430>
VStem: 142 288<12 1500>
DStem2: 0 814 0 576 0.969345 0.245702<0 535.738>
LayerCount: 2
Fore
SplineSet
0 814 m 1,0,-1
 576 960 l 1,1,-1
 576 722 l 1,2,-1
 0 576 l 1,3,-1
 0 814 l 1,0,-1
142 1500 m 1,4,-1
 430 1536 l 1,5,-1
 430 12 l 1,6,-1
 142 -12 l 1,7,-1
 142 1500 l 1,4,-1
EndSplineSet
EndChar

StartChar: Euro
Encoding: 8364 8364 197
Width: 1160
GlyphClass: 2
Flags: W
HStem: -32 257<504.03 703.918> 576 144<0 106 413 864> 816 144<0 105 410 864> 1328 240<492.359 666.683>
VStem: 105 300<387.894 576 720.219 816 960 1149.25> 729 290<1074 1258.83> 766 255<292.558 443>
LayerCount: 2
Fore
SplineSet
0 960 m 1,0,-1
 114 960 l 1,1,2
 162 1372 162 1372 393 1516 c 0,3,4
 475 1568 475 1568 592 1568 c 0,5,6
 730 1568 730 1568 823 1496 c 256,7,8
 916 1424 916 1424 968 1309 c 0,9,10
 1019 1196 1019 1196 1019 1074 c 1,11,-1
 729 1059 l 1,12,13
 729 1101 729 1101 723 1139.5 c 128,-1,14
 717 1178 717 1178 706 1211 c 128,-1,15
 695 1244 695 1244 677.5 1269.5 c 128,-1,16
 660 1295 660 1295 638 1310 c 0,17,18
 612 1328 612 1328 575 1328 c 0,19,20
 497 1328 497 1328 455 1214 c 0,21,22
 418 1114 418 1114 410 960 c 1,23,-1
 864 960 l 1,24,-1
 864 816 l 1,25,-1
 405 816 l 1,26,-1
 405 760 l 2,27,28
 405 746 405 746 405 736.5 c 128,-1,29
 405 727 405 727 406 720 c 1,30,-1
 864 720 l 1,31,-1
 864 576 l 1,32,-1
 413 576 l 1,33,34
 423 456 423 456 446.5 375 c 128,-1,35
 470 294 470 294 522 252 c 0,36,37
 555 225 555 225 604 225 c 0,38,39
 640 225 640 225 667.5 240 c 128,-1,40
 695 255 695 255 711 277 c 0,41,42
 719 288 719 288 726.5 302.5 c 128,-1,43
 734 317 734 317 739 334 c 0,44,45
 751 369 751 369 756.5 398 c 128,-1,46
 762 427 762 427 766 467 c 1,47,-1
 1021 443 l 1,48,49
 1021 285 1021 285 957 174 c 128,-1,50
 893 63 893 63 778 8 c 0,51,52
 694 -32 694 -32 585 -32 c 0,53,54
 503 -32 503 -32 436.5 -7.5 c 128,-1,55
 370 17 370 17 322 62 c 256,56,57
 274 107 274 107 242 159 c 128,-1,58
 210 211 210 211 184 278 c 0,59,60
 160 341 160 341 143 414.5 c 128,-1,61
 126 488 126 488 116 576 c 1,62,-1
 0 576 l 1,63,-1
 0 720 l 1,64,-1
 106 720 l 1,65,66
 105 727 105 727 105 736.5 c 128,-1,67
 105 746 105 746 105 760 c 2,68,-1
 105 816 l 1,69,-1
 0 816 l 1,70,-1
 0 960 l 1,0,-1
EndSplineSet
EndChar

StartChar: thorn
Encoding: 254 254 198
Width: 588
GlyphClass: 2
Flags: W
HStem: -358 21G<-139 150> -27 206<233.759 477> 922 245<295.025 509.5> 1516 20G<-11 149>
VStem: -139 288<-358 144 240.015 869.271 1005 1500> 439 288<241.6 893.446>
LayerCount: 2
Fore
SplineSet
396 -27 m 0,0,1
 296 -27 296 -27 233.5 18 c 128,-1,2
 171 63 171 63 149 144 c 1,3,-1
 150 -358 l 1,4,-1
 -139 -358 l 1,5,-1
 -139 1500 l 1,6,-1
 149 1536 l 1,7,-1
 149 1005 l 1,8,9
 254 1119 254 1119 371 1155 c 0,10,11
 410 1167 410 1167 447 1167 c 0,12,13
 572 1167 572 1167 644 1036 c 0,14,15
 727 884 727 884 727 576 c 0,16,17
 727 272 727 272 640 118 c 0,18,19
 558 -27 558 -27 396 -27 c 0,0,1
149 480 m 2,20,21
 149 314 149 314 193 240 c 0,22,23
 230 179 230 179 289 179 c 0,24,25
 346 179 346 179 376.5 213.5 c 128,-1,26
 407 248 407 248 421 302 c 128,-1,27
 435 356 435 356 437 421 c 128,-1,28
 439 486 439 486 439 546 c 2,29,-1
 439 576 l 1,30,-1
 439 615 l 1,31,-1
 439 657 l 2,32,33
 439 662 439 662 439 671.5 c 128,-1,34
 439 681 439 681 438 695 c 0,35,36
 438 709 438 709 438 719.5 c 128,-1,37
 438 730 438 730 437 736 c 0,38,39
 436 749 436 749 434 773 c 128,-1,40
 432 797 432 797 428 810 c 1,41,42
 423 832 423 832 415 856.5 c 128,-1,43
 407 881 407 881 395 895 c 1,44,45
 375 922 375 922 339 922 c 0,46,47
 292 922 292 922 218 882 c 0,48,49
 183 864 183 864 149 843 c 1,50,-1
 149 480 l 2,20,21
EndSplineSet
EndChar

StartChar: divide
Encoding: 247 247 199
Width: 768
GlyphClass: 2
Flags: W
HStem: -12 300<241 529> 384 192<49 719> 672 288<241 529>
VStem: 241 288<0 288 672 960>
LayerCount: 2
Fore
SplineSet
529 288 m 1,0,-1
 529 0 l 1,1,-1
 241 -12 l 1,2,-1
 241 288 l 1,3,-1
 529 288 l 1,0,-1
529 960 m 1,4,-1
 529 672 l 1,5,-1
 241 672 l 1,6,-1
 241 960 l 1,7,-1
 529 960 l 1,4,-1
49 576 m 1,8,-1
 719 576 l 1,9,-1
 719 384 l 1,10,-1
 49 384 l 1,11,-1
 49 576 l 1,8,-1
EndSplineSet
EndChar

StartChar: eth
Encoding: 240 240 200
Width: 1070
GlyphClass: 2
Flags: W
HStem: -32 262<433.957 623.99> 692 244<398 617.131> 1346 222<291.531 563.041>
VStem: 95 289<279.848 633.308> 675 293<344.318 670.741 856 1102.71>
DStem2: 381 1202 445 1021 0.955745 0.294195<7.91837 642.431>
LayerCount: 2
Fore
SplineSet
439 936 m 0,0,1
 503 936 503 936 566.5 913 c 128,-1,2
 630 890 630 890 675 856 c 1,3,4
 674 899 674 899 672 935 c 128,-1,5
 670 971 670 971 668 1000 c 256,6,7
 666 1029 666 1029 661 1061 c 128,-1,8
 656 1093 656 1093 649 1128 c 0,9,10
 624 1265 624 1265 538 1322 c 0,11,12
 500 1346 500 1346 449 1346 c 0,13,14
 343 1346 343 1346 207 1250 c 0,15,16
 190 1238 190 1238 176 1227.5 c 128,-1,17
 162 1217 162 1217 152 1207 c 1,18,-1
 44 1393 l 1,19,20
 105 1444 105 1444 143 1471 c 0,21,22
 180 1497 180 1497 245 1526 c 256,23,24
 310 1555 310 1555 378 1562 c 0,25,26
 432 1568 432 1568 500 1568 c 0,27,28
 659 1568 659 1568 772 1436 c 0,29,30
 868 1323 868 1323 917 1152 c 1,31,32
 968 979 968 979 968 774 c 0,33,34
 968 636 968 636 955.5 523.5 c 128,-1,35
 943 411 943 411 913 304 c 1,36,37
 884 196 884 196 827 119 c 128,-1,38
 770 42 770 42 686 2 c 1,39,40
 617 -32 617 -32 523 -32 c 0,41,42
 340 -32 340 -32 214 118 c 0,43,44
 160 181 160 181 127.5 267 c 128,-1,45
 95 353 95 353 95 452 c 0,46,47
 95 600 95 600 148 718 c 0,48,49
 202 836 202 836 296 896 c 0,50,51
 357 936 357 936 439 936 c 0,0,1
384 447 m 0,52,53
 384 353 384 353 420 292 c 1,54,55
 458 230 458 230 536 230 c 0,56,57
 585 230 585 230 612.5 259.5 c 128,-1,58
 640 289 640 289 654 333 c 0,59,60
 659 347 659 347 662.5 363.5 c 128,-1,61
 666 380 666 380 668 399 c 0,62,63
 672 438 672 438 673.5 467.5 c 128,-1,64
 675 497 675 497 675 536 c 2,65,-1
 675 608 l 2,66,67
 675 612 675 612 674.5 620.5 c 128,-1,68
 674 629 674 629 674 633 c 1,69,70
 673 636 673 636 673 649 c 1,71,72
 599 692 599 692 540 692 c 0,73,74
 484 692 484 692 446 654 c 0,75,76
 410 617 410 617 397 565 c 128,-1,77
 384 513 384 513 384 447 c 0,52,53
381 1202 m 1,78,-1
 995 1391 l 1,79,-1
 1059 1210 l 1,80,-1
 445 1021 l 1,81,-1
 381 1202 l 1,78,-1
EndSplineSet
EndChar

StartChar: multiply
Encoding: 215 215 201
Width: 895
GlyphClass: 2
Flags: W
DStem2: 89 364 258 196 0.707107 0.707107<0.707107 265.872 503.46 768.625> 445 720 277 552 0.707107 -0.707107<-260.922 0 237.588 506.996>
LayerCount: 2
Fore
SplineSet
445 720 m 1,0,-1
 633 908 l 1,1,-1
 801 739 l 1,2,-1
 613 552 l 1,3,-1
 804 362 l 1,4,-1
 635 193 l 1,5,-1
 445 384 l 1,6,-1
 258 196 l 1,7,-1
 89 364 l 1,8,-1
 277 552 l 1,9,-1
 92 736 l 1,10,-1
 261 905 l 1,11,-1
 445 720 l 1,0,-1
EndSplineSet
EndChar

StartChar: guillemotleft
Encoding: 171 171 202
Width: 1050
GlyphClass: 2
Flags: W
DStem2: 96 704 291 607 0.794358 0.60745<95.9771 472.363> 672 704 867 607 0.794358 0.60745<95.9771 472.363>
LayerCount: 2
Fore
SplineSet
96 439 m 1,0,-1
 96 704 l 1,1,-1
 606 1094 l 1,2,-1
 592 833 l 1,3,-1
 291 607 l 1,4,-1
 618 402 l 1,5,-1
 604 59 l 1,6,-1
 96 439 l 1,0,-1
672 439 m 1,7,-1
 672 704 l 1,8,-1
 1182 1094 l 1,9,-1
 1168 833 l 1,10,-1
 867 607 l 1,11,-1
 1194 402 l 1,12,-1
 1180 59 l 1,13,-1
 672 439 l 1,7,-1
EndSplineSet
EndChar

StartChar: guillemotright
Encoding: 187 187 203
Width: 1050
GlyphClass: 2
Flags: W
DStem2: 108 1094 122 833 0.794358 -0.60745<169.665 546.051> 684 1094 698 833 0.794358 -0.60745<169.665 546.051>
LayerCount: 2
Fore
SplineSet
686 59 m 1,0,-1
 672 402 l 1,1,-1
 999 607 l 1,2,-1
 698 833 l 1,3,-1
 684 1094 l 1,4,-1
 1194 704 l 1,5,-1
 1194 439 l 1,6,-1
 686 59 l 1,0,-1
110 59 m 1,7,-1
 96 402 l 1,8,-1
 423 607 l 1,9,-1
 122 833 l 1,10,-1
 108 1094 l 1,11,-1
 618 704 l 1,12,-1
 618 439 l 1,13,-1
 110 59 l 1,7,-1
EndSplineSet
EndChar

StartChar: asciitilde
Encoding: 126 126 204
Width: 877
GlyphClass: 2
Flags: W
HStem: 757 207<469.656 678.191> 878 196<221.285 422.241>
VStem: 115 638<878.027 963.979>
LayerCount: 2
Fore
SplineSet
570 964 m 0,0,1
 636 964 636 964 681.5 994.5 c 128,-1,2
 727 1025 727 1025 753 1074 c 1,3,-1
 753 892 l 2,4,5
 753 889 753 889 740 870 c 1,6,7
 708 814 708 814 642 778 c 1,8,9
 606 757 606 757 562 757 c 0,10,11
 542 757 542 757 526.5 762 c 128,-1,12
 511 767 511 767 494 778 c 1,13,-1
 476 791 l 1,14,-1
 442 818 l 2,15,16
 429 828 429 828 419.5 835 c 128,-1,17
 410 842 410 842 403 847 c 0,18,19
 390 856 390 856 362.5 867 c 128,-1,20
 335 878 335 878 308 878 c 0,21,22
 248 878 248 878 175 823 c 0,23,24
 139 795 139 795 115 768 c 1,25,-1
 116 932 l 1,26,27
 152 974 152 974 185 1003 c 1,28,29
 271 1074 271 1074 329 1074 c 0,30,31
 356 1074 356 1074 380 1064 c 1,32,33
 406 1055 406 1055 420 1045.5 c 128,-1,34
 434 1036 434 1036 457 1019 c 1,35,-1
 472 1007 l 2,36,37
 484 998 484 998 489.5 994 c 128,-1,38
 495 990 495 990 506 983 c 0,39,40
 521 974 521 974 536 969 c 128,-1,41
 551 964 551 964 570 964 c 0,0,1
EndSplineSet
EndChar

StartChar: ordfeminine
Encoding: 170 170 205
Width: 1044
GlyphClass: 2
Flags: W
HStem: 288 152<246 417.126> 726 127<357.486 475> 1012 155<351.254 463.145>
VStem: 101 208<448.555 685.309> 475 212<451.731 726 850.009 975.078>
LayerCount: 2
Fore
SplineSet
687 468 m 2,0,1
 687 389 687 389 709 317 c 1,2,-1
 503 299 l 1,3,-1
 480 403 l 1,4,5
 442 331 442 331 348 298 c 0,6,7
 318 288 318 288 293 288 c 0,8,9
 199 288 199 288 150 364 c 256,10,11
 101 440 101 440 101 549 c 0,12,13
 101 827 101 827 475 853 c 1,14,15
 475 947 475 947 463 976 c 0,16,17
 448 1012 448 1012 413 1012 c 0,18,19
 349 1012 349 1012 337 916 c 1,20,-1
 131 952 l 1,21,22
 144 1058 144 1058 218 1112.5 c 128,-1,23
 292 1167 292 1167 413 1167 c 0,24,25
 544 1167 544 1167 615.5 1100.5 c 128,-1,26
 687 1034 687 1034 687 907 c 2,27,-1
 687 468 l 2,0,1
475 726 m 1,28,29
 309 726 309 726 309 552 c 0,30,31
 309 440 309 440 393 440 c 0,32,33
 430 440 430 440 475 490 c 1,34,-1
 475 726 l 1,28,29
EndSplineSet
EndChar

StartChar: germandbls
Encoding: 223 223 206
Width: 1165
GlyphClass: 2
Flags: W
HStem: 2 228<559 752.303> 723 208<570 662.887> 1345 222<487.065 703.83>
VStem: 143 290<0 1289.1> 770 249<1032.1 1280.04> 855 291<327.755 605.604>
LayerCount: 2
Fore
SplineSet
812 858 m 1,0,1
 887 833 887 833 941 805 c 128,-1,2
 995 777 995 777 1044 732 c 1,3,4
 1146 642 1146 642 1146 471 c 0,5,6
 1146 369 1146 369 1116 290.5 c 128,-1,7
 1086 212 1086 212 1034 160 c 1,8,9
 983 107 983 107 907 73 c 0,10,11
 832 39 832 39 747 22.5 c 128,-1,12
 662 6 662 6 559 2 c 1,13,-1
 559 230 l 1,14,-1
 571 230 l 2,15,16
 671 230 671 230 740 267 c 128,-1,17
 809 304 809 304 838 376 c 1,18,19
 855 421 855 421 855 462 c 0,20,21
 855 547 855 547 809 608 c 128,-1,22
 763 669 763 669 691 700 c 0,23,24
 636 723 636 723 570 723 c 1,25,-1
 570 931 l 1,26,27
 719 979 719 979 758 1094 c 0,28,29
 770 1127 770 1127 770 1160 c 0,30,31
 770 1220 770 1220 738.5 1264 c 128,-1,32
 707 1308 707 1308 658 1330 c 1,33,34
 622 1345 622 1345 579 1345 c 0,35,36
 482 1345 482 1345 446 1216 c 0,37,38
 433 1171 433 1171 433 1111 c 2,39,-1
 433 0 l 1,40,-1
 143 0 l 1,41,-1
 143 1056 l 2,42,43
 143 1239 143 1239 207.5 1364 c 128,-1,44
 272 1489 272 1489 397 1538 c 0,45,46
 473 1567 473 1567 548 1567 c 0,47,48
 705 1567 705 1567 818.5 1504.5 c 128,-1,49
 932 1442 932 1442 986 1333 c 0,50,51
 1019 1265 1019 1265 1019 1192 c 0,52,53
 1019 1102 1019 1102 970 1016.5 c 128,-1,54
 921 931 921 931 812 858 c 1,0,1
EndSplineSet
EndChar

StartChar: lessequal
Encoding: 8804 8804 290
Width: 787
GlyphClass: 2
Flags: W
HStem: 95 238<65 641>
VStem: 62 592
DStem2: 62 1070 307 973 0.84964 0.527363<157.008 533.105>
LayerCount: 2
Fore
SplineSet
62 805 m 1,0,-1
 62 1070 l 1,1,-1
 642 1430 l 1,2,-1
 628 1169 l 1,3,-1
 307 973 l 1,4,-1
 654 798 l 1,5,-1
 640 455 l 1,6,-1
 62 805 l 1,0,-1
65 333 m 1,7,-1
 641 333 l 1,8,-1
 641 95 l 1,9,-1
 65 95 l 1,10,-1
 65 333 l 1,7,-1
EndSplineSet
EndChar

StartChar: greaterequal
Encoding: 8805 8805 291
Width: 786
GlyphClass: 2
Flags: W
HStem: 95 238<145 721>
VStem: 132 592
DStem2: 144 1430 158 1169 0.84964 -0.527363<149.537 525.634>
LayerCount: 2
Fore
SplineSet
146 455 m 1,0,-1
 132 798 l 1,1,-1
 479 973 l 1,2,-1
 158 1169 l 1,3,-1
 144 1430 l 1,4,-1
 724 1070 l 1,5,-1
 724 805 l 1,6,-1
 146 455 l 1,0,-1
721 95 m 1,7,-1
 145 95 l 1,8,-1
 145 333 l 1,9,-1
 721 333 l 1,10,-1
 721 95 l 1,7,-1
EndSplineSet
EndChar

StartChar: product
Encoding: 8719 8719 294
Width: 1173
GlyphClass: 2
Flags: W
HStem: -12 21G<143 393 731 981> 1238 274<443 731>
VStem: 143 300<12 1238> 731 300<12 1238>
LayerCount: 2
Fore
SplineSet
731 1238 m 1,0,-1
 443 1238 l 1,1,-1
 443 12 l 1,2,-1
 143 -12 l 1,3,-1
 143 1512 l 1,4,-1
 1031 1512 l 1,5,-1
 1031 12 l 1,6,-1
 731 -12 l 1,7,-1
 731 1238 l 1,0,-1
EndSplineSet
EndChar

StartChar: pi
Encoding: 960 960 295
Width: 570
GlyphClass: 2
Flags: W
HStem: -12 21G<141 383> 1132 20G<189 431> 1248 192<-3 573>
VStem: 143 286<12 1128>
LayerCount: 2
Fore
SplineSet
143 1128 m 1,0,-1
 431 1152 l 1,1,-1
 431 12 l 1,2,-1
 143 -12 l 1,3,-1
 143 1128 l 1,0,-1
-3 1440 m 1,4,-1
 573 1440 l 1,5,-1
 573 1248 l 1,6,-1
 -3 1248 l 1,7,-1
 -3 1440 l 1,4,-1
141 1128 m 1,8,-1
 429 1152 l 1,9,-1
 429 12 l 1,10,-1
 141 -12 l 1,11,-1
 141 1128 l 1,8,-1
EndSplineSet
EndChar

StartChar: integral
Encoding: 8747 8747 296
Width: 754
GlyphClass: 2
Flags: W
HStem: -394 202<7.83179 170.629> -364 172<6 170.629> 1344 202<515.371 677.861> 1344 172<515.828 680>
VStem: 199 288<-147.646 1299.65>
LayerCount: 2
Fore
SplineSet
617 1344 m 2,0,1
 542 1344 542 1344 514.5 1301 c 128,-1,2
 487 1258 487 1258 487 1173 c 2,3,-1
 487 -22 l 2,4,5
 487 -205 487 -205 448 -278 c 0,6,7
 386 -394 386 -394 201 -394 c 0,8,9
 64 -394 64 -394 6 -364 c 1,10,-1
 6 -192 l 1,11,-1
 69 -192 l 2,12,13
 144 -192 144 -192 171.5 -149 c 128,-1,14
 199 -106 199 -106 199 -21 c 2,15,-1
 199 1174 l 2,16,17
 199 1356 199 1356 238 1430 c 0,18,19
 300 1546 300 1546 485 1546 c 0,20,21
 612 1546 612 1546 680 1516 c 1,22,-1
 680 1344 l 1,23,-1
 617 1344 l 2,0,1
EndSplineSet
EndChar

StartChar: Delta
Encoding: 8710 8710 300
Width: 1050
GlyphClass: 2
Flags: W
HStem: 0 192<416 723>
LayerCount: 2
Fore
SplineSet
389 1322 m 1,0,-1
 654 1322 l 1,1,-1
 1008 0 l 1,2,-1
 48 0 l 1,3,-1
 389 1322 l 1,0,-1
416 192 m 1,4,-1
 723 192 l 1,5,-1
 557 907 l 1,6,-1
 416 192 l 1,4,-1
EndSplineSet
EndChar

StartChar: lozenge
Encoding: 9674 9674 301
Width: 1050
GlyphClass: 2
Flags: W
HStem: 0 21G<360.966 643.785>
VStem: 80 246<519 920> 635 282<501 938>
DStem2: 80 797 326 720 0.411131 0.911576<30.9468 462.502> 326 720 80 642 0.411663 -0.911336<0 431.548>
LayerCount: 2
Fore
SplineSet
917 642 m 1,0,-1
 635 0 l 1,1,-1
 370 0 l 1,2,-1
 80 642 l 1,3,-1
 80 797 l 1,4,-1
 370 1440 l 1,5,-1
 635 1440 l 1,6,-1
 917 797 l 1,7,-1
 917 642 l 1,0,-1
326 720 m 1,8,-1
 491 321 l 1,9,-1
 635 720 l 1,10,-1
 491 1119 l 1,11,-1
 326 720 l 1,8,-1
EndSplineSet
EndChar

StartChar: zero.zero
Encoding: 65540 -1 303
Width: 1160
GlyphClass: 2
Flags: W
HStem: -27 255<474.164 684.793> 1308 238<469.336 679.982>
VStem: 108 289<366.289 1166.67> 765 288<370.803 1168.09>
LayerCount: 2
Fore
SplineSet
579 -27 m 0,0,1
 498 -27 498 -27 431 -3 c 128,-1,2
 364 21 364 21 318 60 c 0,3,4
 271 101 271 101 236 158 c 0,5,6
 200 217 200 217 178.5 278 c 128,-1,7
 157 339 157 339 142 414 c 0,8,9
 126 493 126 493 117.5 585.5 c 128,-1,10
 109 678 109 678 108 786 c 1,11,12
 108 1380 108 1380 406 1513 c 0,13,14
 479 1546 479 1546 579 1546 c 0,15,16
 922 1546 922 1546 1018 1130 c 0,17,18
 1053 978 1053 978 1053 786 c 1,19,20
 1052 715 1052 715 1048.5 652.5 c 128,-1,21
 1045 590 1045 590 1037.5 532 c 128,-1,22
 1030 474 1030 474 1019 419.5 c 128,-1,23
 1008 365 1008 365 992 311 c 0,24,25
 960 203 960 203 900 126.5 c 128,-1,26
 840 50 840 50 753 8 c 1,27,28
 677 -27 677 -27 579 -27 c 0,0,1
579 228 m 256,29,30
 661 228 661 228 697 290 c 0,31,32
 715 322 715 322 724.5 352.5 c 128,-1,33
 734 383 734 383 742 428 c 0,34,35
 753 491 753 491 759 580 c 128,-1,36
 765 669 765 669 765 786 c 0,37,38
 765 895 765 895 762 968 c 128,-1,39
 759 1041 759 1041 754 1081 c 0,40,41
 736 1211 736 1211 681 1269 c 0,42,43
 643 1308 643 1308 579 1308 c 0,44,45
 536 1308 536 1308 503.5 1289.5 c 128,-1,46
 471 1271 471 1271 452 1242 c 0,47,48
 434 1213 434 1213 422 1170 c 1,49,50
 411 1126 411 1126 406.5 1087 c 128,-1,51
 402 1048 402 1048 400 996 c 0,52,53
 397 900 397 900 397 786 c 0,54,55
 397 668 397 668 402.5 578.5 c 128,-1,56
 408 489 408 489 419 428 c 0,57,58
 423 405 423 405 427 386.5 c 128,-1,59
 431 368 431 368 436 352 c 128,-1,60
 441 336 441 336 447 321 c 128,-1,61
 453 306 453 306 462 290 c 0,62,63
 497 228 497 228 579 228 c 256,29,30
EndSplineSet
EndChar

StartChar: Eng
Encoding: 330 330 326
Width: 1248
GlyphClass: 2
Flags: W
HStem: -287 203<630 819.461> 0 21G<143 411> 1516 20G<143 465.73 894.333 1106>
VStem: 143 268<12 998> 852 254<-65.5303 143 722 1512>
DStem2: 852 722 411 998 0.458405 -0.888744<-447.45 0>
LayerCount: 2
Fore
SplineSet
630 -84 m 1,0,1
 696 -106 696 -106 745 -95 c 128,-1,2
 794 -84 794 -84 816 -58 c 1,3,4
 832 -41 832 -41 839 -11 c 0,5,6
 847 19 847 19 849.5 47.5 c 128,-1,7
 852 76 852 76 852 120 c 2,8,-1
 852 143 l 1,9,-1
 411 998 l 1,10,-1
 411 12 l 1,11,-1
 143 0 l 1,12,-1
 143 1524 l 1,13,-1
 456 1536 l 1,14,-1
 852 722 l 1,15,-1
 852 1512 l 1,16,-1
 1106 1536 l 1,17,-1
 1106 95 l 2,18,19
 1106 23 1106 23 1098.5 -35 c 128,-1,20
 1091 -93 1091 -93 1071 -147 c 0,21,22
 1042 -225 1042 -225 983 -271 c 128,-1,23
 924 -317 924 -317 822 -317 c 0,24,25
 741 -317 741 -317 630 -287 c 1,26,-1
 630 -84 l 1,0,1
EndSplineSet
EndChar

StartChar: uni018F
Encoding: 399 399 359
Width: 1038
GlyphClass: 2
Flags: W
HStem: -32 198<439.075 595.461> 438 166<387 662> 955 212<446.209 594.057>
VStem: 104 283<260.94 438> 662 287<266.172 438 604 868.547>
LayerCount: 2
Fore
SplineSet
104 570 m 1,0,1
 112 599 112 599 112 604 c 1,2,-1
 662 604 l 1,3,4
 662 825 662 825 588 920 c 0,5,6
 561 955 561 955 522 955 c 0,7,8
 465 955 465 955 411 867 c 0,9,10
 407 862 407 862 362 767 c 1,11,-1
 144 850 l 1,12,13
 236 1167 236 1167 527 1167 c 0,14,15
 612 1167 612 1167 680.5 1139.5 c 128,-1,16
 749 1112 749 1112 795 1061 c 1,17,18
 843 1010 843 1010 873 949.5 c 128,-1,19
 903 889 903 889 922 811 c 0,20,21
 949 701 949 701 949 570 c 0,22,23
 949 368 949 368 888.5 223.5 c 128,-1,24
 828 79 828 79 706 12 c 0,25,26
 626 -32 626 -32 517 -32 c 0,27,28
 316 -32 316 -32 208 136 c 0,29,30
 104 297 104 297 104 570 c 1,0,1
387 438 m 1,31,32
 387 247 387 247 460 187 c 0,33,34
 485 166 485 166 522 166 c 0,35,36
 576 166 576 166 618 245 c 0,37,38
 662 328 662 328 662 438 c 1,39,-1
 387 438 l 1,31,32
EndSplineSet
EndChar

StartChar: dotlessj
Encoding: 567 567 392
Width: 632
GlyphClass: 2
Flags: W
HStem: -269 173<46 155.319> 1132 20G<253 493>
VStem: 205 288<-77.8105 1128>
LayerCount: 2
Fore
SplineSet
238 -288 m 0,0,1
 197 -288 197 -288 149.5 -283.5 c 128,-1,2
 102 -279 102 -279 46 -269 c 1,3,-1
 46 -96 l 1,4,5
 119 -96 119 -96 156.5 -80.5 c 128,-1,6
 194 -65 194 -65 201 -16 c 0,7,8
 205 7 205 7 205 54 c 2,9,-1
 205 1128 l 1,10,-1
 493 1152 l 1,11,-1
 493 54 l 2,12,13
 493 28 493 28 493 9.5 c 128,-1,14
 493 -9 493 -9 492 -21 c 1,15,16
 492 -46 492 -46 489 -85 c 0,17,18
 486 -127 486 -127 479 -146 c 1,19,20
 474 -164 474 -164 466.5 -182 c 128,-1,21
 459 -200 459 -200 448 -216 c 128,-1,22
 437 -232 437 -232 421.5 -245 c 128,-1,23
 406 -258 406 -258 386 -265 c 1,24,25
 332 -288 332 -288 238 -288 c 0,0,1
EndSplineSet
EndChar

StartChar: eng
Encoding: 331 331 395
Width: 1143
GlyphClass: 2
Flags: W
HStem: -269 173<559 668.319> -12 21G<142 382> 922 245<598.252 803.5> 1132 20G<190 430>
VStem: 142 288<12 867.497 1005 1128> 718 288<-78.8018 902.24>
LayerCount: 2
Fore
SplineSet
751 -288 m 0,0,1
 710 -288 710 -288 662.5 -283.5 c 128,-1,2
 615 -279 615 -279 559 -269 c 1,3,-1
 559 -96 l 1,4,5
 632 -96 632 -96 669.5 -80.5 c 128,-1,6
 707 -65 707 -65 714 -16 c 0,7,8
 718 7 718 7 718 54 c 2,9,-1
 718 769 l 2,10,11
 718 922 718 922 613 922 c 0,12,13
 574 922 574 922 528 897 c 0,14,15
 499 881 499 881 474.5 867.5 c 128,-1,16
 450 854 450 854 430 842 c 1,17,-1
 430 12 l 1,18,-1
 142 -12 l 1,19,-1
 142 1128 l 1,20,-1
 430 1152 l 1,21,-1
 430 1005 l 1,22,23
 474 1043 474 1043 516.5 1072.5 c 128,-1,24
 559 1102 559 1102 601 1124 c 0,25,26
 686 1167 686 1167 760 1167 c 0,27,28
 847 1167 847 1167 904.5 1120 c 128,-1,29
 962 1073 962 1073 988 997 c 0,30,31
 1006 943 1006 943 1006 876 c 2,32,-1
 1006 54 l 2,33,34
 1006 29 1006 29 1006 10.5 c 128,-1,35
 1006 -8 1006 -8 1005 -21 c 1,36,37
 1005 -47 1005 -47 1002 -86 c 0,38,39
 999 -126 999 -126 992 -147 c 1,40,41
 982 -183 982 -183 960 -217 c 128,-1,42
 938 -251 938 -251 898 -265 c 1,43,44
 844 -288 844 -288 751 -288 c 0,0,1
EndSplineSet
EndChar

StartChar: schwa
Encoding: 601 601 427
Width: 1038
GlyphClass: 2
Flags: W
HStem: -32 198<439.075 595.461> 438 166<387 662> 955 212<446.209 594.057>
VStem: 104 283<260.94 438> 662 287<266.172 438 604 868.547>
LayerCount: 2
Fore
SplineSet
104 570 m 1,0,1
 112 599 112 599 112 604 c 1,2,-1
 662 604 l 1,3,4
 662 825 662 825 588 920 c 0,5,6
 561 955 561 955 522 955 c 0,7,8
 465 955 465 955 411 867 c 0,9,10
 407 862 407 862 362 767 c 1,11,-1
 144 850 l 1,12,13
 236 1167 236 1167 527 1167 c 0,14,15
 612 1167 612 1167 680.5 1139.5 c 128,-1,16
 749 1112 749 1112 795 1061 c 1,17,18
 843 1010 843 1010 873 949.5 c 128,-1,19
 903 889 903 889 922 811 c 0,20,21
 949 701 949 701 949 570 c 0,22,23
 949 368 949 368 888.5 223.5 c 128,-1,24
 828 79 828 79 706 12 c 0,25,26
 626 -32 626 -32 517 -32 c 0,27,28
 316 -32 316 -32 208 136 c 0,29,30
 104 297 104 297 104 570 c 1,0,1
387 438 m 1,31,32
 387 247 387 247 460 187 c 0,33,34
 485 166 485 166 522 166 c 0,35,36
 576 166 576 166 618 245 c 0,37,38
 662 328 662 328 662 438 c 1,39,-1
 387 438 l 1,31,32
EndSplineSet
EndChar

StartChar: Sigma
Encoding: 931 931 437
Width: 1158
GlyphClass: 2
Flags: W
HStem: 0 240<496 976> 1296 240<197 656>
DStem2: 126 190 496 240 0.432148 0.901803<204.985 1226.43>
LayerCount: 2
Fore
SplineSet
656 1296 m 1,0,-1
 173 1296 l 1,1,-1
 197 1536 l 1,2,-1
 1010 1536 l 1,3,-1
 1010 1337 l 1,4,-1
 496 240 l 1,5,-1
 1024 240 l 1,6,-1
 976 0 l 1,7,-1
 126 0 l 1,8,-1
 126 190 l 1,9,-1
 656 1296 l 1,0,-1
EndSplineSet
EndChar

StartChar: commaaccent
Encoding: 63171 63171 439
Width: 507
GlyphClass: 2
Flags: W
HStem: 384 288<112 256>
VStem: 112 288<384 672> 256 144<315.332 384>
LayerCount: 2
Fore
SplineSet
400 672 m 1,0,-1
 400 384 l 2,1,2
 400 255 400 255 337.5 179 c 128,-1,3
 275 103 275 103 160 96 c 1,4,-1
 160 288 l 1,5,6
 205 288 205 288 229.5 314.5 c 128,-1,7
 254 341 254 341 256 384 c 1,8,-1
 112 384 l 1,9,-1
 112 672 l 1,10,-1
 400 672 l 1,0,-1
EndSplineSet
EndChar

StartChar: uni030F
Encoding: 783 783 440
Width: 1165
GlyphClass: 2
Flags: W
HStem: 1150 578
LayerCount: 2
Fore
SplineSet
455 1150 m 1,0,-1
 71 1534 l 1,1,-1
 305 1728 l 1,2,-1
 574 1248 l 1,3,-1
 455 1150 l 1,0,-1
958 1150 m 1,4,-1
 574 1534 l 1,5,-1
 808 1728 l 1,6,-1
 1077 1248 l 1,7,-1
 958 1150 l 1,4,-1
EndSplineSet
EndChar

StartChar: uni032F
Encoding: 815 815 441
Width: 1064
GlyphClass: 2
Flags: W
HStem: 1500 240<394.539 671.117>
VStem: 100 240<1260 1443.69> 724 240<1260 1445.21>
LayerCount: 2
Fore
SplineSet
100 1260 m 1,0,1
 100 1370 100 1370 137 1466 c 0,2,3
 161 1529 161 1529 197 1579.5 c 128,-1,4
 233 1630 233 1630 282 1666 c 128,-1,5
 331 1702 331 1702 393 1721 c 128,-1,6
 455 1740 455 1740 532 1740 c 0,7,8
 613 1740 613 1740 680 1717 c 0,9,10
 811 1671 811 1671 888 1550 c 0,11,12
 964 1432 964 1432 964 1260 c 1,13,-1
 724 1260 l 1,14,15
 724 1296 724 1296 721 1338 c 0,16,17
 709 1500 709 1500 532 1500 c 0,18,19
 423 1500 423 1500 381 1440 c 0,20,21
 340 1381 340 1381 340 1260 c 1,22,-1
 100 1260 l 1,0,1
EndSplineSet
EndChar

StartChar: E
Encoding: 69 69 443
Width: 1095
GlyphClass: 2
Flags: W
HStem: 0 240<446 918> 672 258<446 768> 1296 240<446 902>
VStem: 146 300<240 672 930 1296>
LayerCount: 2
Fore
SplineSet
146 1536 m 1,0,-1
 926 1536 l 1,1,-1
 902 1296 l 1,2,-1
 446 1296 l 1,3,-1
 446 930 l 1,4,-1
 769 930 l 1,5,-1
 768 672 l 1,6,-1
 446 672 l 1,7,-1
 446 240 l 1,8,-1
 942 240 l 1,9,-1
 918 0 l 1,10,-1
 146 0 l 1,11,-1
 146 1536 l 1,0,-1
EndSplineSet
EndChar

StartChar: F
Encoding: 70 70 444
Width: 980
GlyphClass: 2
Flags: W
HStem: -12 21G<146 396> 638 255<446 768> 1295 241<446 902>
VStem: 146 300<12 638 893 1295>
LayerCount: 2
Fore
SplineSet
146 1536 m 1,0,-1
 926 1536 l 1,1,-1
 902 1295 l 1,2,-1
 446 1295 l 1,3,-1
 446 893 l 1,4,-1
 768 893 l 1,5,-1
 768 638 l 1,6,-1
 446 638 l 1,7,-1
 446 12 l 1,8,-1
 146 -12 l 1,9,-1
 146 1536 l 1,0,-1
EndSplineSet
EndChar

StartChar: G
Encoding: 71 71 445
Width: 1174
GlyphClass: 2
Flags: W
HStem: -32 241<498.918 700.902> 0 21G<935 1054> 508 260<637 765> 1332 236<513.287 689.82>
VStem: 104 300<514 1132.01> 765 289<285.903 508 1034 1073> 939 115<12 180.534>
LayerCount: 2
Fore
SplineSet
869 285 m 1,0,1
 863 211 863 211 839.5 152.5 c 128,-1,2
 816 94 816 94 775 53 c 128,-1,3
 734 12 734 12 676.5 -10 c 128,-1,4
 619 -32 619 -32 544 -32 c 0,5,6
 314 -32 314 -32 202 214 c 0,7,8
 104 430 104 430 104 774 c 0,9,10
 104 988 104 988 156 1160 c 0,11,12
 208 1333 208 1333 310 1441 c 0,13,14
 430 1568 430 1568 603 1568 c 0,15,16
 773 1568 773 1568 876 1477 c 1,17,18
 982 1385 982 1385 1022 1234 c 0,19,20
 1048 1135 1048 1135 1048 1034 c 1,21,-1
 762 1015 l 1,22,-1
 755 1073 l 1,23,-1
 746 1136 l 2,24,25
 745 1144 745 1144 742.5 1157 c 128,-1,26
 740 1170 740 1170 735 1189 c 1,27,28
 728 1225 728 1225 718 1243 c 1,29,30
 710 1261 710 1261 694.5 1282.5 c 128,-1,31
 679 1304 679 1304 659 1316 c 0,32,33
 633 1332 633 1332 599 1332 c 0,34,35
 526 1332 526 1332 477 1235 c 0,36,37
 404 1089 404 1089 404 758 c 2,38,-1
 404 630 l 1,39,-1
 410 514 l 2,40,41
 413 475 413 475 417.5 445 c 128,-1,42
 422 415 422 415 427 394 c 256,43,44
 432 373 432 373 441 350.5 c 128,-1,45
 450 328 450 328 461 305 c 0,46,47
 484 259 484 259 518 234 c 128,-1,48
 552 209 552 209 601 209 c 0,49,50
 649 209 649 209 682.5 236 c 128,-1,51
 716 263 716 263 733 309 c 256,52,53
 750 355 750 355 757.5 403 c 128,-1,54
 765 451 765 451 765 508 c 1,55,-1
 613 508 l 1,56,-1
 637 768 l 1,57,-1
 1054 768 l 1,58,-1
 1054 12 l 1,59,-1
 939 0 l 1,60,61
 931 32 931 32 913.5 102.5 c 128,-1,62
 896 173 896 173 869 285 c 1,0,1
EndSplineSet
EndChar

StartChar: H
Encoding: 72 72 446
Width: 1173
GlyphClass: 2
Flags: W
HStem: -12 21G<143 393 731 981> 639 274<443 731> 1516 20G<193 443 781 1031>
VStem: 143 300<12 639 913 1512> 731 300<12 639 913 1512>
LayerCount: 2
Fore
SplineSet
731 639 m 1,0,-1
 443 639 l 1,1,-1
 443 12 l 1,2,-1
 143 -12 l 1,3,-1
 143 1512 l 1,4,-1
 443 1536 l 1,5,-1
 443 913 l 1,6,-1
 731 913 l 1,7,-1
 731 1512 l 1,8,-1
 1031 1536 l 1,9,-1
 1031 12 l 1,10,-1
 731 -12 l 1,11,-1
 731 639 l 1,0,-1
EndSplineSet
EndChar

StartChar: I
Encoding: 73 73 447
Width: 588
GlyphClass: 2
Flags: W
HStem: -12 21G<145 395> 1516 20G<195 445>
VStem: 145 300<12 1512>
LayerCount: 2
Fore
SplineSet
145 1512 m 1,0,-1
 445 1536 l 1,1,-1
 445 12 l 1,2,-1
 145 -12 l 1,3,-1
 145 1512 l 1,0,-1
EndSplineSet
EndChar
